<svg id="Foreground" xmlns="http://www.w3.org/2000/svg" viewBox="0 0 326.3 231.5"><defs><style>.cls-1{fill:#fff;}.cls-2{fill:#85b663;}.cls-3{fill:#64a844;}.cls-4{fill:#6eab43;}.cls-5{fill:#1f5733;}</style></defs><title>jj-logo</title><g id="_Group_" data-name="&lt;Group&gt;"><path id="_Compound_Path_" data-name="&lt;Compound Path&gt;" class="cls-1" d="M324.52,55.92a6.28,6.28,0,0,0-4.8-1.81,9.9,9.9,0,0,0-1,.06l-.24,0-21.25,3.36c-4.05.66-6.16,2.9-6.45,7l-.37,7.06a7,7,0,0,0,1.69,5.28,6,6,0,0,0,4.56,1.79,7.81,7.81,0,0,0,.81,0c.8-.08,1.49-.13,2.06-.13l-.57,10.47c-.5,11.66-4.76,18-12.68,18.8-2.1.22-3.8,0-4.34-.57a3.6,3.6,0,0,1-.46-2.39l1.88-38.67c0-1.14.13-3.81-1.78-5.76a6.23,6.23,0,0,0-4.73-1.8c-.3,0-.63,0-1,.05l-.23,0L254.22,62c-4,.64-6.09,2.83-6.42,6.76-3.24-3-9.17-6.3-19.61-6.19-1.65,0-3.39.12-5.17.31-24.61,2.54-40,17.92-41.2,41.14a39.17,39.17,0,0,0,1.61,14.13,7.79,7.79,0,0,0-1.45,0,10.25,10.25,0,0,0-2.25.51l-.42.13v-.32l2.06-41.85a7.51,7.51,0,0,0-1.77-5.76,6.23,6.23,0,0,0-4.73-1.8,8.74,8.74,0,0,0-1,.06l-.24,0L161.39,71.1l1.26-1.68c0-.06,5.08-6.28,23.46-14.76,7.37-4,11.07-9,9.91-13.51-.88-3.39-4.29-5.47-8.9-5.42a22.76,22.76,0,0,0-10.24,3c-6.64,3.55-11,9.35-13.84,14.82l2.14-4.86c0-.09,4.29-9.4,24.46-25.65,7.19-6.58,10.2-13.16,8.27-18-1.25-3.14-4.4-5-8.44-4.95-4.77.05-10.18,2.61-15.22,7.19-15.92,14.46-13.91,39.64-13.82,40.7l.75,8.51c-.9-2.3-2.83-8.55-3.39-21-1.22-11.24-6.65-12.06-8.29-12a6.38,6.38,0,0,0-4.66,2.29c-2.34,2.63-3.38,7-2.85,12.11C143.47,52,157.65,60.5,158.25,60.86l1.43.85a47.19,47.19,0,0,0-1.46,5.82l-.66,4.18-5.06.8c-2.17.35-4.95,1.23-6,4.57A5.88,5.88,0,0,0,145,74.46a6.32,6.32,0,0,0-4.79-1.81,9.76,9.76,0,0,0-1,.06l-.24,0-21.25,3.37c-4.06.65-6.16,2.9-6.45,7l-.36,7.06a6.93,6.93,0,0,0,1.68,5.28,6.12,6.12,0,0,0,5.37,1.74A13.34,13.34,0,0,1,120,97l-.57,10.47c-.5,11.66-4.77,18-12.68,18.8-2.11.22-3.8,0-4.34-.58a3.51,3.51,0,0,1-.46-2.38l1.87-38.67c0-1.14.14-3.81-1.77-5.77a6.32,6.32,0,0,0-4.73-1.8c-.31,0-.64,0-1,.07l-.24,0L74.72,80.55c-3.29.53-5.28,2.13-6.07,4.88l.18-3.89a8.77,8.77,0,0,1,.36-2.45,10,10,0,0,1,2.1-.37l1.7-.18c4.33-.44,6.54-2.63,6.56-6.5l.38-7.49a6.84,6.84,0,0,0-1.57-5.26,5.9,5.9,0,0,0-4.53-1.73c-.35,0-.73,0-1.17.07L39,61.11c-4.27.44-6.56,2.79-6.8,7l-.39,7.63c0,.09,0,.17,0,.26a6.2,6.2,0,0,0,1.7,4.49A6.11,6.11,0,0,0,38,82.11c.38,0,.82,0,1.32-.09l1.48-.15a10.82,10.82,0,0,1,1.08-.07c0,.29,0,.69,0,1.21l-1.55,32.74c-.73,15.17-5.57,18.18-10.47,19a18.94,18.94,0,0,0,1-4.93c.2-4.42-1-8.16-3.6-10.81-2.76-2.85-6.68-4.16-11.46-3.67A17.28,17.28,0,0,0,0,132.09c-.3,7.45,1.59,13.33,5.6,17.46,4.46,4.59,11.44,6.87,20.73,6.76,1.93,0,4-.14,6.15-.36,21.55-2.23,33.54-16.11,34.68-40.14l.9-18.8a6,6,0,0,0,1.49,2.83A6.11,6.11,0,0,0,75,101.58c.77-.09,1.43-.13,2-.14l-1.11,25.21c-.44,8,1.2,13.91,5,17.91a16.08,16.08,0,0,0,3.67,2.82l-28.12,2.9c-5,.51-6.18,3.82-6.33,6.53l-.34,6.4v.26a5.87,5.87,0,0,0,1.63,4.27,5.76,5.76,0,0,0,4.27,1.55c.35,0,.74,0,1.18-.07l1.24-.13h.12a1.69,1.69,0,0,0,0,.23l-1.3,27.44c-.54,11-3.55,14-7,15a17.56,17.56,0,0,0,.51-3.15A12.57,12.57,0,0,0,47.14,199c-2.47-2.55-6-3.72-10.19-3.29a15.17,15.17,0,0,0-13.83,14.7C22.86,216.9,24.5,222,28,225.61c3.88,4,9.9,6,17.9,5.88,1.64,0,3.39-.12,5.22-.31,18.19-1.88,28.75-14.06,29.71-34.31l.63-13.12c.06.06.1.13.16.19A5.74,5.74,0,0,0,86,185.65a6.63,6.63,0,0,0,.75,0l.84-.08-.89,20.34c-.38,7,1.06,12,4.41,15.55,3.13,3.26,7.58,4.82,13.62,4.75,1.15,0,2.38-.09,3.67-.22,8-.82,14.27-3.07,18.84-6.69a14.5,14.5,0,0,0,9.2,2.72c.71,0,1.42,0,2.13-.13,5.67-.58,8-1.29,10.36-2.46a7.43,7.43,0,0,0,3.94-6.29l.06-1.2a11.71,11.71,0,0,0,2.16,3.2c2.47,2.59,6.09,3.92,10.47,3.87a21,21,0,0,0,2.1-.12c5.11-.53,7.8-1.17,10.26-2.42a7.25,7.25,0,0,0,4-6.33l.11-2.49c4.93,5,12.45,7.47,22.38,7.35,2,0,4.11-.15,6.31-.37,12-1.24,19.74-5.18,21.15-6,2.47-1.34,3.93-2.87,4-6.64l.16-3.23a22,22,0,0,0,2.26,2.82c5,5.16,12.18,7.72,21.46,7.62,1.6,0,3.29-.12,5-.3,8-.83,16-3.09,20.44-5.73,1.23-.72,4.51-2.62,4.59-6.56l.34-6.94a5.58,5.58,0,0,0-1.5-4.34,5.27,5.27,0,0,0-4.49-1.52,13,13,0,0,0-3.84,1.22c-.47.2-1,.44-1.61.67l-.35.16a41.39,41.39,0,0,1-12.78,3.29,27.44,27.44,0,0,1-4.6.12c.85-.05,1.69-.13,2.55-.21,24-2.48,27.38-17,27.73-23.11a19.35,19.35,0,0,0-1.44-8.84c26.3-4.93,32.87-21.82,33.57-35.67l2.87-59.79c0-1.13.13-3.79-1.77-5.74M146.33,89.69a6,6,0,0,0,1.12,1.78,6.52,6.52,0,0,0,5,2l2.16-.12v0L153.21,124c0,.46,0,.91,0,1.36a5.1,5.1,0,0,0-1.13-2.07,5.23,5.23,0,0,0-4-1.63l-.68,0a11.16,11.16,0,0,0-2.32.52l-.3.09Zm5.27,112.75a5.29,5.29,0,0,0-4.29-1.35,9.36,9.36,0,0,0-1.38.25l1.16-24.25a6.24,6.24,0,0,0,4.55,1.69l1.05-.06ZM231,188.6a12.21,12.21,0,0,0-4,1l-.18.07L226,190a46.27,46.27,0,0,1-14,3.84c-5.26.55-8.8,0-10.4-1.69-1.29-1.33-1.86-3.88-1.69-7.54.52-10.07,5.81-12.41,10.19-13.07a11.75,11.75,0,0,0,3.16,7.78,12.17,12.17,0,0,0,10.26,3.33,15,15,0,0,0,7.78-3.06,40.41,40.41,0,0,0,.61,9.13,5.36,5.36,0,0,0-1-.09m21.83-40.1a30.93,30.93,0,0,0-16.94,14,15,15,0,0,0-3.27-5.1c-2.68-2.76-7.88-6-17.48-5.92-1.41,0-2.88.1-4.4.26-21,2.17-34.16,15.31-35.19,35.16a34.49,34.49,0,0,0,1.11,11.16l-.33,0a7.72,7.72,0,0,0-1.42.26L176.57,164a7.08,7.08,0,0,0-1.68-5.36,6,6,0,0,0-4.48-1.73c-.28,0-.58,0-.9.06a1,1,0,0,0-.24,0l-17.73,2.81a6.83,6.83,0,0,0-4.9,2.83,4.88,4.88,0,0,0-.75-1,6,6,0,0,0-4.53-1.73c-.29,0-.6,0-.94.05l-.23,0-17.84,2.83c-3.72.61-5.73,2.76-6,6.48l-.31,5.92a6.45,6.45,0,0,0,1.6,5,5.7,5.7,0,0,0,4.34,1.72c.24,0,.48,0,.75,0s.62-.06.9-.08l-.43,8c-.4,9.37-3.77,14.45-10,15.09a11,11,0,0,1-1.11.07,3.41,3.41,0,0,1-2-.34,2.65,2.65,0,0,1-.19-1.47l1.57-32.42a7.07,7.07,0,0,0-1.68-5.35,5.92,5.92,0,0,0-4.48-1.73,7.41,7.41,0,0,0-.9.06l-.23,0-17.93,2.84a7.26,7.26,0,0,0-4.11,1.92v-.35a9.91,9.91,0,0,1,.17-1.52,11.32,11.32,0,0,1,1.26-.18l1.42-.15c5-.51,6.12-3.58,6.14-6.13l.32-6.26a6.73,6.73,0,0,0-1.12-4.46,30.29,30.29,0,0,0,6.08.52c1.34,0,2.79-.1,4.29-.26,9.65-1,17.21-3.76,22.56-8.24,3.21,2.75,7.83,3.94,13.43,3.36,6.61-.69,9.28-1.51,12-2.85a8.09,8.09,0,0,0,4.26-6.8l.29-6.72a14.73,14.73,0,0,0,3.81,8.57c2.78,2.9,6.89,4.4,11.87,4.35.78,0,1.6-.06,2.43-.14,6-.62,9.1-1.35,11.94-2.79a7.8,7.8,0,0,0,4.36-6.85l.22-5c.36.44.71.89,1.11,1.3,5.7,5.94,14.57,8.88,26.32,8.75,2.35,0,4.86-.17,7.45-.44,14.15-1.46,23.24-6.09,24.92-7,2.74-1.49,4.24-3.1,4.35-7.23l.41-8.2a6.79,6.79,0,0,0-1.52-5.3,5.27,5.27,0,0,0-3.92-1.59,13.57,13.57,0,0,0-4.46,1.09l-.19.08-.91.38a55.69,55.69,0,0,1-16.93,4.66c-1.41.15-2.73.23-3.92.24-4.43,0-7.51-.8-9.17-2.51s-2.47-5-2.26-9.64c.52-10.09,5-15.5,13.83-16.5a13.33,13.33,0,0,0,3.54,9.65c2.76,2.86,6.84,4.23,11.55,3.74a16.28,16.28,0,0,0,14.95-15c.17,0,.32,0,.51,0a8,8,0,0,0,.81,0c.77-.08,1.43-.12,2-.14l-1.11,25.21c-.43,7.78,1.1,13.51,4.66,17.5a17,17,0,0,0-7.19,22.9m9.1,22.35c-1,.1-2.09.16-3.34.17h-1.5c1.69-4.66,4.49-5.63,6.91-5.88.79-.08,1.52-.13,2.18-.14a6.26,6.26,0,0,1,3,.43h0a2,2,0,0,1,.1.83c-.07,1.16-.21,3.85-7.35,4.59M284,136.23a50.74,50.74,0,0,1-5.17.25,13.63,13.63,0,0,0-.93-5.12c.77-.05,1.56-.11,2.37-.19A49.83,49.83,0,0,0,296.46,127c-1.78,5.31-6.13,8.61-12.45,9.27"/><path id="_Path_" data-name="&lt;Path&gt;" class="cls-2" d="M162.9,47.67s-2.17-24.85,13-38.65S205.45,5.15,188,21.17c-21,16.92-25.07,26.5-25.07,26.5"/><path id="_Path_2" data-name="&lt;Path&gt;" class="cls-3" d="M160.67,67.93s3.12-19.42,17.38-27.06,23.33,2.71,6.88,11.61c-19.32,8.9-24.26,15.45-24.26,15.45"/><path id="_Path_3" data-name="&lt;Path&gt;" class="cls-4" d="M159.51,58.73s-13.68-8.11-15-21.28,9.21-17,10.86-1.84c.78,17.41,4.19,23.12,4.19,23.12"/><path id="_Path_4" data-name="&lt;Path&gt;" class="cls-5" d="M16.22,119.71c6.58-.67,10.55,3.24,10.24,9.93A12.72,12.72,0,0,1,21.62,139a23.37,23.37,0,0,0,7.2.31c10.54-1.1,15.12-8.45,15.84-23.36l1.55-32.74c.32-5.17-1.34-6.17-5.87-5.7l-1.48.15c-2.26.24-2.68-.19-2.69-1.71l.39-7.63c.12-2.11.84-2.65,2.88-2.86L73.12,62c2-.21,2.56.2,2.44,2.31l-.39,7.63c0,1.52-.25,2-2.63,2.27l-1.7.17c-4.42.45-6.11,1.44-6.38,7L62.82,115.6c-1,20-10,33.85-30.76,36C9,154,3.94,143.76,4.4,132.26a12.88,12.88,0,0,1,11.82-12.55"/><path id="_Path_5" data-name="&lt;Path&gt;" class="cls-5" d="M155.36,88.87l-2.74.17c-2.17.11-2.6-1.13-2.5-2.66l.31-6.69c.12-2.12.74-2.53,2.77-2.86l21.13-3.35c2.27-.23,2.75.65,2.67,3l-2.06,41.78c-.08,3.75,1,5.39,3.48,5.13,2.27-.23,2.76-.75,4-.88.91-.09,1.4.09,1.32,1l-.36,7.86a3.44,3.44,0,0,1-1.92,3.12c-2,1-4.44,1.74-10.45,2.36-6.69.69-14.05-1.35-13.44-12.62L159,93.52c.22-3.64-.87-4.7-3.63-4.65"/><path id="_Path_6" data-name="&lt;Path&gt;" class="cls-5" d="M283.11,153.68c-13.38,1.39-28.44-.56-27.83-13.94a12.19,12.19,0,0,1,10.4-11.35c5-.52,9.09,2.8,8.77,8.67a11.17,11.17,0,0,1-.7,3.58,59.16,59.16,0,0,0,10.71-.06c9.53-1,16.69-7.33,17.25-18.25l.2-4.46c-4.93,5.18-12.89,8-22.07,8.94-12.48,1.29-21-2.38-20.15-18.47L260.81,83c.23-3.64-.34-5-6.8-4.32-1.93.2-2.32-.81-2.24-2.46l.37-7c.14-2,.75-2.53,2.77-2.86L276.27,63c2.27-.24,2.76.65,2.67,3l-1.87,38.62c-.25,4.92,2.25,8.29,9.62,7.53,10.43-1.08,16-9.36,16.6-23l.61-11.27c0-3-1-4.22-6.92-3.61-1.92.2-2.31-.81-2.23-2.46l.36-7c.15-2,.75-2.53,2.77-2.85l21.25-3.37c2.38-.24,2.87.64,2.78,3l-2.86,59.74c-1,20.19-14.63,30.24-35.94,32.44"/><path id="_Path_7" data-name="&lt;Path&gt;" class="cls-5" d="M37.4,200.11c5.51-.58,8.84,2.71,8.58,8.31a10.59,10.59,0,0,1-4.06,7.86,19.7,19.7,0,0,0,6,.26c8.84-.92,12.68-7.09,13.29-19.58l1.3-27.45c.27-4.33-1.12-5.17-4.93-4.77l-1.23.13c-1.91.19-2.25-.16-2.26-1.43l.32-6.4c.11-1.77.71-2.23,2.42-2.41l28.24-2.91c1.71-.18,2.15.17,2,1.94l-.33,6.39c0,1.28-.21,1.7-2.21,1.9l-1.42.15c-3.71.38-5.12,1.21-5.35,5.83l-1.38,28.73c-.8,16.72-8.4,28.37-25.8,30.17-19.3,2-23.57-6.57-23.18-16.21a10.78,10.78,0,0,1,9.91-10.51"/><path id="_Path_8" data-name="&lt;Path&gt;" class="cls-5" d="M144.3,206.19c2-.2,2.31-.63,3.45-.75.67-.07,1.08.09,1,.88l-.3,6.58a3.06,3.06,0,0,1-1.61,2.62c-1.79.87-3.63,1.45-8.77,2-4.18.43-8.66-.37-10.53-4.78-4.08,5.31-11.18,8-19.64,8.88-10.46,1.08-17.62-2-16.89-15.49L92,184.87c.19-3.05-.28-4.17-5.7-3.61-1.62.16-2-.68-1.88-2.06l.31-5.91c.12-1.67.63-2.11,2.32-2.39l17.91-2.83c1.9-.2,2.32.55,2.24,2.51L105.6,203c-.2,4.13,1.89,6.94,8.07,6.31,8.74-.91,13.43-7.85,13.92-19.26l.51-9.44c0-2.55-.86-3.54-5.8-3-1.61.17-1.94-.67-1.87-2.05l.3-5.91c.12-1.68.63-2.12,2.32-2.39l17.82-2.83c2-.2,2.41.54,2.33,2.51l-1.71,35.7c0,2.75.91,3.83,2.81,3.63"/><path id="_Path_9" data-name="&lt;Path&gt;" class="cls-5" d="M154.05,174.25l-2.29.14c-1.83.09-2.19-.95-2.1-2.23l.26-5.6c.11-1.78.63-2.12,2.32-2.4L170,161.35c1.9-.2,2.31.55,2.24,2.51l-1.72,35c-.08,3.13.81,4.51,2.91,4.3,1.9-.2,2.31-.64,3.36-.74.76-.08,1.17.07,1.11.86l-.3,6.59a2.89,2.89,0,0,1-1.61,2.61c-1.7.87-3.73,1.47-8.77,2-5.61.58-11.78-1.13-11.27-10.59l1.18-25.76c.19-3.06-.72-3.94-3-3.9"/><path id="_Path_10" data-name="&lt;Path&gt;" class="cls-5" d="M212.5,198.17a52.3,52.3,0,0,0,16-4.49c3-1.1,3.5-1.05,3.38,1.21l-.34,6.89c-.06,2.06-.41,2.29-1.74,3a55,55,0,0,1-19.52,5.45c-21.68,2.24-31.24-6.17-30.39-23.1,1-18.7,13.49-29.19,31.27-31,16.45-1.7,21.55,6,21.29,12.2a10.07,10.07,0,0,1-9.32,10c-5.33.55-8.83-2.61-8.61-7.82a13.49,13.49,0,0,1,.78-3.6,33.23,33.23,0,0,0-4.61.18c-10.84,1.12-14.65,8.66-15.1,17.32-.49,10.82,4.45,15.11,16.91,13.82"/><path id="_Compound_Path_2" data-name="&lt;Compound Path&gt;" class="cls-5" d="M286.92,165.71c-.56,9.75-7.84,17.35-23.81,19a55.74,55.74,0,0,1-11.69,0c.92,6.95,5,9.76,14.64,8.76a45.66,45.66,0,0,0,14.29-3.73,24.28,24.28,0,0,1,4.28-1.61c.95-.1,1.22.36,1.18,1.35l-.34,6.88c0,1.08-.56,1.92-2.42,3-4.14,2.48-11.75,4.44-18.69,5.16-21.21,2.19-29.46-8.9-28.64-25.44.68-15,9.76-26.55,26.68-28.3,16.45-1.7,25.15,3.77,24.52,14.89m-35.31,9.43a63.41,63.41,0,0,0,10.74.06c6.65-.69,11-3.29,11.27-8.7.17-4.91-3.45-6.4-10.1-5.71-6.94.71-10.69,5.7-11.91,14.35"/><path id="_Compound_Path_3" data-name="&lt;Compound Path&gt;" class="cls-5" d="M293.4,194.25c.11-2.83,2-5.15,5.59-5.53s5.27,1.57,5.16,4.39-2,5.23-5.55,5.61-5.31-1.65-5.2-4.47m5.55-4.51a4.37,4.37,0,0,0-4.17,4.3c-.09,2.38,1.36,3.94,3.85,3.68a4.52,4.52,0,0,0,4.16-4.52c.1-2.41-1.41-3.72-3.84-3.46m-2.4,2.27c-.14,0-.15,0-.16-.15l0-.44c0-.14,0-.17.19-.19l2.14-.22c1.74-.19,2.53.06,2.48,1.28a1.73,1.73,0,0,1-1.26,1.59c.31.15.53.5.8,1.13.06.14.19.16.33.14a.51.51,0,0,0,.25-.08c.07,0,.11,0,.1.13v.49a.27.27,0,0,1-.16.24,1.84,1.84,0,0,1-.6.2.84.84,0,0,1-1-.47c-.23-.53-.51-1.52-1.27-1.5l-.31,0,0,.95c0,.36.08.4.39.37h0c.17,0,.18,0,.17.12v.46c0,.15-.05.18-.19.2l-2,.21c-.14,0-.19,0-.17-.15v-.47c0-.09,0-.13.18-.15h0c.28,0,.42-.12.43-.46l.1-2.89c0-.33-.06-.4-.43-.36m2.18,1.36c.79-.08,1.13-.41,1.14-.94s-.34-.74-1.11-.65l-.57.06-.07,1.59Z"/><path id="_Path_11" data-name="&lt;Path&gt;" class="cls-5" d="M143.72,127c2.38-.25,2.76-.75,4.12-.9.79-.07,1.28.1,1.2,1l-.35,7.86a3.65,3.65,0,0,1-1.92,3.12c-2.14,1-4.33,1.73-10.45,2.36-5,.52-10.33-.45-12.56-5.71-4.86,6.35-13.34,9.56-23.43,10.6-12.47,1.29-21-2.39-20.14-18.47l1.12-25.34c.22-3.65-.33-5-6.8-4.33-1.93.21-2.32-.81-2.24-2.45l.37-7c.14-2,.75-2.53,2.77-2.86l21.36-3.38c2.27-.23,2.75.66,2.67,3l-1.87,38.62c-.25,4.92,2.25,8.29,9.62,7.52,10.43-1.07,16-9.35,16.6-23l.61-11.28c0-3-1-4.21-6.92-3.6-1.93.2-2.31-.82-2.24-2.46l.37-7c.14-2,.75-2.52,2.77-2.84l21.25-3.37c2.38-.25,2.87.64,2.78,3l-2,42.6c-.05,3.28,1.08,4.56,3.35,4.33"/><path id="_Path_12" data-name="&lt;Path&gt;" class="cls-5" d="M225.07,117.41a61.92,61.92,0,0,0,19.08-5.36c3.59-1.31,4.18-1.25,4,1.45l-.41,8.22c-.06,2.45-.48,2.73-2.07,3.6-2.65,1.44-11,5.22-23.28,6.49-25.85,2.67-37.26-7.36-36.23-27.55,1.14-22.31,16.07-34.83,37.28-37,19.62-2,25.7,7.15,25.39,14.54a12,12,0,0,1-11.12,11.89c-6.35.66-10.53-3.12-10.26-9.33a15.67,15.67,0,0,1,.93-4.3,41.71,41.71,0,0,0-5.5.22c-12.93,1.34-17.48,10.33-18,20.66-.58,12.9,5.31,18,20.17,16.49"/></g></svg>