<?xml version="1.0" standalone="no"?>
<!DOCTYPE svg PUBLIC "-//W3C//DTD SVG 1.1//EN" "http://www.w3.org/Graphics/SVG/1.1/DTD/svg11.dtd" >
<svg>
<metadata>
Created by FontForge 20090622 at Mon Apr 23 14:43:39 2018
 By deploy user
Generated in 2013 by FontLab Studio. Copyright info pending.
</metadata>
<defs>
<font id="Cabrito-ConReg" horiz-adv-x="492" >
  <font-face 
    font-family="Cabrito Cond Regular"
    font-weight="500"
    font-stretch="condensed"
    units-per-em="1000"
    panose-1="0 0 0 0 0 0 0 0 0 0"
    ascent="765"
    descent="-235"
    x-height="526"
    cap-height="722"
    bbox="-86 -307 1169 953"
    underline-thickness="50"
    underline-position="-50"
    unicode-range="U+0020-U+FB04"
  />
<missing-glyph horiz-adv-x="250" 
 />
    <glyph glyph-name="ff" unicode="ff" horiz-adv-x="644" 
d="M375 472h-200v-384q0 -21 7.5 -27.5t27.5 -6.5h31q9 0 11.5 -2.5t2.5 -10.5v-26q0 -9 -3 -12t-11 -3h-200q-15 0 -15 15v26q0 13 15 13h30q21 0 28 6.5t7 27.5v384h-63q-10 0 -13 2.5t-3 12.5v23q0 16 14 16h65v33q0 174 162 174q80 0 119 -57q31 107 138 107
q58 0 89.5 -31.5t31.5 -82.5q0 -21 -14 -35t-33 -14q-18 0 -30 13t-12 34q0 33 27 46q-19 17 -53 17q-88 0 -88 -144v-60h133q10 0 12.5 -2t2.5 -10v-28q0 -14 -14 -14h-134v-384q0 -21 7.5 -27.5t27.5 -6.5h31q9 0 11.5 -2.5t2.5 -10.5v-26q0 -9 -3 -12t-11 -3h-200
q-15 0 -15 15v26q0 8 2.5 10.5t12.5 2.5h30q21 0 28.5 6.5t7.5 27.5v384zM375 526v54q-10 100 -100 100q-50 0 -75 -27t-25 -87v-40h200z" />
    <glyph glyph-name="fi" unicode="fi" horiz-adv-x="536" 
d="M44 500h65v79q0 98 45 151t132 53q73 0 112.5 -31.5t39.5 -82.5q0 -21 -13.5 -35t-32.5 -14q-18 0 -30.5 13t-12.5 34q0 24 17 39q-29 19 -80 19q-56 0 -82.5 -35t-26.5 -112v-78h134q1 0 3 0.5t4 0.5l109 7q13 0 17.5 -6.5t4.5 -21.5v-387q0 -42 27 -42q6 0 33 5
q7 3 9.5 1.5t2.5 -9.5v-27q0 -14 -11 -18q-24 -8 -53 -8q-77 0 -77 88v333q0 22 -10 26t-54 4q-6 0 -8 1h-131v-359q0 -21 7.5 -27.5t28.5 -6.5h31q9 0 11.5 -2.5t2.5 -10.5v-26q0 -9 -3 -12t-11 -3h-200q-15 0 -15 15v26q0 8 3 10.5t12 2.5h30q20 0 27.5 6.5t7.5 27.5v359
h-63q-10 0 -13 2.5t-3 11.5v23q0 16 14 16z" />
    <glyph glyph-name="fl" unicode="fl" horiz-adv-x="545" 
d="M388 582q0 146 -106 146q-105 0 -105 -146v-82h116q15 0 15 -12v-28q0 -13 -14 -13h-117v-359q0 -21 7.5 -27.5t28.5 -6.5h31q9 0 11.5 -2.5t2.5 -10.5v-26q0 -9 -3 -12t-11 -3h-200q-15 0 -15 15v26q0 8 3 10.5t12 2.5h30q20 0 27.5 6.5t7.5 27.5v359h-63q-10 0 -13 2.5
t-3 11.5v23q0 16 14 16h65v81q0 104 43 153t128 49q177 0 177 -201v-489q0 -42 28 -42q7 0 32 5q7 3 10 1.5t3 -9.5v-27q0 -13 -12 -18q-24 -8 -53 -8q-77 0 -77 88v499z" />
    <glyph glyph-name="ffi" unicode="ffi" horiz-adv-x="786" 
d="M629 442q0 19 -9 24t-41 6h-136v-384q0 -21 7.5 -27.5t27.5 -6.5h31q9 0 11.5 -2.5t2.5 -10.5v-26q0 -9 -3 -12t-11 -3h-200q-15 0 -15 15v26q0 8 2.5 10.5t12.5 2.5h30q21 0 28.5 6.5t7.5 27.5v384h-200v-384q0 -21 7.5 -27.5t27.5 -6.5h31q9 0 11.5 -2.5t2.5 -10.5v-26
q0 -9 -3 -12t-11 -3h-200q-15 0 -15 15v26q0 13 15 13h30q21 0 28 6.5t7 27.5v384h-63q-10 0 -13 2.5t-3 11.5v24q0 16 14 16h65v33q0 174 162 174q82 0 120 -59q37 109 163 109q74 0 113.5 -31.5t39.5 -82.5q0 -21 -14 -35t-33 -14q-18 0 -30 13t-12 34q0 28 21 43
q-27 20 -79 20q-58 0 -86 -35t-28 -112v-57h123l111 7q12 0 16.5 -6t4.5 -22v-412q0 -42 28 -42q7 0 32 5q7 3 10 1.5t3 -9.5v-27q0 -13 -12 -18q-24 -8 -53 -8q-77 0 -77 88v359zM375 526v54q-10 100 -100 100q-50 0 -75 -27t-25 -87v-40h200z" />
    <glyph glyph-name="ffl" unicode="ffl" horiz-adv-x="809" 
d="M375 472h-200v-384q0 -21 7.5 -27.5t27.5 -6.5h31q9 0 11.5 -2.5t2.5 -10.5v-26q0 -9 -3 -12t-11 -3h-200q-15 0 -15 15v26q0 13 15 13h30q21 0 28 6.5t7 27.5v384h-63q-10 0 -13 2.5t-3 11.5v24q0 16 14 16h65v33q0 174 162 174q83 0 120 -56q33 98 154 98
q85 0 127.5 -46t42.5 -147v-494q0 -21 7.5 -27.5t27.5 -6.5h32q9 0 11.5 -2.5t2.5 -10.5v-26q0 -15 -14 -15h-200q-9 0 -12 3t-3 12v26q0 8 3 10.5t12 2.5h30q20 0 27.5 6.5t7.5 27.5v90h-1v399q0 143 -99 143q-101 0 -101 -143v-51h104q10 0 13 -2t3 -10v-29q0 -13 -15 -13
h-105v-384q0 -21 7.5 -27.5t27.5 -6.5h31q9 0 11.5 -2.5t2.5 -10.5v-26q0 -9 -3 -12t-11 -3h-200q-15 0 -15 15v26q0 8 2.5 10.5t12.5 2.5h30q21 0 28.5 6.5t7.5 27.5v384zM175 526h200v54q-10 100 -100 100q-50 0 -75 -27t-25 -87v-40z" />
    <glyph glyph-name="f_f_j" unicode="ffj" horiz-adv-x="764" 
d="M375 472h-200v-384q0 -21 7.5 -27.5t27.5 -6.5h31q9 0 11.5 -2.5t2.5 -10.5v-26q0 -9 -3 -12t-11 -3h-200q-15 0 -15 15v26q0 13 15 13h30q21 0 28 6.5t7 27.5v384h-63q-10 0 -13 2.5t-3 11.5v24q0 16 14 16h65v33q0 174 162 174q84 0 121 -57q38 107 162 107
q74 0 113.5 -31.5t39.5 -82.5q0 -21 -14 -35t-33 -14q-18 0 -30 13t-12 34q0 25 17 39q-29 19 -79 19q-56 0 -83 -34t-27 -108v-57h123l111 7q12 0 16.5 -6t4.5 -22v-576q0 -86 -34 -133.5t-105 -47.5q-52 0 -81 28t-29 69q0 22 12.5 36.5t32.5 14.5q19 0 31.5 -13t12.5 -35
q0 -28 -22 -42q16 -8 34 -8q79 0 79 118v526q0 19 -9 24t-41 6h-136v-384q0 -21 7.5 -27.5t27.5 -6.5h31q9 0 11.5 -2.5t2.5 -10.5v-26q0 -9 -3 -12t-11 -3h-200q-15 0 -15 15v26q0 8 2.5 10.5t12.5 2.5h30q21 0 28.5 6.5t7.5 27.5v384zM175 526h200v54q-10 100 -100 100
q-50 0 -75 -27t-25 -87v-40z" />
    <glyph glyph-name="f_j" unicode="fj" horiz-adv-x="513" 
d="M44 500h65v79q0 98 45 151t132 53q73 0 112.5 -31.5t39.5 -82.5q0 -21 -13.5 -35t-32.5 -14q-18 0 -30.5 13t-12.5 34q0 24 16 38q-27 20 -79 20q-109 0 -109 -147v-78h134q1 0 3 0.5t4 0.5l109 7q13 0 17.5 -6.5t4.5 -21.5v-551q0 -181 -140 -181q-52 0 -81 28t-29 69h1
q0 22 12.5 36.5t32.5 14.5q19 0 31.5 -13t12.5 -35q0 -28 -22 -42q16 -8 34 -8q80 0 80 118v443h-1v57q0 22 -10 26t-54 4q-6 0 -8 1h-131v-359q0 -21 7.5 -27.5t28.5 -6.5h31q9 0 11.5 -2.5t2.5 -10.5v-26q0 -9 -3 -12t-11 -3h-200q-15 0 -15 15v26q0 8 3 10.5t12 2.5h30
q20 0 27.5 6.5t7.5 27.5v359h-63q-10 0 -13 2.5t-3 11.5v23q0 16 14 16z" />
    <glyph glyph-name=".notdef" horiz-adv-x="250" 
 />
    <glyph glyph-name=".null" horiz-adv-x="0" 
 />
    <glyph glyph-name="nonmarkingreturn" horiz-adv-x="333" 
 />
    <glyph glyph-name="space" unicode=" " horiz-adv-x="209" 
 />
    <glyph glyph-name="exclam" unicode="!" horiz-adv-x="230" 
d="M159 694q0 -30 -12.5 -176t-12.5 -338q0 -12 -20 -12q-19 0 -19 12q0 192 -12 338t-12 176q0 55 43 55q45 0 45 -55zM64 43q0 26 16 42.5t38 16.5q21 0 35.5 -15t14.5 -40t-16.5 -41t-38.5 -16q-21 0 -35 14.5t-14 38.5z" />
    <glyph glyph-name="quotedbl" unicode="&#x22;" horiz-adv-x="340" 
d="M221 538l-8 179q-1 9 7 12.5t31 3.5t30.5 -3.5t6.5 -12.5l-8 -179q-1 -15 -29 -15q-29 0 -30 15zM60 538l-9 179q-1 9 7 12.5t31 3.5t30.5 -3.5t6.5 -12.5l-8 -179q-1 -15 -29 -15q-17 0 -23 3t-6 12z" />
    <glyph glyph-name="numbersign" unicode="#" horiz-adv-x="752" 
d="M354 40l64 170h-197l-75 -200q-5 -14 -11.5 -17.5t-24.5 -3.5q-32 0 -32 22q0 15 6 29l64 170h-94q-26 0 -26 30q0 15 8.5 19.5t27.5 4.5h104l81 216h-114q-26 0 -26 30q0 15 8.5 19.5t27.5 4.5h124l61 161q8 21 16.5 28t32.5 7q31 0 24 -33q-2 -9 -10 -33l-49 -130h195
l61 161q8 21 16.5 28t32.5 7q31 0 24 -33q-2 -9 -10 -33l-49 -130h92q19 0 19 -30q0 -24 -23 -24h-109l-81 -216h113q19 0 19 -30q0 -24 -23 -24h-130l-75 -200q-5 -14 -11.5 -17.5t-24.5 -3.5q-32 0 -32 22q0 15 6 29zM323 480l-81 -216h196l81 216h-196z" />
    <glyph glyph-name="dollar" unicode="$" horiz-adv-x="520" 
d="M469 572q0 -25 -16 -41.5t-38 -16.5t-36 15t-14 40q0 37 31 52q-38 56 -137 56q-135 0 -135 -114q0 -42 19.5 -70t51 -43.5t69 -28t75.5 -28t69.5 -38t51 -65t19.5 -101.5q0 -184 -194 -200v-93q0 -19 -17 -20h-35q-16 0 -16 19v93q-181 12 -183 156q0 24 16 41t37 17
t36 -15t15 -40q0 -38 -33 -54q40 -51 144 -51q158 0 158 140q0 48 -19.5 81.5t-50.5 51t-68.5 30.5l-75.5 27t-69 33.5t-50.5 57t-19.5 91.5q0 160 169 176v79q0 20 17 21h35q16 0 16 -20v-79q88 -6 133 -47.5t45 -111.5z" />
    <glyph glyph-name="percent" unicode="%" horiz-adv-x="806" 
d="M28 529q0 92 38.5 150t119.5 58t120 -58t39 -150t-39 -150.5t-120 -58.5t-119.5 58.5t-38.5 150.5zM186 688q-45 0 -68.5 -45t-23.5 -115q0 -71 22.5 -115t69.5 -44q94 0 94 159q0 71 -23.5 115.5t-70.5 44.5zM460 200q0 92 39 150t120 58t120 -58.5t39 -149.5t-39 -150
t-120 -59t-120 58.5t-39 150.5zM619 359q-45 0 -69 -45t-24 -115q0 -71 23 -115t70 -44q93 0 93 159q0 71 -23 115.5t-70 44.5zM175 51l425 684q10 17 22 13q7 0 17.5 -7t11.5 -15q5 -10 -7 -29l-424 -683q-11 -18 -27 -12q-24 7 -25 23q-3 9 7 26z" />
    <glyph glyph-name="ampersand" unicode="&#x26;" horiz-adv-x="653" 
d="M360 579q0 34 27 49q-41 47 -118 47q-65 0 -97.5 -35.5t-32.5 -96.5q0 -134 137 -134h324q13 0 17 -3.5t5 -20.5l7 -111q1 -9 -1.5 -11.5t-11.5 -2.5h-27q-14 0 -15 12l-5 56q-2 16 -8.5 19.5t-32.5 3.5h-80v-271q1 -17 8 -22t24 -5h24q8 0 10 -2.5t2 -9.5v-27
q0 -14 -12 -14h-236q-105 0 -166.5 49.5t-61.5 148.5q0 82 40.5 130t102.5 54q-115 26 -115 165q0 86 51 135.5t146 49.5q88 0 142.5 -41.5t55.5 -110.5q0 -25 -15.5 -39.5t-37.5 -14.5q-21 0 -35.5 14.5t-14.5 38.5zM276 61l100 1v289h-101q-69 0 -114 -37t-45 -116
q0 -137 160 -137z" />
    <glyph glyph-name="quotesingle" unicode="'" horiz-adv-x="178" 
d="M60 538l-9 179q-1 9 7 12.5t31 3.5t30.5 -3.5t6.5 -12.5l-8 -179q-1 -15 -29 -15q-17 0 -23 3t-6 12z" />
    <glyph glyph-name="parenleft" unicode="(" horiz-adv-x="319" 
d="M273 -105q12 -8 21 6q9 15 -1 24q-187 151 -189 383h-69q1 -128 61 -235t177 -178zM273 721q7 5 11.5 3.5t9.5 -9.5q9 -15 -1 -24q-187 -151 -189 -383h-69q1 128 61 235t177 178z" />
    <glyph glyph-name="parenright" unicode=")" horiz-adv-x="320" 
d="M47 -105q-13 -9 -22 6q-9 16 1 24q188 152 190 383h68q0 -128 -60 -235t-177 -178zM47 721q117 -71 177 -178t60 -235h-68q-2 231 -190 383q-10 8 -1 24q9 14 22 6z" />
    <glyph glyph-name="asterisk" unicode="*" horiz-adv-x="399" 
d="M217 545l-1 -1q20 -13 56.5 -28t55.5 -29q29 -22 15 -46q-16 -23 -44 -4q-19 14 -45.5 44.5t-46.5 45.5q1 -26 9.5 -67t8.5 -66q0 -16 -7.5 -27t-20.5 -11q-12 0 -19.5 10.5t-7.5 26.5q0 26 9 68t10 65q-18 -13 -45 -41.5t-47 -41.5q-29 -20 -44 6q-14 24 15 43
q19 13 56.5 26.5t57.5 26.5q-20 14 -57 29t-56 29q-30 21 -15 44q7 11 20 11.5t25 -8.5q19 -14 45.5 -43t44.5 -43q-1 24 -10 66t-9 70q0 16 7.5 26.5t19.5 10.5q13 0 20.5 -11t7.5 -27q0 -26 -8.5 -68t-9.5 -69q20 14 48 43.5t49 42.5q31 20 43 -5q14 -22 -16 -43
q-20 -13 -56.5 -28t-57.5 -27z" />
    <glyph glyph-name="plus" unicode="+" horiz-adv-x="447" 
d="M248 510v-146h138q25 0 25 -27q0 -15 -6 -21t-23 -6h-134v-159q0 -28 -29 -28q-27 0 -27 37v150h-131q-26 0 -26 29q0 17 8 21t28 4h121v150q0 27 30 27q14 0 20 -6.5t6 -24.5z" />
    <glyph glyph-name="comma" unicode="," horiz-adv-x="231" 
d="M66 43q0 26 15 42.5t38 16.5t36.5 -16t13.5 -46q0 -77 -87 -158q-11 -11 -18 -2l-8 8q-7 8 4 18q40 38 50 84q-19 1 -31.5 15.5t-12.5 37.5z" />
    <glyph glyph-name="hyphen" unicode="-" horiz-adv-x="372" 
d="M69 340h234q9 0 11.5 -3t2.5 -12v-23q0 -10 -3 -13t-11 -3h-234q-8 0 -11 3t-3 13v23q0 9 2.5 12t11.5 3z" />
    <glyph glyph-name="period" unicode="." horiz-adv-x="206" 
d="M51 43q0 26 15.5 42.5t37.5 16.5q21 0 35.5 -15t14.5 -40t-16 -41t-38 -16q-21 0 -35 14.5t-14 38.5z" />
    <glyph glyph-name="slash" unicode="/" horiz-adv-x="401" 
d="M26 -2l279 737q4 11 7 14.5t9 2.5l48 -10q13 -2 5 -22l-280 -740q-4 -10 -6.5 -12.5t-9.5 -1.5l-47 11q-7 2 -8 5.5t3 15.5z" />
    <glyph glyph-name="zero" unicode="0" horiz-adv-x="603" 
d="M302 -13q-125 0 -193 106t-68 272q0 165 67.5 268.5t193.5 103.5t193 -103t67 -268q0 -167 -68 -273t-192 -106zM488 369q0 141 -47 227.5t-139 86.5t-139.5 -87t-47.5 -228q0 -152 49.5 -239.5t137.5 -87.5t137 87.5t49 240.5z" />
    <glyph glyph-name="one" unicode="1" horiz-adv-x="318" 
d="M203 88q0 -21 12 -27.5t50 -6.5h24q9 0 11.5 -3t2.5 -13v-18q0 -14 -2.5 -17t-11.5 -3h-242q-9 0 -11.5 3.5t-2.5 16.5v18q0 10 2.5 13t11.5 3h24q37 0 49 6.5t12 27.5v546q0 16 -3.5 18t-19.5 -5l-56 -24q-15 -6 -15 11v27q0 14 16 21l101 39q14 6 28 6q12 0 16 -6.5
t4 -21.5v-611z" />
    <glyph glyph-name="two" unicode="2" horiz-adv-x="516" 
d="M38 563q0 75 58.5 121.5t152.5 46.5q100 0 153.5 -54t53.5 -140q0 -102 -101 -215l-233 -263h235q31 0 40 5.5t14 28.5l8 90q3 14 19 14h23q15 0 14 -16l-13 -157q-1 -16 -6.5 -20t-19.5 -4h-380q-11 0 -15 4t-4 18v15q0 22 34 59l239 274q72 81 72 165q0 60 -34 99.5
t-102 39.5q-43 0 -80.5 -16t-57.5 -43q34 -13 34 -51q0 -25 -16 -39.5t-38 -14.5t-36 14.5t-14 38.5z" />
    <glyph glyph-name="three" unicode="3" horiz-adv-x="519" 
d="M51 579q0 70 56 111.5t148 41.5q97 0 148.5 -49.5t51.5 -137.5q0 -137 -124 -163q65 -6 106 -54t41 -132q0 -104 -64.5 -156.5t-181.5 -52.5q-58 0 -114 9.5t-72 19.5q-8 4 -8 17v34q0 11 8 11q3 0 7.5 -1.5l10.5 -3.5t10 -3q70 -22 148 -22q180 0 180 150q0 80 -45 116
t-117 36h-23q-11 0 -14 3t-3 15v26q0 10 3.5 12.5t13.5 2.5h22q148 0 148 133q0 63 -33.5 98t-101.5 35q-81 0 -123 -47q26 -14 26 -48q0 -25 -15.5 -39.5t-38.5 -14.5q-21 0 -35.5 14.5t-14.5 38.5z" />
    <glyph glyph-name="four" unicode="4" horiz-adv-x="496" 
d="M236 0q-8 0 -11 3t-3 11v26q0 8 2.5 11t11.5 3h33q18 0 25.5 6t8.5 25v65h-272q-11 0 -14 2.5t-3 11.5v24q0 9 3 12l318 509q8 13 23 13h45q23 0 5 -29l-307 -489h202v154q0 15 13 15h46q13 0 13 -14v-155h87q16 0 16 -12v-28q0 -14 -15 -14h-88v-65q1 -19 8 -25t25 -6
h29q9 0 11.5 -2.5t2.5 -10.5v-26q0 -15 -14 -15h-201z" />
    <glyph glyph-name="five" unicode="5" 
d="M317 663h-159l-31 -222q32 4 121 4q94 0 150.5 -47t56.5 -167q0 -244 -251 -244q-103 0 -157 21q-14 5 -14 21v30q0 8 3 12t7 3q1 0 11 -4t20.5 -7t27.5 -6.5t39 -5.5t47 -2q95 0 144 42t49 137q0 87 -39.5 124.5t-116.5 37.5q-18 0 -66 -2t-58 -2q-8 -2 -25 -2
q-20 0 -14 38l39 283q3 17 20 17h261q23 0 30 -7t8 -36l4 -87q1 -20 -11 -20h-25q-11 0 -14 22l-4 33q-4 25 -13 30.5t-40 5.5z" />
    <glyph glyph-name="six" unicode="6" horiz-adv-x="530" 
d="M273 -11q-66 0 -111.5 23.5t-70.5 70t-36 106t-11 139.5q0 405 279 405q48 0 113 -13q12 -4 13.5 -6t1.5 -12v-33q0 -11 -5 -12.5t-18 2.5q-53 12 -94 12q-114 0 -165.5 -83t-54.5 -255q19 73 68.5 105.5t110.5 32.5q92 0 149 -60.5t57 -175.5q0 -125 -60.5 -185.5
t-165.5 -60.5zM276 45q66 0 108 47t42 140q0 82 -39.5 131t-107.5 49q-69 0 -109.5 -51t-40.5 -135q0 -81 38 -131t109 -50z" />
    <glyph glyph-name="seven" unicode="7" horiz-adv-x="454" 
d="M64 722h374q10 0 10 -10v-20q0 -20 -17 -60l-261 -617q-5 -15 -19 -15h-53q-6 0 -8.5 4t0.5 11l278 648h-230q-32 0 -41.5 -5.5t-11.5 -27.5l-5 -53q-1 -15 -15 -15h-29q-11 0 -10 17l4 111q1 22 6.5 27t27.5 5z" />
    <glyph glyph-name="eight" unicode="8" horiz-adv-x="560" 
d="M279 732q92 0 144 -46.5t52 -132.5q0 -111 -88 -151q53 -17 92.5 -65.5t39.5 -134.5q0 -112 -65.5 -163.5t-174.5 -51.5q-108 0 -173.5 51.5t-65.5 163.5q0 86 39 134t92 66q-87 40 -87 151q0 86 52 132.5t143 46.5zM114 202q0 -82 45 -120.5t120 -38.5t120.5 38.5
t45.5 120.5q0 71 -39 117t-118 49h-9q-83 0 -124 -46.5t-41 -119.5zM279 678q-57 0 -91 -32t-34 -94q0 -63 34 -94.5t91 -31.5q54 0 89.5 31.5t35.5 94.5q0 62 -34 94t-91 32z" />
    <glyph glyph-name="nine" unicode="9" horiz-adv-x="539" 
d="M261 733q232 0 232 -335q0 -212 -70 -310.5t-217 -98.5q-74 0 -138 22q-9 3 -9 12v39q0 15 16 10q80 -22 126 -22q115 0 167 79t54 251q-21 -69 -69.5 -99t-107.5 -30q-91 0 -148.5 63.5t-57.5 175.5q0 110 58.5 176.5t163.5 66.5zM262 674q-71 0 -110 -49.5t-39 -131.5
q0 -84 41 -133.5t108 -49.5q66 0 107.5 48.5t41.5 129.5q0 87 -39.5 136.5t-109.5 49.5z" />
    <glyph glyph-name="colon" unicode=":" horiz-adv-x="211" 
d="M54 43q0 26 15.5 42.5t37.5 16.5q21 0 35.5 -15t14.5 -40t-16 -41t-38 -16q-21 0 -35 14.5t-14 38.5zM54 467q0 25 16 42t37 17t35.5 -15t14.5 -40t-16 -41t-38 -16q-21 0 -35 14.5t-14 38.5z" />
    <glyph glyph-name="semicolon" unicode=";" horiz-adv-x="230" 
d="M66 43q0 26 15.5 42.5t37.5 16.5q21 0 35.5 -15t14.5 -40q0 -96 -102 -192q-7 -7 -10 -3l-17 15q-4 4 5 13q53 49 67 110q-21 2 -33.5 16t-12.5 37zM66 467q0 25 16 42t37 17t35.5 -15t14.5 -40t-16 -41t-38 -16q-21 0 -35 14.5t-14 38.5z" />
    <glyph glyph-name="less" unicode="&#x3c;" horiz-adv-x="529" 
d="M104 279l354 -177q19 -9 22.5 -17t1.5 -28q-5 -35 -43 -17l-381 187q-17 8 -23 19.5t-6 32.5h75zM458 455l-354 -176h-75q0 21 6 32.5t23 19.5l381 187q38 18 43 -17q2 -20 -1.5 -28t-22.5 -18z" />
    <glyph glyph-name="equal" unicode="=" horiz-adv-x="488" 
d="M409 360h-333q-20 0 -20 28q0 16 6.5 21t22.5 5h328q19 0 19 -28q0 -26 -23 -26zM409 216h-333q-20 0 -20 28q0 16 6.5 21t22.5 5h328q19 0 19 -28q0 -26 -23 -26z" />
    <glyph glyph-name="greater" unicode="&#x3e;" horiz-adv-x="530" 
d="M425 279l-354 -177q-19 -9 -22.5 -17t-1.5 -28q5 -35 43 -17l381 187q17 8 23 19t6 33h-75zM425 279l-354 176q-19 10 -22.5 18t-1.5 28q5 35 43 17l381 -187q17 -8 23 -19t6 -33h-75z" />
    <glyph glyph-name="question" unicode="?" horiz-adv-x="453" 
d="M351 546q0 53 -31.5 90.5t-91.5 37.5q-90 0 -124 -69q28 -14 28 -48q0 -26 -15.5 -40t-38.5 -14q-21 0 -35.5 14t-14.5 39q0 41 19.5 79.5t67.5 67t116 28.5q90 0 141.5 -51t51.5 -131q0 -53 -19.5 -99t-47 -78l-54.5 -61t-46.5 -61.5t-19.5 -65.5v-10q0 -17 -18 -17h-29
q-21 0 -21 29q0 40 18.5 76t45.5 65.5l54 60t45.5 71t18.5 87.5zM149 39q0 25 16 40t38 15q21 0 35.5 -14.5t14.5 -39.5t-15.5 -39.5t-37.5 -14.5t-36.5 14.5t-14.5 38.5z" />
    <glyph glyph-name="at" unicode="@" horiz-adv-x="765" 
d="M720 399q0 -110 -49.5 -188t-117.5 -78q-36 0 -57 22t-23 63q-23 -40 -60 -62.5t-78 -22.5q-55 0 -94 43t-39 123q0 102 60.5 179.5t158.5 77.5q77 0 109 -42.5t29 -109.5q-2 -48 -26 -137q-3 -19 -3 -33q0 -53 35 -53q40 0 71.5 66.5t31.5 150.5q0 130 -78.5 204
t-189.5 74q-133 0 -213.5 -99.5t-80.5 -241.5q0 -143 81 -229.5t207 -86.5q47 0 101 12t90 32q9 5 13 7t8 2t5 -2.5t1 -8.5v-16q0 -16 -12 -24q-25 -18 -86 -33t-124 -15q-154 0 -251.5 101t-97.5 265q0 165 99 275.5t260 110.5q138 0 229 -87.5t91 -238.5zM343 180
q59 0 107.5 64.5t48.5 156.5q0 107 -78 107q-69 0 -114 -67t-45 -148q0 -55 21.5 -84t59.5 -29z" />
    <glyph glyph-name="A" unicode="A" horiz-adv-x="619" 
d="M465 100l-42 143h-241l-43 -149q-6 -25 -0.5 -32t27.5 -8l15 -1q12 0 15.5 -3.5t3.5 -13.5v-21q0 -9 -3.5 -12t-14.5 -3h-165q-14 0 -14 15v22q0 17 14 17l30 1q12 0 18 7t15 35l183 616q4 10 7 12.5t16 2.5h49q15 0 20 -14l184 -612q10 -32 17 -39.5t29 -8.5h18
q12 0 15.5 -3t3.5 -13v-23q0 -10 -3 -12.5t-14 -2.5h-181q-11 0 -14 2.5t-3 12.5v22q0 10 3 12.5t16 3.5h15q30 1 30 17q0 10 -6 30zM302 657l-105 -361h210z" />
    <glyph glyph-name="B" unicode="B" horiz-adv-x="577" 
d="M114 634q0 32 -25 33h-38q-7 0 -10 3t-3 12v25q0 9 3 12t13 3h234q107 0 159.5 -40t52.5 -133q0 -72 -29.5 -112.5t-71.5 -49.5v-1q64 -11 102.5 -59t38.5 -130q0 -49 -13.5 -85.5t-35 -57.5t-54 -33.5t-64 -16.5t-71.5 -4h-250q-14 0 -14 15v22q0 17 13 17q40 0 51.5 7
t11.5 34v539zM186 356v-302h121q31 0 55 5t49 18.5t39 43.5t14 75q0 160 -165 160h-113zM186 667v-254h116q124 0 124 133q0 70 -33.5 95.5t-96.5 25.5h-110z" />
    <glyph glyph-name="C" unicode="C" horiz-adv-x="610" 
d="M114 349q0 -138 61 -219.5t190 -81.5q17 0 32.5 1t29.5 4t25.5 5t24.5 6.5l20 7t19 8.5t15.5 7.5t14 7.5t11.5 6q9 5 14.5 6.5t8.5 -1.5t3 -13v-26q0 -14 -14 -23q-80 -55 -213 -55q-146 0 -231 90.5t-85 269.5q0 171 83 276.5t232 105.5q113 0 166.5 -52.5t53.5 -122.5
q0 -25 -16 -39.5t-38 -14.5t-36 14t-14 39q0 20 12 34.5t30 18.5q-43 66 -153 66q-84 0 -141 -46t-81 -117t-24 -162z" />
    <glyph glyph-name="D" unicode="D" horiz-adv-x="651" 
d="M611 360q0 -360 -353 -360h-206q-14 0 -14 15v22q0 17 13 17q40 0 51.5 7t11.5 34v539q0 32 -25 33h-38q-7 0 -10 3t-3 12v25q0 9 3 12t13 3h204q180 0 266.5 -90t86.5 -272zM186 667v-610h71q146 0 213 72.5t67 230.5q0 160 -68 233.5t-214 73.5h-69z" />
    <glyph glyph-name="E" unicode="E" horiz-adv-x="554" 
d="M52 0q-14 0 -14 15v22q0 17 13 17q40 0 51.5 7t11.5 34v539q0 32 -25 33h-38q-7 0 -10 3t-3 12v25q0 9 3 12t13 3h397q26 0 32.5 -7t8.5 -40l6 -99q2 -15 -0.5 -19.5t-13.5 -4.5h-23q-10 0 -14 4t-5 18l-3 47q-3 33 -17.5 40t-62.5 7h-173v-286h115q23 0 24 29l1 38
q1 10 4 13t13 3h20q10 0 13 -3.5t3 -12.5v-188q0 -9 -2.5 -12t-11.5 -3h-22q-16 0 -17 14l-1 39q-1 30 -24 30h-115v-275h215q32 0 41 6.5t13 32.5l8 90q1 14 18 14h24q16 0 13 -16l-12 -157q-1 -16 -6.5 -20t-20.5 -4h-427z" />
    <glyph glyph-name="F" unicode="F" horiz-adv-x="534" 
d="M53 0q-9 0 -12 3t-3 11v26q0 8 3 11t12 3h27q19 0 26.5 8t7.5 33v539q0 32 -25 33h-38q-14 0 -14 15v25q0 9 3.5 12t13.5 3h409q25 0 32 -7t9 -40l6 -99q1 -15 -1.5 -19.5t-12.5 -4.5h-23q-11 0 -14.5 4t-4.5 18l-4 47q-3 33 -17.5 40t-62.5 7h-185v-288h128q22 0 23 28
l2 39q1 10 4 12.5t13 2.5h20q10 0 12.5 -3t2.5 -13v-188q0 -15 -13 -15h-22q-10 0 -13.5 3t-3.5 12l-2 39q-1 29 -23 29h-128v-231q0 -25 7 -33t27 -8h29q9 0 11.5 -2.5t2.5 -10.5v-26q0 -15 -14 -15h-195z" />
    <glyph glyph-name="G" unicode="G" horiz-adv-x="633" 
d="M376 299v28q0 16 11 16h179q15 0 15 -16v-310q0 -17 -14 -17h-25q-15 0 -18 14l-3 17q-77 -44 -171 -44q-138 0 -224.5 93t-86.5 273q0 171 83 274.5t231 103.5q112 0 169 -51t57 -127q0 -25 -15.5 -39t-37.5 -14t-36.5 14t-14.5 39q0 21 12.5 35t31.5 18q-45 69 -162 69
q-118 0 -180.5 -91t-62.5 -232q0 -144 64 -224.5t177 -80.5q84 0 158 44v179q0 17 -18 17h-107q-12 0 -12 12z" />
    <glyph glyph-name="H" unicode="H" horiz-adv-x="681" 
d="M113 627q0 25 -6.5 33t-25.5 8h-30q-9 0 -11.5 2.5t-2.5 12.5v23q0 10 3 13t11 3h195q8 0 11.5 -3t3.5 -13v-23q0 -10 -3 -12.5t-12 -2.5h-30q-19 0 -25 -7.5t-6 -33.5v-241h310v241q0 25 -6.5 33t-25.5 8h-29q-9 0 -12 2.5t-3 12.5v23q0 10 3.5 13t11.5 3h195q8 0 11 -3
t3 -13v-23q0 -10 -2.5 -12.5t-11.5 -2.5h-31q-19 0 -25 -7.5t-6 -33.5v-532q0 -25 7 -33t27 -8h29q9 0 11.5 -2.5t2.5 -10.5v-26q0 -15 -14 -15h-196q-8 0 -11 3t-3 11v26q0 8 2.5 11t11.5 3h28q19 0 26 8t7 33v237h-310v-237q0 -26 7 -33.5t27 -7.5h29q9 0 11 -2.5t2 -10.5
v-26q0 -15 -13 -15h-196q-9 0 -12 3t-3 11v26q0 8 3 11t12 3h27q20 0 27 8t7 33v532z" />
    <glyph glyph-name="I" unicode="I" horiz-adv-x="298" 
d="M185 95q0 -26 7 -33.5t27 -7.5h29q9 0 11 -2.5t2 -10.5v-26q0 -15 -13 -15h-196q-9 0 -12 3t-3 11v26q0 8 3 11t12 3h27q20 0 27 8t7 33v532q0 25 -6.5 33t-25.5 8h-30q-9 0 -11.5 2.5t-2.5 12.5v23q0 10 3 13t11 3h195q8 0 11.5 -3t3.5 -13v-23q0 -10 -3 -12.5t-12 -2.5
h-30q-19 0 -25 -7.5t-6 -33.5v-532z" />
    <glyph glyph-name="J" unicode="J" horiz-adv-x="466" 
d="M22 142q0 24 15 39t38 15q22 0 36 -14t14 -39q0 -46 -41 -53q25 -45 92 -45q58 0 88 48t30 127v407q0 25 -7 33t-26 8h-30q-9 0 -11.5 2.5t-2.5 12.5v23q0 10 3 13t11 3h195q9 0 12 -3t3 -13v-23q0 -10 -2.5 -12.5t-12.5 -2.5h-30q-19 0 -25 -7.5t-6 -33.5v-414
q0 -103 -45 -162.5t-134 -59.5q-86 0 -125 42.5t-39 108.5z" />
    <glyph glyph-name="K" unicode="K" horiz-adv-x="625" 
d="M113 627q0 25 -6.5 33t-25.5 8h-30q-9 0 -11.5 2.5t-2.5 12.5v23q0 10 3 13t11 3h195q8 0 11.5 -3t3.5 -13v-23q0 -10 -3 -12.5t-12 -2.5h-30q-19 0 -25 -7.5t-6 -33.5v-278l238 290q25 29 0 29h-25q-14 0 -14 21v17q0 10 3 13t11 3h184q8 0 11 -3t3 -13v-21
q0 -17 -14 -17h-39q-25 0 -61 -41l-172 -206h2q94 0 152 -131q20 -48 63 -197q7 -26 17 -35.5t27 -9.5q13 0 35 14q7 4 11 1t4 -11v-25q0 -15 -16 -25q-23 -13 -50 -13q-21 0 -35 4t-31.5 22.5t-29.5 53.5q-6 20 -19.5 70t-24.5 83.5t-29.5 72t-44 59t-58.5 20.5h-12
l-86 -104v-175q0 -26 7 -33.5t27 -7.5h29q9 0 11 -2.5t2 -10.5v-26q0 -15 -13 -15h-196q-9 0 -12 3t-3 11v26q0 8 3 11t12 3h27q20 0 27 8t7 33v532z" />
    <glyph glyph-name="L" unicode="L" horiz-adv-x="529" 
d="M186 54h199q32 0 41.5 6.5t13.5 32.5l7 90q3 14 20 14h22q15 0 14 -16l-12 -157q-1 -16 -6.5 -20t-19.5 -4h-413q-14 0 -14 15v22q0 17 13 17q40 0 51.5 7t11.5 34v532q0 25 -6.5 33t-25.5 8h-30q-9 0 -11.5 2.5t-2.5 12.5v23q0 10 3 13t11 3h195q9 0 12 -3t3 -13v-23
q0 -10 -3 -12.5t-12 -2.5h-30q-18 0 -24 -6t-7 -26v-582z" />
    <glyph glyph-name="M" unicode="M" horiz-adv-x="837" 
d="M215 701l214 -643l203 649q6 15 29 15h125q15 0 15 -15v-21q0 -16 -15 -17l-41 -1q-24 0 -24 -32v-548q0 -21 5 -27.5t21 -6.5h40q16 0 16 -18v-21q0 -9 -3.5 -12t-12.5 -3h-200q-9 0 -12 3t-3 12v21q0 10 3 14t12 4h37q17 0 23.5 7t6.5 27v506l-179 -581
q-4 -10 -8 -12.5t-18 -2.5h-53q-17 0 -23 14l-198 593v-527q0 -15 7.5 -19.5t29.5 -4.5h30q9 0 12 -2.5t3 -11.5v-25q0 -9 -3 -12t-12 -3h-194q-9 0 -12 2.5t-3 11.5v25q0 10 3 12.5t12 2.5h29q22 0 30 4.5t8 19.5v556q-1 16 -8 23.5t-14.5 9t-22.5 2.5h-16q-15 0 -15 15v23
q0 9 3 12t12 3h138q7 0 12 -3.5t6.5 -6.5t4.5 -11z" />
    <glyph glyph-name="N" unicode="N" horiz-adv-x="693" 
d="M155 722q19 0 26 -15l345 -584v519q0 16 -7.5 21t-28.5 5h-27q-9 0 -11.5 2t-2.5 12v24q0 10 3 13t11 3h185q8 0 11 -3t3 -12v-24q0 -10 -2.5 -12.5t-11.5 -2.5h-26q-20 0 -28 -5.5t-8 -20.5v-634q0 -16 -16 -16h-18q-16 0 -26 13l-354 589v-514q0 -16 8 -21t28 -5h26
q10 0 12.5 -2t2.5 -12v-25q0 -10 -3 -12.5t-12 -2.5h-184q-8 0 -11 3t-3 12v24q0 10 2.5 12.5t11.5 2.5h26q21 0 28.5 5.5t7.5 20.5v543q-1 27 -12 36t-36 9h-5q-12 0 -16.5 4t-4.5 14v19q0 17 21 17h96z" />
    <glyph glyph-name="O" unicode="O" horiz-adv-x="704" 
d="M39 357q0 55 9 105.5t31.5 101t56.5 87t89.5 59.5t125.5 23q84 0 146.5 -31t98 -85t52 -117.5t16.5 -136.5q0 -55 -8.5 -105.5t-31 -101t-57 -87t-90 -59.5t-125.5 -23q-84 0 -146.5 31t-98 85t-52 117.5t-16.5 136.5zM350 677q-53 0 -95 -19.5t-68 -50.5t-43 -73.5
t-23.5 -84.5t-6.5 -88q0 -45 6.5 -87t23.5 -85t43 -74.5t69 -51.5t98 -20t97.5 20t68 51.5t42 75t22.5 84t6 84.5q0 56 -11 108t-36.5 101.5t-75 79.5t-117.5 30z" />
    <glyph glyph-name="P" unicode="P" horiz-adv-x="551" 
d="M286 272h-101v-177q0 -25 7 -33t27 -8h29q9 0 11.5 -2.5t2.5 -10.5v-26q0 -15 -14 -15h-195q-9 0 -12 3t-3 11v26q0 8 3 11t12 3h27q19 0 26.5 8t7.5 33v539q0 32 -25 33h-38q-14 0 -14 15v25q0 9 3.5 12t13.5 3h197q136 0 202 -51.5t66 -170.5q0 -113 -62 -170.5
t-171 -57.5zM185 326h81q179 0 179 174q0 91 -45 129.5t-140 38.5h-75v-342z" />
    <glyph glyph-name="Q" unicode="Q" horiz-adv-x="704" 
d="M39 357q0 55 9 105.5t31.5 101t56.5 87t89.5 59.5t125.5 23q84 0 146.5 -31t98 -85t52 -117.5t16.5 -136.5q0 -54 -9 -104.5t-29 -99t-56.5 -87.5t-86.5 -60q34 -16 60 -49l13 -17t13.5 -17l12.5 -14t13 -12.5t12 -7t14 -3.5q18 0 43 12q14 7 14 -9v-30q0 -10 -14 -19
q-28 -14 -55 -14q-15 0 -28.5 4t-22.5 7.5t-22 16l-18 17.5t-21 24l-21 25q-30 32 -57 44t-73 17q-83 1 -144 32.5t-95.5 85t-51 116.5t-16.5 136zM350 677q-53 0 -95 -19.5t-68 -50.5t-43 -73.5t-23.5 -84.5t-6.5 -88q0 -45 6.5 -87t23.5 -85t43 -74.5t69 -51.5t98 -20
t97.5 20t68 51.5t42 75t22.5 84t6 84.5q0 56 -11 108t-36.5 101.5t-75 79.5t-117.5 30z" />
    <glyph glyph-name="R" unicode="R" horiz-adv-x="566" 
d="M245 292h-60v-197q0 -26 7 -33.5t27 -7.5h29q9 0 11 -2.5t2 -10.5v-26q0 -15 -13 -15h-196q-9 0 -12 3t-3 11v26q0 8 3 11t12 3h27q20 0 27 8t7 33v539q0 32 -25 33h-38q-7 0 -10 3t-3 12v25q0 9 3 12t13 3h197q120 0 178.5 -51t58.5 -161q0 -166 -131 -207
q30 -20 53 -67t58 -147q9 -25 18 -33.5t24 -8.5q18 0 38 12q14 9 14 -6v-26q0 -15 -15 -24q-24 -14 -56 -14q-19 0 -32 4t-29.5 22.5t-29.5 53.5q-4 10 -15 43t-18 51t-20.5 46.5t-26.5 43.5t-32.5 27t-41.5 12zM185 346h78q75 0 112 39.5t37 124.5q0 82 -39 120t-117 38
h-71v-322z" />
    <glyph glyph-name="S" unicode="S" horiz-adv-x="515" 
d="M364 571q0 37 33 51q-39 55 -136 55q-135 0 -135 -114q0 -42 19 -70t50 -43.5t68 -28t74 -28t68 -38t50 -65t19 -101.5q0 -202 -227 -202q-212 0 -214 157q0 26 14.5 42t38.5 16q51 0 51 -54q0 -40 -36 -51q38 -55 147 -55q156 0 156 140q0 43 -15 74t-39.5 48t-56 31
t-64 23t-64 25t-56 35t-39.5 54t-15 82q0 178 206 178q102 0 154.5 -42.5t52.5 -117.5q0 -25 -16 -39.5t-38 -14.5t-36 14.5t-14 38.5z" />
    <glyph glyph-name="T" unicode="T" horiz-adv-x="542" 
d="M174 0q-9 0 -12 3t-3 11v26q0 8 3 11t12 3h27q20 0 27 8t7 33v571h-106q-26 0 -33.5 -4t-9.5 -21l-5 -69q-1 -10 -4 -12.5t-14 -2.5h-24q-9 0 -11.5 3t-2.5 14l7 123q1 17 5 21t18 4h431q14 0 18 -4t5 -21l7 -123q1 -11 -1 -14t-13 -3h-25q-10 0 -13 2.5t-4 12.5l-5 69
q-1 17 -9.5 21t-38.5 4h-100v-579q1 -20 8 -26.5t26 -6.5h29q9 0 11 -2.5t2 -10.5v-26q0 -15 -13 -15h-196z" />
    <glyph glyph-name="U" unicode="U" horiz-adv-x="680" 
d="M342 55q174 0 174 217v357q0 24 -6.5 31.5t-25.5 7.5h-29q-9 0 -12 2.5t-3 12.5v23q0 10 3 13t12 3h187q8 0 11 -3t3 -13v-23q0 -10 -2.5 -12.5t-11.5 -2.5h-31q-19 0 -25.5 -7.5t-6.5 -31.5v-362q0 -274 -238 -274q-242 0 -242 270v364q0 25 -6.5 33t-25.5 8h-29
q-9 0 -12 2.5t-3 12.5v23q0 10 3.5 13t11.5 3h195q8 0 11 -3t3 -13v-23q0 -10 -2.5 -12.5t-11.5 -2.5h-31q-19 0 -25 -7.5t-6 -33.5v-357q0 -215 171 -215z" />
    <glyph glyph-name="V" unicode="V" horiz-adv-x="600" 
d="M151 622l157 -555l156 561q7 25 1.5 32t-27.5 8h-15q-11 1 -14 4.5t-3 13.5v20q0 10 3.5 13t12.5 3h161q14 0 14 -15v-22q0 -17 -14 -17l-28 -1q-12 0 -18 -7.5t-15 -35.5l-176 -617q-2 -9 -5.5 -12t-15.5 -3h-51q-13 0 -19 14l-177 614q-10 32 -17 39.5t-28 7.5l-18 1
q-11 0 -14.5 2.5t-3.5 12.5v23q0 10 3.5 13t13.5 3h176q11 0 14 -2.5t3 -12.5v-23q0 -9 -3 -11.5t-14 -3.5h-15q-30 -1 -30 -18q0 -9 6 -29z" />
    <glyph glyph-name="W" unicode="W" horiz-adv-x="901" 
d="M157 622l130 -548l128 623q3 16 5.5 20.5t10.5 4.5h52q8 0 10 -4t7 -22l142 -602l119 526q8 33 0.5 40.5t-48.5 7.5q-14 0 -14 14v27q0 6 0.5 8.5t4 3.5t11.5 1h168q8 0 10.5 -2.5t2.5 -11.5v-25v-6t-1.5 -4.5t-4 -3.5t-7.5 -1q-37 0 -46.5 -8t-18.5 -46l-144 -603
q-3 -12 -7 -15t-15 -3h-42q-17 0 -21 18l-138 595l-122 -595q-3 -13 -6.5 -16t-14.5 -3h-57q-15 0 -20 19l-151 609q-9 35 -17.5 41.5t-44.5 6.5q-11 0 -14 3.5t-3 13.5v24q0 8 2 10.5t10 2.5h192q12 0 12 -13v-28q0 -13 -11 -13q-34 0 -44 -2.5t-10 -14.5q0 -7 5 -29z" />
    <glyph glyph-name="X" unicode="X" horiz-adv-x="577" 
d="M172 648l119 -206l114 200q9 17 7 21.5t-15 4.5h-23q-12 0 -12 14v26q0 14 12 14h165q12 0 12 -15v-24q0 -15 -12 -15h-21q-16 0 -25.5 -6t-23.5 -28l-143 -252l163 -281q18 -30 28.5 -38t25.5 -8h18q11 0 14 -4t3 -12v-22q0 -10 -2.5 -13.5t-13.5 -3.5h-167
q-11 0 -14 3.5t-3 13.5v20q0 17 17 17h22q10 0 10 5q0 6 -11 24l-131 227l-130 -229q-10 -19 -7.5 -23t16.5 -4h26q14 0 14 -16v-23q0 -15 -14 -15h-172q-13 0 -13 15v23q0 16 13 16h26q14 0 23 6.5t24 31.5l159 278l-147 256q-15 26 -26 33.5t-31 7.5h-19q-13 0 -13 14v28
q0 13 13 13h173q13 0 13 -12v-28q0 -14 -14 -14h-25q-9 0 -9 -4.5t7 -15.5z" />
    <glyph glyph-name="Y" unicode="Y" horiz-adv-x="565" 
d="M213 54q18 0 25.5 6t8.5 25v212l-161 329q-13 25 -21.5 33t-23.5 8h-24q-15 0 -15 17v23q0 9 3 12t11 3h179q9 0 11.5 -3t2.5 -12v-22q0 -10 -2.5 -13.5t-11.5 -3.5h-23q-15 0 -18 -5t6 -25l125 -277l136 278q8 19 5.5 24t-17.5 5h-21q-9 0 -11.5 4t-2.5 14v22
q0 9 3 11.5t11 2.5h161q13 0 13 -15v-22q0 -10 -2.5 -13.5t-11.5 -3.5h-24q-12 0 -18.5 -6t-20.5 -31l-166 -319v-225q1 -20 8 -26.5t26 -6.5h28q9 0 12 -2.5t3 -10.5v-26q0 -15 -15 -15h-195q-8 0 -11 3t-3 11v26q0 8 2.5 11t11.5 3h27z" />
    <glyph glyph-name="Z" unicode="Z" horiz-adv-x="531" 
d="M66 722h404q14 0 14 -22v-18q0 -11 -10 -31l-353 -597h266q24 0 33 15.5t27 88.5q2 8 3.5 11t4.5 5.5t9 2.5h25q13 0 10 -20l-16 -142q0 -15 -17 -15h-420q-10 1 -10 21v22q0 14 4 19l356 606h-240q-34 0 -43.5 -17t-18.5 -93q-3 -19 -14 -19h-30q-11 0 -9 22l8 145
q1 16 17 16z" />
    <glyph glyph-name="bracketleft" unicode="[" horiz-adv-x="251" 
d="M102 747h95q26 0 26 -15v-19q0 -13 -5 -16.5t-19 -3.5h-55v-798h55q13 0 18.5 -4.5t5.5 -15.5v-18q0 -16 -26 -16h-95q-14 0 -20 7t-6 26v840q0 19 5.5 26t20.5 7z" />
    <glyph glyph-name="backslash" unicode="\" horiz-adv-x="376" 
d="M100 695l245 -654q7 -16 7 -27q0 -25 -30 -25q-20 0 -27.5 6.5t-16.5 28.5l-250 665q-4 12 -4 24q0 17 27 17q24 0 31.5 -6t17.5 -29z" />
    <glyph glyph-name="bracketright" unicode="]" horiz-adv-x="251" 
d="M53 747h95q15 0 21 -7t6 -26v-840q0 -19 -6 -26t-21 -7h-95q-25 0 -25 16v18q0 11 5 15.5t18 4.5h55v798h-55q-14 0 -18.5 3.5t-4.5 16.5v19q0 15 25 15z" />
    <glyph glyph-name="asciicircum" unicode="^" horiz-adv-x="496" 
d="M247 678l-140 -240q-10 -18 -17 -22.5t-28 -4.5q-39 0 -21 32l166 287q6 14 14.5 17.5t25.5 3.5v-73zM247 678l140 -240q6 -10 8.5 -13.5t7.5 -7.5t11.5 -5t17.5 -1q39 0 21 32l-165 287q-7 14 -15.5 17.5t-25.5 3.5v-73z" />
    <glyph glyph-name="underscore" unicode="_" horiz-adv-x="756" 
d="M684 -74h-615q-14 0 -14 30q0 16 7 21t23 5h603q13 0 13 -29q0 -27 -17 -27z" />
    <glyph glyph-name="grave" unicode="`" horiz-adv-x="245" 
d="M190 656l-6 -13q-5 -11 -23 -3l-131 52q-21 8 -11 22l18 31q7 9 25 -1l123 -68q12 -7 5 -20z" />
    <glyph glyph-name="a" unicode="a" 
d="M57 404q0 76 43.5 108t128.5 32q93 0 136 -44t43 -158v-249q0 -42 28 -42q7 0 32 5q7 3 10 1.5t3 -9.5v-27q0 -13 -12 -18q-24 -8 -53 -8q-73 0 -77 79q-53 -80 -163 -80q-142 0 -142 137q0 94 65.5 134t193.5 40h46v38q0 83 -25 114t-86 31q-75 0 -107 -37
q26 -12 26 -44q0 -22 -14 -36t-33 -14q-18 0 -30.5 13t-12.5 34zM103 133q0 -86 85 -86q66 0 108.5 45.5t42.5 123.5v37h-46q-97 0 -143.5 -28t-46.5 -92z" />
    <glyph glyph-name="b" unicode="b" horiz-adv-x="512" 
d="M69 40v630q0 31 -24 31l-40 1q-13 1 -13 17v20q0 10 2.5 13t10.5 4l111 7q12 1 16.5 -5.5t4.5 -22.5v-311q44 119 154 119q88 0 135 -67.5t47 -201.5q0 -287 -222 -287q-103 0 -171 32q-11 5 -11 21zM276 486q-60 0 -96 -55.5t-43 -162.5v-204q50 -19 109 -19
q153 0 153 227q0 214 -123 214z" />
    <glyph glyph-name="c" unicode="c" horiz-adv-x="471" 
d="M110 262q0 -210 173 -210q66 0 136 35q12 6 16.5 4.5t4.5 -13.5v-27q0 -14 -11 -21q-19 -13 -61 -25.5t-94 -12.5q-120 0 -178.5 70.5t-58.5 195.5q0 132 61.5 209t170.5 77q83 0 124 -40.5t41 -94.5q0 -23 -13 -37.5t-35 -14.5q-21 0 -34.5 14t-13.5 36q0 35 27 49
q-33 31 -95 31q-82 0 -121 -62.5t-39 -162.5z" />
    <glyph glyph-name="d" unicode="d" horiz-adv-x="533" 
d="M443 93q0 -42 28 -42q5 0 33 5q12 5 12 -8v-27q0 -13 -12 -18q-24 -8 -53 -8q-77 0 -77 88q-50 -96 -158 -96q-83 0 -130.5 65t-47.5 190q0 137 55.5 219t159.5 82q62 0 121 -44v171q0 31 -24 31l-40 1q-13 1 -13 17v20q0 10 2.5 13t10.5 4l112 7q12 1 16.5 -6t4.5 -22
v-642zM232 44q126 0 142 216v180q-42 46 -112 46q-78 0 -115.5 -70t-37.5 -171q0 -88 30 -144.5t93 -56.5z" />
    <glyph glyph-name="e" unicode="e" horiz-adv-x="474" 
d="M246 544q87 0 133 -44.5t46 -125.5q0 -79 -45 -123.5t-138 -44.5q-71 0 -132 25q4 -97 42 -140t111 -43q61 0 117 25q10 4 19.5 8.5t14 7t6.5 2.5q7 0 7 -10v-28q0 -16 -17 -26q-67 -35 -153 -35q-112 0 -165.5 70.5t-53.5 198.5q0 131 53.5 207t154.5 76zM246 490
q-129 0 -137 -206q62 -25 128 -25q124 0 124 117q0 114 -115 114z" />
    <glyph glyph-name="f" unicode="f" horiz-adv-x="322" 
d="M41 524h65v55q0 204 151 204q57 0 88 -30t33 -79v-4q0 -21 -14 -35.5t-33 -14.5q-18 0 -30 13t-12 35q0 33 26 45q-19 17 -52 17q-88 0 -88 -144v-62h116q14 0 14 -12v-28q0 -14 -14 -14h-116v-382q0 -21 7.5 -27.5t27.5 -6.5h31q9 0 11.5 -2.5t2.5 -10.5v-26
q0 -9 -3 -12t-11 -3h-200q-15 0 -15 15v26q0 13 15 13h30q21 0 28 6.5t7 27.5v382h-63q-10 0 -13 2.5t-3 11.5v24q0 16 14 16z" />
    <glyph glyph-name="g" unicode="g" horiz-adv-x="533" 
d="M217 -193q75 0 117 44t42 135v99q-50 -98 -158 -98q-84 0 -131 65t-47 190q0 137 55.5 219t158.5 82q61 0 122 -44v8q0 16 4.5 22t16.5 6l108 -8q14 -1 14 -14v-27q0 -3 -0.5 -5t-2.5 -3t-2.5 -1.5t-4 -2t-4.5 -1.5h-36q-15 -2 -19.5 -9t-5.5 -25v-441q0 -126 -60 -186.5
t-166 -60.5q-73 0 -122.5 32t-49.5 104q0 21 13.5 35.5t31.5 14.5q17 0 30.5 -13.5t13.5 -34.5q0 -30 -26 -44q31 -38 108 -38zM233 44q127 0 143 216v180q-46 46 -113 46q-78 0 -115.5 -70t-37.5 -171q0 -87 30 -144t93 -57z" />
    <glyph glyph-name="h" unicode="h" horiz-adv-x="549" 
d="M395 356q0 127 -100 127q-66 0 -100 -57t-34 -162v-176q0 -21 7.5 -27.5t28.5 -6.5h30q9 0 11.5 -2.5t2.5 -10.5v-26q0 -9 -3 -12t-11 -3h-200q-8 0 -11 3t-3 12v26q0 8 2.5 10.5t11.5 2.5h31q18 0 25.5 5t8.5 21v590q0 17 -5 24t-18 8h-40q-9 1 -11.5 4.5t-2.5 12.5v20
q0 11 2.5 13.5t11.5 3.5l111 7q12 1 16.5 -5.5t4.5 -22.5v-295q19 52 59.5 78t94.5 26q68 0 108.5 -44.5t40.5 -130.5v-276q0 -42 28 -42q7 0 32 5q7 3 10 1.5t3 -9.5v-27q0 -13 -12 -18q-24 -8 -53 -8q-77 0 -77 88v273z" />
    <glyph glyph-name="i" unicode="i" horiz-adv-x="272" 
d="M108 440q0 31 -24 32h-39q-9 1 -11.5 4.5t-2.5 12.5v20q0 11 2.5 13.5t11.5 3.5l111 7q12 1 16.5 -5.5t4.5 -22.5v-417q0 -21 7.5 -27.5t27.5 -6.5h31q9 0 11.5 -2.5t2.5 -10.5v-26q0 -9 -3 -12t-11 -3h-200q-15 0 -15 15v26q0 13 15 13h30q21 0 28 6.5t7 27.5v352z
M88 702q0 27 15.5 43.5t38.5 16.5q20 0 34 -16t14 -40q0 -25 -16 -40.5t-39 -15.5q-20 0 -33.5 14t-13.5 38z" />
    <glyph glyph-name="j" unicode="j" horiz-adv-x="237" 
d="M-86 -155q0 22 13 36.5t32 14.5t32 -13t13 -35q0 -28 -22 -42q16 -8 34 -8q80 0 80 118v526q0 31 -25 32h-40q-13 1 -13 17v20q0 11 2 13.5t11 3.5l111 7q12 1 17 -5.5t5 -22.5v-578q0 -181 -140 -181q-52 0 -81 28t-29 69zM74 702q0 27 15.5 43.5t38.5 16.5q20 0 34 -16
t14 -40q0 -25 -16 -40.5t-39 -15.5q-20 0 -33.5 14t-13.5 38z" />
    <glyph glyph-name="k" unicode="k" horiz-adv-x="513" 
d="M391 435l-158 -158l148 -158l19.5 -21.5t16 -17l11.5 -11.5t11 -9t9.5 -4t11.5 -2h30q11 0 11 -16v-23q0 -9 -2.5 -12t-11.5 -3h-192q-8 0 -10.5 2.5t-2.5 12.5v23q0 16 13 16h24q16 0 16.5 5t-13.5 21l-162 174v-166q0 -21 6 -27.5t23 -6.5h30q9 0 11.5 -2.5t2.5 -10.5
v-26q0 -9 -3 -12t-11 -3h-192q-8 0 -11 3t-3 12v26q0 8 2.5 10.5t11.5 2.5h30q20 0 27 6.5t7 27.5v582q0 31 -24 31l-38 1q-9 1 -11.5 4.5t-2.5 12.5v20q0 10 2.5 13t11.5 4l110 7q12 1 16.5 -5.5t4.5 -22.5v-457l164 165q28 29 -5 29h-32q-11 0 -11 14v27q0 13 14 13h189
q9 0 11.5 -3t2.5 -12v-23q0 -16 -13 -16h-22q-22 0 -32 -6t-35 -31z" />
    <glyph glyph-name="l" unicode="l" horiz-adv-x="260" 
d="M164 88q0 -21 7.5 -27.5t28.5 -6.5h30q9 0 11.5 -2.5t2.5 -10.5v-26q0 -9 -3 -12t-11 -3h-200q-8 0 -11 3t-3 12v26q0 8 2.5 10.5t11.5 2.5h31q20 0 27 6.5t7 27.5v582q0 17 -5 24t-18 7l-40 1q-9 1 -11.5 4.5t-2.5 12.5v20q0 10 2.5 13t11.5 4l111 7q12 1 16.5 -5.5
t4.5 -22.5v-647z" />
    <glyph glyph-name="m" unicode="m" horiz-adv-x="831" 
d="M299 481q-127 0 -127 -187v-206q0 -21 6 -27.5t22 -6.5h27q9 0 11.5 -2.5t2.5 -10.5v-26q0 -15 -14 -15h-185q-15 0 -15 15v26q0 13 15 13h27q19 0 26.5 7t7.5 27v354q0 22 -10.5 26t-53.5 4q-13 0 -13 14v25q0 15 14 16l110 7q12 0 17 -6.5t5 -21.5v-52q39 90 145 90
q102 0 132 -100q39 100 155 100q65 0 103.5 -44.5t38.5 -130.5v-276q0 -42 28 -42q7 0 32 5q7 3 10 1.5t3 -9.5v-27q0 -13 -12 -18q-24 -8 -53 -8q-77 0 -77 88v273q0 125 -91 125q-124 0 -127 -178v-215q0 -21 7 -27.5t27 -6.5h28q8 0 10.5 -2.5t2.5 -10.5v-26
q0 -15 -13 -15h-187q-8 0 -11 3t-3 12v26q0 13 14 13h27q17 0 23 6.5t6 27.5v279q-5 114 -91 114z" />
    <glyph glyph-name="n" unicode="n" horiz-adv-x="562" 
d="M106 442q0 22 -10 26t-54 4q-14 0 -14 14v25q0 15 15 16l108 7q12 0 16.5 -6t4.5 -22v-72q18 55 59.5 82.5t97.5 27.5q68 0 108 -44.5t40 -130.5v-276q0 -42 28 -42q5 0 33 5q12 5 12 -8v-27q0 -13 -12 -18q-24 -8 -53 -8q-77 0 -77 88v273q0 127 -100 127
q-66 0 -100 -57t-34 -162v-176q0 -21 7.5 -27.5t28.5 -6.5h30q15 0 15 -13v-26q0 -15 -15 -15h-200q-8 0 -11 3t-3 12v26q0 8 2.5 10.5t11.5 2.5h31q20 0 27.5 6.5t7.5 27.5v354z" />
    <glyph glyph-name="o" unicode="o" horiz-adv-x="505" 
d="M38 266q0 126 52.5 202t162.5 76t162.5 -76t52.5 -202t-52.5 -202.5t-162.5 -76.5t-162.5 76.5t-52.5 202.5zM253 490q-144 0 -144 -224q0 -225 144 -225t144 225q0 224 -144 224z" />
    <glyph glyph-name="p" unicode="p" horiz-adv-x="541" 
d="M90 -161v538h1v8h-1v57q0 22 -10 26t-53 4q-14 0 -14 14v25q0 15 14 16l111 7q12 0 16.5 -6t4.5 -22v-77q46 114 164 114q178 0 178 -267q0 -143 -53 -216t-155 -73q-69 0 -134 37v-185q0 -21 7.5 -27.5t28.5 -6.5h30q9 0 11.5 -2.5t2.5 -10.5v-26q0 -9 -3 -12t-11 -3
h-200q-8 0 -11 3t-3 12v26q0 8 2.5 10.5t11.5 2.5h31q20 0 27 6.5t7 27.5zM308 486q-130 0 -148 -216v-182q48 -44 126 -44q145 0 145 231q0 211 -123 211z" />
    <glyph glyph-name="q" unicode="q" horiz-adv-x="532" 
d="M443 -161q0 -21 8 -27.5t31 -6.5h24q15 0 15 -15v-22q0 -11 -3 -14t-12 -3h-209q-9 0 -11.5 3t-2.5 14v22q0 15 14 15h26q30 0 41 6.5t11 27.5v245q-24 -47 -66 -72t-92 -25q-83 0 -130.5 65t-47.5 190q0 137 55.5 219t158.5 82q61 0 122 -44v8q0 16 4.5 22t16.5 6
l108 -8q14 -1 14 -14v-27q0 -3 -0.5 -5t-2.5 -3t-2.5 -1.5t-4 -2t-4.5 -1.5h-36q-16 -2 -20.5 -10.5t-4.5 -34.5v-589zM232 44q127 0 143 216v180q-44 46 -113 46q-78 0 -115.5 -70t-37.5 -171q0 -87 30 -144t93 -57z" />
    <glyph glyph-name="r" unicode="r" horiz-adv-x="428" 
d="M174 396q6 23 16 45t27.5 47t45.5 40.5t63 15.5q45 0 68.5 -24t23.5 -64q0 -21 -14 -35.5t-32 -14.5q-19 0 -31 13t-12 35q0 19 11 33q-18 3 -20 3q-44 0 -79 -42.5t-51 -98.5t-16 -109v-152q0 -21 7.5 -27.5t28.5 -6.5h48q15 0 15 -13v-28q0 -13 -14 -13h-219
q-14 0 -14 15v26q0 8 2.5 10.5t11.5 2.5h30q20 0 28 7t8 27v354q0 22 -10 26t-54 4q-14 0 -14 14v25q0 15 15 16l110 7q12 0 16.5 -6t4.5 -22v-110z" />
    <glyph glyph-name="s" unicode="s" horiz-adv-x="433" 
d="M388 419q0 -20 -12.5 -34t-31.5 -14t-31 12.5t-12 33.5q0 28 19 42q-36 34 -98 34q-52 0 -76 -23.5t-24 -61.5q0 -42 28 -66t68 -35.5t80.5 -25t68.5 -47.5t28 -90q0 -77 -47.5 -117t-133.5 -40q-78 0 -127 33t-49 93q0 22 12 36t32 14t31.5 -12.5t11.5 -34.5
q0 -26 -20 -41q36 -37 108 -37q55 0 86 24.5t31 73.5q0 41 -28 64.5t-68 34.5t-80 25t-68 48.5t-28 92.5q0 143 163 143q81 0 124 -33t43 -92z" />
    <glyph glyph-name="t" unicode="t" horiz-adv-x="312" 
d="M27 526h60l21 122q2 16 26 16q14 0 17.5 -3t3.5 -13v-122h116q15 0 15 -12v-31q0 -13 -15 -13h-116v-314q0 -64 18 -84.5t55 -20.5q36 0 59 13q15 7 15 -9v-29q0 -14 -13 -19q-29 -13 -76 -13q-59 0 -92.5 31t-33.5 114v331h-57q-10 0 -13 2.5t-3 11.5v26q0 16 13 16z
" />
    <glyph glyph-name="u" unicode="u" horiz-adv-x="550" 
d="M251 49q68 0 104 50.5t36 140.5v202q0 22 -10 26t-53 4q-14 0 -14 14v25q0 15 14 16l111 7q21 0 21 -28v-413q0 -42 28 -42q7 0 32 5q7 3 10 1.5t3 -9.5v-27q0 -13 -12 -18q-24 -8 -53 -8q-69 0 -77 70q-49 -75 -156 -75q-75 0 -112 42.5t-37 140.5v269q0 22 -10 26
t-54 4q-13 0 -13 14v25q0 15 14 16l110 7q12 0 16.5 -6t4.5 -22v-336q0 -121 97 -121z" />
    <glyph glyph-name="v" unicode="v" horiz-adv-x="519" 
d="M152 439l110 -376l112 382q5 16 -2.5 21.5t-33.5 6.5h-11q-12 0 -12 13v25q0 9 2.5 12t9.5 3h170q8 0 10.5 -2.5t2.5 -9.5v-25q0 -10 -2 -13t-11 -4h-18q-20 0 -28 -4.5t-14 -23.5l-137 -437q-3 -10 -6 -12.5t-14 -2.5h-47q-14 0 -18 14l-138 435q-6 20 -13 24.5t-29 6.5
l-14 1q-13 1 -13 14v27q0 12 13 12h175q13 0 13 -13v-26q0 -14 -14 -14h-13q-23 -1 -29 -8t-1 -26z" />
    <glyph glyph-name="w" unicode="w" horiz-adv-x="799" 
d="M155 440l98 -387l110 446q4 19 7.5 23t12.5 4h44q8 0 11 -5t8 -24l115 -442l89 368q8 35 6.5 41t-19.5 8l-32 1q-8 2 -10.5 4t-2.5 9v26q0 9 2.5 11.5t10.5 2.5h178q7 0 9 -2t2 -9v-26q0 -16 -12 -17h-31q-17 -1 -23 -9t-17 -48l-113 -408q-2 -10 -7 -12.5t-23 -2.5h-42
q-15 0 -19 14l-112 418l-106 -417q-2 -9 -6 -12t-14 -3h-50q-13 0 -18 14l-120 432q-7 23 -15.5 28t-37.5 6q-11 1 -14.5 4t-3.5 11v26q0 13 13 13h180q11 0 11 -13v-26q0 -14 -10 -14q-42 -1 -48 -5.5t-1 -27.5z" />
    <glyph glyph-name="x" unicode="x" horiz-adv-x="499" 
d="M116 106l101 156l-117 181q-14 20 -22.5 25t-26.5 5h-20q-12 1 -12 14v26q0 13 12 13h175q7 0 9.5 -2.5t2.5 -11.5v-26q0 -13 -10 -13h-18q-23 0 -24.5 -4.5t11.5 -26.5l78 -122l82 125q13 20 11.5 24t-20.5 4h-13q-13 0 -13 13v26q0 14 13 14h153q8 0 10 -2.5t2 -11.5
v-27q0 -12 -13 -12l-19 -1q-19 0 -30.5 -9.5t-39.5 -51.5l-91 -141l101 -156q23 -39 34.5 -49t27.5 -11h26q12 0 12 -13v-27q0 -9 -2.5 -11.5t-10.5 -2.5h-165q-14 0 -14 15v22q0 16 14 16q30 0 34 5.5t-10 24.5l-84 129l-81 -125q-15 -25 -13 -29t19 -4h21q12 -1 12 -12
v-28q0 -14 -12 -14h-170q-8 0 -11 2.5t-3 11.5v24q0 15 11 16h28q17 0 31 10.5t34 41.5z" />
    <glyph glyph-name="y" unicode="y" horiz-adv-x="530" 
d="M21 -159q0 22 12.5 36t31.5 14q18 0 31 -13t13 -35q0 -28 -23 -42q14 -8 31 -8q33 0 57 24.5t45 85.5l21 71l-154 460q-11 26 -17 32t-26 6h-20q-14 0 -14 15v25q0 9 3 11.5t11 2.5h183q8 0 11 -3t3 -12v-23q0 -15 -14 -15h-27q-20 0 -23.5 -6.5t3.5 -28.5l111 -366
l112 365q6 23 1.5 29t-27.5 6h-17q-13 0 -13 14v25q0 9 3 12t11 3h170q9 0 11.5 -3t2.5 -12v-22q0 -16 -14 -16h-23q-19 0 -26.5 -6.5t-16.5 -33.5l-169 -540q-26 -82 -61 -112t-92 -30q-43 0 -72 24t-29 66z" />
    <glyph glyph-name="z" unicode="z" horiz-adv-x="456" 
d="M76 528h316q13 0 13 -14v-16q0 -15 -11 -33l-276 -411h188q30 0 39 14t25 88q3 12 13 12h31q10 0 9 -13l-17 -139q-3 -16 -19 -16h-343q-11 1 -11 14v26q0 14 4 19l278 416h-162q-27 0 -35 -12t-19 -71q-2 -12 -5 -15.5t-10 -3.5h-30q-10 0 -10 16l12 123q1 16 20 16z
" />
    <glyph glyph-name="braceleft" unicode="{" horiz-adv-x="286" 
d="M27 289v20h74v-1q64 -17 64 -117v-166q0 -94 79 -94q9 0 12 -2t3 -9v-24q0 -12 -16 -12h-10q-69 0 -102.5 32t-33.5 110v158q0 39 -11.5 60.5t-46.5 31.5q-11 8 -12 13zM27 309v19q0 10 10 12q1 1 2 1q34 10 46 31.5t12 61.5v158q0 78 33.5 110t102.5 32h10q16 0 16 -12
v-24q0 -7 -3 -9t-12 -2q-79 0 -79 -94v-166q0 -100 -64 -117v-1h-74z" />
    <glyph glyph-name="bar" unicode="|" horiz-adv-x="221" 
d="M145 -109q0 -19 -17 -20h-35q-16 0 -16 19v831q0 20 17 21h35q16 0 16 -20v-831z" />
    <glyph glyph-name="braceright" unicode="}" horiz-adv-x="286" 
d="M259 289v20h-74v-1q-64 -17 -64 -117v-166q0 -94 -79 -94q-9 0 -12 -2t-3 -9v-24q0 -12 16 -12h9q69 0 103 32t34 110v158q0 39 11.5 60.5t46.5 31.5q11 8 12 13zM259 328v-19h-74v1q-64 17 -64 117v166q0 94 -79 94q-9 0 -12 2t-3 9v24q0 12 16 12h9q69 0 103 -32
t34 -110v-158q0 -40 12 -61.5t46 -31.5q11 -8 12 -13z" />
    <glyph glyph-name="asciitilde" unicode="~" horiz-adv-x="401" 
d="M274 294q53 0 54 54q2 9 12 9h34q10 0 10 -15q0 -111 -113 -111q-26 0 -44 8t-25 16.5t-15 22.5q-7 14 -10.5 19t-14.5 11.5t-28 6.5q-50 0 -53 -53q-1 -10 -11 -10h-33q-7 0 -9 2.5t-2 12.5q0 52 28 81t81 29q61 0 86 -50q6 -12 11 -17.5t15.5 -10.5t26.5 -5z" />
    <glyph glyph-name="exclamdown" unicode="&#xa1;" horiz-adv-x="229" 
d="M71 45q0 29 12 175.5t12 337.5q0 13 19 13q20 0 20 -13q0 -191 12.5 -337.5t12.5 -175.5q0 -55 -45 -55q-43 0 -43 55zM64 677q0 26 16 42.5t38 16.5q21 0 35.5 -15t14.5 -40t-16.5 -41t-38.5 -16q-21 0 -35 14.5t-14 38.5z" />
    <glyph glyph-name="cent" unicode="&#xa2;" horiz-adv-x="480" 
d="M326 433q0 23 13 39q-32 17 -72 18q-77 0 -116 -61t-39 -168q0 -217 168 -217q50 0 86 12q11 3 33.5 12.5t26.5 10.5q5 1 7 -1t2 -8v-28q0 -10 -3 -14t-13 -9q-50 -25 -112 -31v-47q0 -19 -17 -20h-35q-16 0 -16 19v49q-198 22 -198 273q0 122 51 196t147 84v59
q0 20 17 21h35q16 0 16 -20v-61q64 -12 106 -58q17 -19 15 -31l-2 -8q1 -3 1 -9q0 -24 -16 -39.5t-36 -15.5q-21 0 -35 14.5t-14 38.5z" />
    <glyph glyph-name="sterling" unicode="&#xa3;" horiz-adv-x="546" 
d="M360 563q0 30 22 45q-24 67 -113 67q-61 -2 -95.5 -44t-34.5 -127q0 -19 2 -36.5t9 -37.5l10 -28.5t14.5 -34t12.5 -28.5h154q10 0 10 -10v-32q0 -11 -11 -11h-134q9 -36 9 -64q0 -55 -19 -100t-52 -68h230q49 0 62 9t18 49l7 71q4 14 20 14h20q16 0 13 -16l-11 -134
q-3 -32 -10.5 -39.5t-29.5 -7.5h-397q-11 0 -14 2.5t-3 12.5v25q0 14 14 14h5q80 39 80 157q0 35 -14 75h-81q-11 0 -11 11v32q0 10 10 10h58q-15 30 -22.5 47t-15.5 49t-8 65q0 111 54 170.5t150 61.5q89 0 141 -42t54 -121v-7q-1 -25 -16 -38.5t-37 -13.5q-21 0 -35.5 14
t-14.5 39z" />
    <glyph glyph-name="currency" unicode="&#xa4;" horiz-adv-x="570" 
d="M288 169q-88 0 -142 52l-41 -46q-13 -13 -26 -1l-24 24q-13 12 1 26l49 54q-24 53 -24 120q0 84 36 141l-50 55q-13 15 -1 27l26 24q12 12 23 -1l50 -56q50 36 123 36q61 0 109 -27l49 55q12 13 25 1l26 -24q11 -13 -2 -26l-47 -51q45 -60 45 -153q0 -80 -34 -139l42 -47
q14 -15 2 -27l-25 -25q-12 -10 -24 2l-41 45q-50 -39 -125 -39zM436 405q0 73 -41 120.5t-107 47.5q-68 0 -109.5 -48t-41.5 -121q0 -84 40 -133.5t111 -49.5q69 0 108.5 50t39.5 134z" />
    <glyph glyph-name="yen" unicode="&#xa5;" horiz-adv-x="644" 
d="M244 54q20 0 27 8t7 33v171l-162 360q-20 41 -47 41h-24q-13 0 -17 3.5t-4 13.5v23q0 9 4.5 12t16.5 3h181q13 0 17 -3.5t4 -15.5v-15q0 -20 -21 -20h-20q-9 0 -12.5 -1t-7.5 -7.5t5 -21.5l126 -306l154 306q6 15 1 22t-14 7h-23q-20 0 -20 21v19q0 9 4 12t16 3h165
q20 0 20 -15v-23q0 -10 -4 -13.5t-16 -3.5h-26q-20 0 -39 -37l-185 -355v-180q0 -26 7 -33.5t27 -7.5h28q9 0 12 -2.5t3 -10.5v-26q0 -15 -15 -15h-195q-8 0 -11 3t-3 11v26q0 8 2.5 11t11.5 3h27z" />
    <glyph glyph-name="brokenbar" unicode="&#xa6;" horiz-adv-x="224" 
d="M77 721q0 20 17 21h35q16 0 16 -20v-331q0 -19 -17 -20h-35q-16 0 -16 19v331zM145 182v-321q0 -19 -17 -20h-35q-16 0 -16 19v321q0 20 17 21h35q16 0 16 -20z" />
    <glyph glyph-name="section" unicode="&#xa7;" horiz-adv-x="443" 
d="M41 117q0 21 13.5 35.5t31.5 14.5q19 0 32 -13t13 -35q0 -31 -26 -45q38 -39 101 -39q49 0 80 24t31 72q0 34 -27 54t-66 30t-78 22.5t-66 42.5t-27 79q0 102 85 132q-71 35 -71 110q0 67 42.5 101.5t117.5 34.5q86 0 122.5 -32t36.5 -76l-7 -1q-2 -18 -15.5 -30.5
t-30.5 -12.5q-19 0 -31 13t-12 35q0 20 11 34q-35 20 -76 20q-92 0 -92 -79q0 -33 27.5 -52.5t66.5 -30t78 -23.5t66.5 -43t27.5 -79q0 -98 -70 -140q56 -34 56 -101q0 -77 -50.5 -115t-131.5 -38q-69 0 -115.5 34.5t-46.5 89.5v7zM332 373q0 46 -58 70q-33 12 -64 12
q-92 0 -92 -88q0 -12 3.5 -22.5t8 -18t15 -14.5l17 -11t22 -9.5l23 -8t25.5 -7.5l25 -7q29 2 52 26.5t23 77.5z" />
    <glyph glyph-name="dieresis" unicode="&#xa8;" horiz-adv-x="470" 
d="M36 655q0 23 14 38t33 15t31.5 -13.5t12.5 -36.5q0 -21 -14 -35.5t-33 -14.5q-20 0 -32 12.5t-12 34.5zM183 655q0 23 14.5 38t33.5 15q18 0 31 -13.5t13 -36.5q0 -21 -14.5 -35.5t-33.5 -14.5t-31.5 13t-12.5 34z" />
    <glyph glyph-name="copyright" unicode="&#xa9;" horiz-adv-x="753" 
d="M377 -13q-162 0 -249.5 106t-87.5 272q0 164 90 268t248 104t246.5 -103.5t88.5 -267.5q0 -168 -87 -273.5t-249 -105.5zM658 370q0 144 -76.5 232.5t-203.5 88.5t-205 -89t-78 -233q0 -152 76 -244t207 -92q129 0 204.5 92.5t75.5 244.5zM394 562q73 0 113 -42
q4 -4 6 -8q9 -12 9 -28q0 -22 -13.5 -36.5t-31.5 -14.5t-29.5 13t-11.5 34q0 17 7 28q-21 9 -49 9q-61 0 -93.5 -43.5t-32.5 -107.5t32.5 -102.5t101.5 -38.5q47 0 93 25q18 9 21 9q10 0 10 -10v-18q0 -15 -13 -22q-50 -29 -120 -29q-87 0 -135.5 50.5t-48.5 130.5
q0 88 49.5 144.5t135.5 56.5z" />
    <glyph glyph-name="ordfeminine" unicode="&#xaa;" horiz-adv-x="388" 
d="M56 675v5q4 72 128 72q58 0 86.5 -27.5t28.5 -99.5v-151q0 -26 21 -26q5 0 21 9q6 3 8 0.5t2 -12.5v-18q0 -11 -12 -19q-16 -9 -31 -9q-44 0 -57 45q-31 -45 -99 -45q-53 0 -82 28.5t-29 81.5q0 117 206 117v15q0 32 -17 49.5t-45 17.5q-33 0 -55 -7q6 -11 6 -23
q0 -20 -12.5 -33t-30.5 -13q-16 0 -26.5 11.5t-10.5 31.5zM94 508q0 -60 61 -60q43 0 67.5 28t24.5 77v30q-153 0 -153 -75z" />
    <glyph glyph-name="guillemotleft" unicode="&#xab;" horiz-adv-x="673" 
d="M349 67q16 -12 16 -25q0 -15 -17 -15h-34q-12 0 -26 9l-234 190q-17 14 -23 24t-6 27t5.5 26.5t23.5 24.5l234 190q14 9 26 9h34q17 0 17 -16q0 -12 -16 -24l-263 -210zM619 67q16 -12 16 -25q0 -15 -17 -15h-34q-12 0 -26 9l-234 190q-17 14 -23 24t-6 27t5.5 26.5
t23.5 24.5l234 190q14 9 26 9h34q17 0 17 -16q0 -12 -16 -24l-263 -210z" />
    <glyph glyph-name="logicalnot" unicode="&#xac;" horiz-adv-x="519" 
d="M77 439h360q22 0 22 -22v-227q0 -8 -5.5 -13.5t-12.5 -5.5h-33q-8 0 -13.5 5.5t-5.5 13.5v182h-312q-25 0 -25 23v22q0 22 25 22z" />
    <glyph glyph-name="registered" unicode="&#xae;" horiz-adv-x="753" 
d="M377 -13q-162 0 -249.5 106t-87.5 272q0 164 90 268t248 104t246.5 -103.5t88.5 -267.5q0 -168 -87 -273.5t-249 -105.5zM658 370q0 144 -76.5 232.5t-203.5 88.5t-205 -89t-78 -233q0 -152 76 -244t207 -92q129 0 204.5 92.5t75.5 244.5zM274 494q0 19 -6 25t-24 6
q-9 0 -9 12v17q0 8 2 10.5t9 2.5h112q82 0 118.5 -25t36.5 -91q0 -87 -75 -111q37 -26 60 -106q5 -20 23 -20q9 0 20 6q3 2 5 0t2 -10v-19q0 -13 -9 -17q-10 -8 -29 -8q-46 0 -59 46q-34 120 -95 120h-31v-87q0 -20 5 -25.5t21 -5.5h2q8 0 10 -2t2 -8v-19q0 -8 -2.5 -10.5
t-9.5 -2.5h-107q-11 0 -11 13v19q0 10 11 10h2q14 0 20 6.5t6 24.5v249zM325 372h38q95 0 95 79q0 41 -23 58t-73 17h-37v-154z" />
    <glyph glyph-name="macron" unicode="&#xaf;" horiz-adv-x="284" 
d="M243 642h-211q-17 0 -17 35q0 22 17 22h206q16 0 16 -32q0 -25 -11 -25z" />
    <glyph glyph-name="degree" unicode="&#xb0;" horiz-adv-x="357" 
d="M177 431q-62 0 -101 45t-39 114q0 68 39 112.5t102 44.5q64 0 102.5 -44t38.5 -112q0 -70 -39.5 -115t-102.5 -45zM271 590q0 52 -24.5 83t-68.5 31q-43 0 -68 -31t-25 -83q0 -53 25 -85t68 -32q42 0 67.5 33t25.5 84z" />
    <glyph glyph-name="plusminus" unicode="&#xb1;" horiz-adv-x="470" 
d="M262 510v-146h138q25 0 25 -27q0 -15 -6 -21t-23 -6h-134v-159q0 -28 -29 -28q-27 0 -27 37v150h-131q-26 0 -26 29q0 17 8 21t28 4h121v150q0 27 30 27q14 0 20 -6.5t6 -24.5zM396 -10h-336q-11 0 -11 11v32q0 11 11 11h337q10 0 10 -11v-32q0 -11 -11 -11z" />
    <glyph glyph-name="twosuperior" unicode="&#xb2;" horiz-adv-x="289" 
d="M18 726q0 8 1 12q4 37 36 60.5t84 23.5q58 0 89 -30.5t31 -77.5q0 -56 -61 -124l-115 -130h102q24 0 32 5.5t10 23.5l4 36q1 10 11 10h18q11 0 9 -11l-8 -86q-1 -12 -4 -15t-13 -3h-215q-11 0 -11 13v14q0 13 19 34l126 142q38 43 38 89q0 67 -66 67q-37 0 -61 -19
q16 -11 16 -33q0 -17 -10.5 -27.5t-26.5 -10.5q-15 0 -25 10t-10 27z" />
    <glyph glyph-name="threesuperior" unicode="&#xb3;" horiz-adv-x="287" 
d="M23 735v3q2 38 33 61.5t81 23.5q53 0 82 -28t29 -76q0 -44 -18 -64.5t-43 -24.5q36 -4 58.5 -29t22.5 -71q0 -58 -37 -87.5t-100 -29.5q-70 0 -104 17q-6 4 -6 11v29q0 8 5 8q2 0 4 -1t5.5 -2t5.5 -2q42 -14 81 -14q86 0 86 73q0 38 -22.5 56t-54.5 18h-15q-7 0 -8.5 1.5
t-1.5 8.5v27q0 8 10 8h14q63 0 63 65q0 63 -60 63q-28 0 -50 -15q11 -11 11 -29q0 -17 -10.5 -27.5t-25.5 -10.5t-25 10.5t-10 27.5z" />
    <glyph glyph-name="acute" unicode="&#xb4;" horiz-adv-x="249" 
d="M39 643l-6 11q-7 11 8 20l121 70q18 10 24 1l20 -31q8 -14 -9 -21l-134 -53q-16 -7 -24 3z" />
    <glyph glyph-name="mu" unicode="&#xb5;" horiz-adv-x="579" 
d="M477 93q0 -42 28 -42q7 0 32 5q7 3 9.5 1.5t2.5 -9.5v-27q0 -13 -11 -18q-24 -8 -54 -8q-68 0 -76 70q-50 -75 -157 -75q-48 0 -80 17v-214q0 -9 -8 -9h-52q-8 0 -8 8v650q0 22 -10.5 26t-53.5 4q-14 0 -14 14v25q0 15 15 16l110 7q12 0 16.5 -6t4.5 -22v-336
q0 -121 97 -121q68 0 104 50.5t36 140.5v202q0 21 -10.5 25.5t-53.5 4.5q-13 0 -13 14v25q0 15 14 16l110 7q13 0 17.5 -6.5t4.5 -21.5v-413z" />
    <glyph glyph-name="paragraph" unicode="&#xb6;" horiz-adv-x="485" 
d="M182 -91v449q-67 1 -111.5 48.5t-44.5 126.5q0 83 44.5 136t113.5 53h253q14 0 14 -15v-22q0 -17 -13 -17q-38 0 -50 -5.5t-13 -27.5v-725q0 -9 -7 -9h-43q-8 0 -8 8v759h-77v-759q0 -8 -6 -8h-46q-6 0 -6 8z" />
    <glyph glyph-name="periodcentered" unicode="&#xb7;" horiz-adv-x="209" 
d="M53 260q0 26 15.5 42.5t37.5 16.5q21 0 35.5 -15t14.5 -40t-16 -41t-38 -16q-21 0 -35 14.5t-14 38.5z" />
    <glyph glyph-name="cedilla" unicode="&#xb8;" horiz-adv-x="262" 
d="M59 -67l32 76l43 -1l-15 -44q41 6 67 -13t26 -63q0 -91 -111 -91q-28 0 -64 6q-6 1 -6 13v19q0 8 1.5 10t6.5 1q42 -6 59 -6q61 0 61 47q0 38 -45 38q-9 0 -26 -2t-22 -2q-13 0 -7 12z" />
    <glyph glyph-name="onesuperior" unicode="&#xb9;" horiz-adv-x="193" 
d="M129 483q0 -15 6.5 -19t31.5 -4h10q9 0 9 -9v-20q0 -7 -1.5 -9t-7.5 -2h-150q-6 0 -7.5 2t-1.5 9v20q0 9 9 9h8q26 0 33 4t7 19v268q0 9 -2.5 10.5t-10.5 -1.5l-32 -12q-10 -3 -10 7v25q0 8 10 12l69 24q9 4 19 4q11 0 11 -16v-321z" />
    <glyph glyph-name="ordmasculine" unicode="&#xba;" horiz-adv-x="353" 
d="M40 534q0 79 34 131t103 52q68 0 102 -52t34 -131t-33.5 -131t-102.5 -52t-103 52t-34 131zM177 673q-84 0 -84 -140q0 -63 20.5 -100.5t63.5 -37.5q42 0 62.5 38t20.5 100q0 140 -83 140z" />
    <glyph glyph-name="guillemotright" unicode="&#xbb;" horiz-adv-x="673" 
d="M54 67l263 210l-263 210q-16 12 -16 24q0 16 18 16h34q11 0 24 -9l235 -190q18 -15 23.5 -24.5t5.5 -26.5t-6 -27t-23 -24l-235 -190q-13 -9 -24 -9h-34q-18 0 -18 15q0 13 16 25zM324 67l263 210l-263 210q-16 12 -16 24q0 16 18 16h34q11 0 24 -9l235 -190
q18 -15 23.5 -24.5t5.5 -26.5t-6 -27t-23 -24l-235 -190q-13 -9 -24 -9h-34q-18 0 -18 15q0 13 16 25z" />
    <glyph glyph-name="onequarter" unicode="&#xbc;" horiz-adv-x="572" 
d="M40 51l425 684q10 17 22 13q7 0 17.5 -7t11.5 -15q5 -10 -7 -29l-424 -683q-11 -18 -27 -12q-24 7 -25 23q-3 9 7 26zM275 123l173 267q6 9 15 9h38q16 0 4 -18l-166 -256h93v74q0 8 8 8h41q6 0 6 -8v-74h38q7 0 9 -1.5t2 -7.5v-22q0 -9 -10 -9h-39v-23q1 -12 5.5 -16
t16.5 -4h11q9 0 9 -8v-22q0 -10 -9 -10h-119q-10 0 -10 9v23q0 8 10 8h10q12 0 16.5 5t4.5 21v17h-148q-7 0 -8.5 2t-1.5 9v17q0 6 2 10h-1zM153 483q0 -15 6.5 -19t31.5 -4h10q9 0 9 -9v-20q0 -7 -1.5 -9t-7.5 -2h-150q-6 0 -7.5 2t-1.5 9v20q0 9 9 9h8q26 0 33 4t7 19v268
q0 9 -2.5 10.5t-10.5 -1.5l-32 -12q-10 -3 -10 7v25q0 8 10 12l69 24q9 4 19 4q11 0 11 -16v-321z" />
    <glyph glyph-name="onehalf" unicode="&#xbd;" horiz-adv-x="666" 
d="M153 483q0 -15 6.5 -19t31.5 -4h10q9 0 9 -9v-20q0 -7 -1.5 -9t-7.5 -2h-150q-6 0 -7.5 2t-1.5 9v20q0 9 9 9h8q26 0 33 4t7 19v268q0 9 -2.5 10.5t-10.5 -1.5l-32 -12q-10 -3 -10 7v25q0 8 10 12l69 24q9 4 19 4q11 0 11 -16v-321zM352 306q0 8 1 12q4 37 36 60.5
t84 23.5q58 0 89 -30.5t31 -77.5q0 -56 -61 -124l-115 -130h102q24 0 32 5.5t10 23.5l4 36q1 10 11 10h18q11 0 9 -11l-8 -86q-1 -12 -4 -15t-13 -3h-215q-11 0 -11 13v14q0 13 19 34l126 142q38 43 38 89q0 67 -66 67q-37 0 -61 -19q16 -11 16 -33q0 -17 -10.5 -27.5
t-26.5 -10.5q-15 0 -25 10t-10 27zM40 51l425 684q10 17 22 13q7 0 17.5 -7t11.5 -15q5 -10 -7 -29l-424 -683q-11 -18 -27 -12q-24 7 -25 23q-3 9 7 26z" />
    <glyph glyph-name="threequarters" unicode="&#xbe;" horiz-adv-x="629" 
d="M87 51l425 684q10 17 22 13q7 0 17.5 -7t11.5 -15q5 -10 -7 -29l-424 -683q-11 -18 -27 -12q-24 7 -25 23q-3 9 7 26zM340 121l173 267q6 9 15 9h38q16 0 4 -18l-166 -256h93v74q0 8 8 8h41q6 0 6 -8v-74h38q7 0 9 -1.5t2 -7.5v-22q0 -9 -10 -9h-39v-17q0 -16 4.5 -21
t17.5 -5h11q9 0 9 -8v-22q0 -10 -9 -10h-119q-10 0 -10 9v23q0 8 10 8h10q12 0 16.5 5t4.5 21v17h-148q-7 0 -8.5 2t-1.5 9v17q0 6 2 10h-1zM12 735v3q2 38 33 61.5t81 23.5q53 0 82 -28t29 -76q0 -44 -18 -64.5t-43 -24.5q36 -4 58.5 -29t22.5 -71q0 -58 -37 -87.5
t-100 -29.5q-70 0 -104 17q-6 4 -6 11v29q0 8 5 8l15 -5q42 -14 81 -14q86 0 86 73q0 38 -22.5 56t-54.5 18h-15q-7 0 -8.5 1.5t-1.5 8.5v27q0 8 10 8h14q63 0 63 65q0 63 -60 63q-28 0 -50 -15q11 -11 11 -29q0 -17 -10.5 -27.5t-25.5 -10.5t-25 10.5t-10 27.5z" />
    <glyph glyph-name="questiondown" unicode="&#xbf;" horiz-adv-x="456" 
d="M103 180q0 -54 31 -91.5t91 -37.5q93 0 125 73q-29 12 -29 49q0 24 16 39.5t38 15.5q21 0 35.5 -14.5t14.5 -39.5v-5q-1 -67 -52.5 -120.5t-150.5 -53.5q-90 0 -141.5 51t-51.5 131q0 53 19.5 99t46.5 78t54.5 60.5t47 61t19.5 66.5v10q0 16 19 16h28q22 0 22 -28
q0 -40 -18.5 -76.5t-45.5 -65.5l-54 -59.5t-45.5 -71t-18.5 -87.5zM204 628q0 24 15.5 39.5t37.5 15.5q21 0 36 -14.5t15 -39.5t-16 -39.5t-38 -14.5t-36 14t-14 39z" />
    <glyph glyph-name="Agrave" unicode="&#xc0;" horiz-adv-x="619" 
d="M465 100l-42 143h-241l-43 -149q-6 -25 -0.5 -32t27.5 -8l15 -1q12 0 15.5 -3.5t3.5 -13.5v-21q0 -9 -3.5 -12t-14.5 -3h-165q-14 0 -14 15v22q0 17 14 17l30 1q12 0 18 7t15 35l183 616q4 10 7 12.5t16 2.5h49q15 0 20 -14l184 -612q10 -32 17 -39.5t29 -8.5h18
q12 0 15.5 -3t3.5 -13v-23q0 -10 -3 -12.5t-14 -2.5h-181q-11 0 -14 2.5t-3 12.5v22q0 10 3 12.5t16 3.5h15q30 1 30 17q0 10 -6 30zM302 657l-105 -361h210zM323 821l-6 -13q-5 -11 -23 -3l-131 52q-21 8 -11 22l18 31q7 9 25 -1l123 -68q12 -7 5 -20z" />
    <glyph glyph-name="Aacute" unicode="&#xc1;" horiz-adv-x="619" 
d="M465 100l-42 143h-241l-43 -149q-6 -25 -0.5 -32t27.5 -8l15 -1q12 0 15.5 -3.5t3.5 -13.5v-21q0 -9 -3.5 -12t-14.5 -3h-165q-14 0 -14 15v22q0 17 14 17l30 1q12 0 18 7t15 35l183 616q4 10 7 12.5t16 2.5h49q15 0 20 -14l184 -612q10 -32 17 -39.5t29 -8.5h18
q12 0 15.5 -3t3.5 -13v-23q0 -10 -3 -12.5t-14 -2.5h-181q-11 0 -14 2.5t-3 12.5v22q0 10 3 12.5t16 3.5h15q30 1 30 17q0 10 -6 30zM302 657l-105 -361h210zM272 803l-6 11q-7 11 8 20l121 70q18 10 24 1l20 -31q8 -14 -9 -21l-134 -53q-16 -7 -24 3z" />
    <glyph glyph-name="Acircumflex" unicode="&#xc2;" horiz-adv-x="619" 
d="M465 100l-42 143h-241l-43 -149q-6 -25 -0.5 -32t27.5 -8l15 -1q12 0 15.5 -3.5t3.5 -13.5v-21q0 -9 -3.5 -12t-14.5 -3h-165q-14 0 -14 15v22q0 17 14 17l30 1q12 0 18 7t15 35l183 616q4 10 7 12.5t16 2.5h49q15 0 20 -14l184 -612q10 -32 17 -39.5t29 -8.5h18
q12 0 15.5 -3t3.5 -13v-23q0 -10 -3 -12.5t-14 -2.5h-181q-11 0 -14 2.5t-3 12.5v22q0 10 3 12.5t16 3.5h15q30 1 30 17q0 10 -6 30zM302 657l-105 -361h210zM373 810l-65 70l-63 -70q-12 -13 -25 -13h-28q-11 0 -12.5 5.5t6.5 13.5l91 100q12 14 32 14q19 0 32 -14l92 -100
q4 -5 5 -9.5t-2 -7t-10 -2.5h-28q-13 0 -25 13z" />
    <glyph glyph-name="Atilde" unicode="&#xc3;" horiz-adv-x="619" 
d="M465 100l-42 143h-241l-43 -149q-6 -25 -0.5 -32t27.5 -8l15 -1q12 0 15.5 -3.5t3.5 -13.5v-21q0 -9 -3.5 -12t-14.5 -3h-165q-14 0 -14 15v22q0 17 14 17l30 1q12 0 18 7t15 35l183 616q4 10 7 12.5t16 2.5h49q15 0 20 -14l184 -612q10 -32 17 -39.5t29 -8.5h18
q12 0 15.5 -3t3.5 -13v-23q0 -10 -3 -12.5t-14 -2.5h-181q-11 0 -14 2.5t-3 12.5v22q0 10 3 12.5t16 3.5h15q30 1 30 17q0 10 -6 30zM302 657l-105 -361h210zM348 848q26 0 28 33q2 7 8 7h26q9 0 9 -9q0 -81 -69 -81q-39 0 -52 26q-9 16 -18 18q-3 1 -7 1q-24 0 -26 -33
q-1 -8 -10 -8h-25q-9 0 -9 10q0 38 18 59t51 21q16 0 26.5 -5.5t14 -10t9.5 -14.5q9 -14 26 -14z" />
    <glyph glyph-name="Adieresis" unicode="&#xc4;" horiz-adv-x="619" 
d="M465 100l-42 143h-241l-43 -149q-6 -25 -0.5 -32t27.5 -8l15 -1q12 0 15.5 -3.5t3.5 -13.5v-21q0 -9 -3.5 -12t-14.5 -3h-165q-14 0 -14 15v22q0 17 14 17l30 1q12 0 18 7t15 35l183 616q4 10 7 12.5t16 2.5h49q15 0 20 -14l184 -612q10 -32 17 -39.5t29 -8.5h18
q12 0 15.5 -3t3.5 -13v-23q0 -10 -3 -12.5t-14 -2.5h-181q-11 0 -14 2.5t-3 12.5v22q0 10 3 12.5t16 3.5h15q30 1 30 17q0 10 -6 30zM302 657l-105 -361h210zM190 843q0 23 14 38t33 15t31.5 -13.5t12.5 -36.5q0 -21 -14 -35.5t-33 -14.5q-20 0 -32 12.5t-12 34.5zM337 843
q0 23 14.5 38t33.5 15q18 0 31 -13.5t13 -36.5q0 -21 -14.5 -35.5t-33.5 -14.5t-31.5 13t-12.5 34z" />
    <glyph glyph-name="Aring" unicode="&#xc5;" horiz-adv-x="619" 
d="M465 100l-42 143h-241l-43 -149q-6 -25 -0.5 -32t27.5 -8l15 -1q12 0 15.5 -3.5t3.5 -13.5v-21q0 -9 -3.5 -12t-14.5 -3h-165q-14 0 -14 15v22q0 17 14 17l30 1q12 0 18 7t15 35l183 616q4 10 7 12.5t16 2.5h49q15 0 20 -14l184 -612q10 -32 17 -39.5t29 -8.5h18
q12 0 15.5 -3t3.5 -13v-23q0 -10 -3 -12.5t-14 -2.5h-181q-11 0 -14 2.5t-3 12.5v22q0 10 3 12.5t16 3.5h15q30 1 30 17q0 10 -6 30zM302 657l-105 -361h210zM308 788q-43 0 -69.5 23t-26.5 60t26 59.5t70 22.5t71 -22.5t27 -59.5t-27 -60t-71 -23zM308 824q20 0 34.5 12.5
t14.5 34.5q0 21 -14 34.5t-35 13.5q-20 0 -33.5 -13.5t-13.5 -34.5q0 -22 13.5 -34.5t33.5 -12.5z" />
    <glyph glyph-name="AE" unicode="&#xc6;" horiz-adv-x="843" 
d="M596 329h-127v-275h199q48 0 61 9t19 49l8 71q4 14 18 14h21q15 0 14 -16l-12 -134q-3 -32 -10.5 -39.5t-29.5 -7.5h-421q-14 0 -14 15v22q0 17 13 17q40 0 51.5 7t11.5 34v148h-207l-50 -142q-8 -22 -8 -31t6.5 -12t23.5 -4h19q15 -1 15 -18v-19q0 -17 -15 -17h-171
q-9 0 -11.5 3t-2.5 12v25q0 14 14 14l29 1q13 0 21 9t21 45l206 572q11 30 18 35.5t33 5.5h403q26 0 32.5 -7t8.5 -40l6 -99q1 -9 0.5 -14.5t-3.5 -7.5t-10 -2h-25q-10 0 -14 4t-5 18l-4 47q-2 33 -16.5 40t-63.5 7h-179v-286h127q22 0 23 29l2 41q1 10 3.5 12.5t13.5 2.5
h18q13 0 13 -17v-190q0 -17 -13 -17h-18q-10 0 -13.5 3t-3.5 12l-2 41q-1 30 -23 30zM336 648l-125 -351h187v370h-39q-16 0 -23 -19z" />
    <glyph glyph-name="Ccedilla" unicode="&#xc7;" horiz-adv-x="607" 
d="M293 -69l25 60q-131 10 -206 100t-75 258q0 171 82.5 276.5t232.5 105.5q108 0 163 -52t57 -120v-5q0 -25 -16 -39.5t-38 -14.5t-36 14.5t-14 38.5q0 21 11.5 35.5t30.5 18.5q-44 67 -154 67q-84 0 -140.5 -46t-80.5 -117t-24 -162q0 -138 60.5 -219.5t189.5 -81.5
q19 0 37 2t31.5 4t29 6.5t24.5 7.5t22.5 9t18.5 8.5l17 8.5t13 7q26 16 26 -8v-26q0 -14 -14 -23q-28 -20 -80.5 -37t-123.5 -18l-9 -27q41 6 67 -13t26 -63q0 -91 -111 -91q-28 0 -64 6q-6 1 -6 13v19q0 8 1.5 10t6.5 1q42 -6 59 -6q61 0 61 47q0 38 -45 38q-9 0 -26 -2
t-22 -2q-13 0 -7 12z" />
    <glyph glyph-name="Egrave" unicode="&#xc8;" horiz-adv-x="554" 
d="M52 0q-14 0 -14 15v22q0 17 13 17q40 0 51.5 7t11.5 34v539q0 32 -25 33h-38q-7 0 -10 3t-3 12v25q0 9 3 12t13 3h397q26 0 32.5 -7t8.5 -40l6 -99q2 -15 -0.5 -19.5t-13.5 -4.5h-23q-10 0 -14 4t-5 18l-3 47q-3 33 -17.5 40t-62.5 7h-173v-286h115q23 0 24 29l1 38
q1 10 4 13t13 3h20q10 0 13 -3.5t3 -12.5v-188q0 -9 -2.5 -12t-11.5 -3h-22q-16 0 -17 14l-1 39q-1 30 -24 30h-115v-275h215q32 0 41 6.5t13 32.5l8 90q1 14 18 14h24q16 0 13 -16l-12 -157q-1 -16 -6.5 -20t-20.5 -4h-427zM300 821l-6 -13q-5 -11 -23 -3l-131 52
q-21 8 -11 22l18 31q7 9 25 -1l123 -68q12 -7 5 -20z" />
    <glyph glyph-name="Eacute" unicode="&#xc9;" horiz-adv-x="554" 
d="M52 0q-14 0 -14 15v22q0 17 13 17q40 0 51.5 7t11.5 34v539q0 32 -25 33h-38q-7 0 -10 3t-3 12v25q0 9 3 12t13 3h397q26 0 32.5 -7t8.5 -40l6 -99q2 -15 -0.5 -19.5t-13.5 -4.5h-23q-10 0 -14 4t-5 18l-3 47q-3 33 -17.5 40t-62.5 7h-173v-286h115q23 0 24 29l1 38
q1 10 4 13t13 3h20q10 0 13 -3.5t3 -12.5v-188q0 -9 -2.5 -12t-11.5 -3h-22q-16 0 -17 14l-1 39q-1 30 -24 30h-115v-275h215q32 0 41 6.5t13 32.5l8 90q1 14 18 14h24q16 0 13 -16l-12 -157q-1 -16 -6.5 -20t-20.5 -4h-427zM250 803l-6 11q-7 11 8 20l121 70q18 10 24 1
l20 -31q8 -14 -9 -21l-134 -53q-16 -7 -24 3z" />
    <glyph glyph-name="Ecircumflex" unicode="&#xca;" horiz-adv-x="554" 
d="M52 0q-14 0 -14 15v22q0 17 13 17q40 0 51.5 7t11.5 34v539q0 32 -25 33h-38q-7 0 -10 3t-3 12v25q0 9 3 12t13 3h397q26 0 32.5 -7t8.5 -40l6 -99q2 -15 -0.5 -19.5t-13.5 -4.5h-23q-10 0 -14 4t-5 18l-3 47q-3 33 -17.5 40t-62.5 7h-173v-286h115q23 0 24 29l1 38
q1 10 4 13t13 3h20q10 0 13 -3.5t3 -12.5v-188q0 -9 -2.5 -12t-11.5 -3h-22q-16 0 -17 14l-1 39q-1 30 -24 30h-115v-275h215q32 0 41 6.5t13 32.5l8 90q1 14 18 14h24q16 0 13 -16l-12 -157q-1 -16 -6.5 -20t-20.5 -4h-427zM350 810l-65 70l-63 -70q-12 -13 -25 -13h-28
q-11 0 -12.5 5.5t6.5 13.5l91 100q12 14 32 14q19 0 32 -14l92 -100q4 -5 5 -9.5t-2 -7t-10 -2.5h-28q-13 0 -25 13z" />
    <glyph glyph-name="Edieresis" unicode="&#xcb;" horiz-adv-x="554" 
d="M52 0q-14 0 -14 15v22q0 17 13 17q40 0 51.5 7t11.5 34v539q0 32 -25 33h-38q-7 0 -10 3t-3 12v25q0 9 3 12t13 3h397q26 0 32.5 -7t8.5 -40l6 -99q2 -15 -0.5 -19.5t-13.5 -4.5h-23q-10 0 -14 4t-5 18l-3 47q-3 33 -17.5 40t-62.5 7h-173v-286h115q23 0 24 29l1 38
q1 10 4 13t13 3h20q10 0 13 -3.5t3 -12.5v-188q0 -9 -2.5 -12t-11.5 -3h-22q-16 0 -17 14l-1 39q-1 30 -24 30h-115v-275h215q32 0 41 6.5t13 32.5l8 90q1 14 18 14h24q16 0 13 -16l-12 -157q-1 -16 -6.5 -20t-20.5 -4h-427zM168 843q0 23 14 38t33 15t31.5 -13.5
t12.5 -36.5q0 -21 -14 -35.5t-33 -14.5q-20 0 -32 12.5t-12 34.5zM315 843q0 23 14.5 38t33.5 15q18 0 31 -13.5t13 -36.5q0 -21 -14.5 -35.5t-33.5 -14.5t-31.5 13t-12.5 34z" />
    <glyph glyph-name="Igrave" unicode="&#xcc;" horiz-adv-x="298" 
d="M112 627q0 25 -6.5 33t-25.5 8h-30q-9 0 -11.5 2.5t-2.5 12.5v23q0 16 14 16h196q14 0 14 -16v-23q0 -10 -2.5 -12.5t-11.5 -2.5h-31q-19 0 -25 -7.5t-6 -33.5v-532q0 -26 7 -33.5t27 -7.5h29q9 0 11.5 -2.5t2.5 -10.5v-26q0 -15 -14 -15h-196q-8 0 -11 3t-3 11v26
q0 8 2.5 11t11.5 3h27q20 0 27 8t7 33v532zM162 821l-6 -13q-5 -11 -23 -3l-131 52q-21 8 -11 22l18 31q7 9 25 -1l123 -68q12 -7 5 -20z" />
    <glyph glyph-name="Iacute" unicode="&#xcd;" horiz-adv-x="298" 
d="M185 95q0 -26 7 -33.5t27 -7.5h29q9 0 11 -2.5t2 -10.5v-26q0 -15 -13 -15h-196q-9 0 -12 3t-3 11v26q0 8 3 11t12 3h27q20 0 27 8t7 33v532q0 25 -6.5 33t-25.5 8h-30q-9 0 -11.5 2.5t-2.5 12.5v23q0 10 3 13t11 3h195q8 0 11.5 -3t3.5 -13v-23q0 -10 -3 -12.5t-12 -2.5
h-30q-19 0 -25 -7.5t-6 -33.5v-532zM112 803l-6 11q-7 11 8 20l121 70q18 10 24 1l20 -31q8 -14 -9 -21l-134 -53q-16 -7 -24 3z" />
    <glyph glyph-name="Icircumflex" unicode="&#xce;" horiz-adv-x="298" 
d="M185 95q0 -26 7 -33.5t27 -7.5h29q9 0 11 -2.5t2 -10.5v-26q0 -15 -13 -15h-196q-9 0 -12 3t-3 11v26q0 8 3 11t12 3h27q20 0 27 8t7 33v532q0 25 -6.5 33t-25.5 8h-30q-9 0 -11.5 2.5t-2.5 12.5v23q0 10 3 13t11 3h195q8 0 11.5 -3t3.5 -13v-23q0 -10 -3 -12.5t-12 -2.5
h-30q-19 0 -25 -7.5t-6 -33.5v-532zM213 810l-65 70l-63 -70q-12 -13 -25 -13h-28q-11 0 -12.5 5.5t6.5 13.5l91 100q12 14 32 14q19 0 32 -14l92 -100q4 -5 5 -9.5t-2 -7t-10 -2.5h-28q-13 0 -25 13z" />
    <glyph glyph-name="Idieresis" unicode="&#xcf;" horiz-adv-x="298" 
d="M185 95q0 -26 7 -33.5t27 -7.5h29q9 0 11 -2.5t2 -10.5v-26q0 -15 -13 -15h-196q-9 0 -12 3t-3 11v26q0 8 3 11t12 3h27q20 0 27 8t7 33v532q0 25 -6.5 33t-25.5 8h-30q-9 0 -11.5 2.5t-2.5 12.5v23q0 10 3 13t11 3h195q8 0 11.5 -3t3.5 -13v-23q0 -10 -3 -12.5t-12 -2.5
h-30q-19 0 -25 -7.5t-6 -33.5v-532zM30 843q0 23 14 38t33 15t31.5 -13.5t12.5 -36.5q0 -21 -14 -35.5t-33 -14.5q-20 0 -32 12.5t-12 34.5zM177 843q0 23 14.5 38t33.5 15q18 0 31 -13.5t13 -36.5q0 -21 -14.5 -35.5t-33.5 -14.5t-31.5 13t-12.5 34z" />
    <glyph glyph-name="Eth" unicode="&#xd0;" horiz-adv-x="652" 
d="M611 360q0 -360 -353 -360h-206q-14 0 -14 15v22q0 17 13 17q41 0 52 7t11 34v212h-64q-11 0 -11 11v32q0 11 11 11h64v273q0 32 -24 33h-38q-14 0 -14 15v25q0 9 3 12t13 3h205q179 0 265.5 -90t86.5 -272zM386 307h-200v-250h71q146 0 213 72.5t67 230.5
q0 160 -68 233.5t-214 73.5h-69v-306h201q10 0 10 -11v-32q0 -11 -11 -11z" />
    <glyph glyph-name="Ntilde" unicode="&#xd1;" horiz-adv-x="693" 
d="M587 8q0 -16 -16 -16h-19q-16 0 -25 13l-354 589v-514q0 -16 8 -21t28 -5h27q9 0 11.5 -2t2.5 -12v-25q0 -9 -3 -12t-11 -3h-185q-9 0 -11.5 3t-2.5 12v24q0 10 2.5 12.5t11.5 2.5h26q20 0 28 5.5t8 20.5v543q-1 27 -12 36t-36 9h-5q-12 0 -16.5 4t-4.5 14v19q0 17 21 17
h95q19 0 27 -15l345 -584v519q0 16 -8 21t-28 5h-27q-9 0 -11.5 2t-2.5 12v24q0 10 3 13t11 3h185q8 0 11 -3t3 -12v-24q0 -10 -2.5 -12.5t-11.5 -2.5h-26q-21 0 -28.5 -5.5t-7.5 -20.5v-634zM376 848q26 0 28 33q2 7 8 7h26q9 0 9 -9q0 -81 -69 -81q-39 0 -52 26
q-9 16 -18 18q-3 1 -7 1q-24 0 -26 -33q-1 -8 -10 -8h-25q-9 0 -9 10q0 38 18 59t51 21q16 0 26.5 -5.5t14 -10t9.5 -14.5q9 -14 26 -14z" />
    <glyph glyph-name="Ograve" unicode="&#xd2;" horiz-adv-x="704" 
d="M39 357q0 55 9 105.5t31.5 101t56.5 87t89.5 59.5t125.5 23q84 0 146.5 -31t98 -85t52 -117.5t16.5 -136.5q0 -55 -8.5 -105.5t-31 -101t-57 -87t-90 -59.5t-125.5 -23q-84 0 -146.5 31t-98 85t-52 117.5t-16.5 136.5zM350 677q-53 0 -95 -19.5t-68 -50.5t-43 -73.5
t-23.5 -84.5t-6.5 -88q0 -45 6.5 -87t23.5 -85t43 -74.5t69 -51.5t98 -20t97.5 20t68 51.5t42 75t22.5 84t6 84.5q0 56 -11 108t-36.5 101.5t-75 79.5t-117.5 30zM364 821l-6 -13q-5 -11 -23 -3l-131 52q-21 8 -11 22l18 31q7 9 25 -1l123 -68q12 -7 5 -20z" />
    <glyph glyph-name="Oacute" unicode="&#xd3;" horiz-adv-x="704" 
d="M39 357q0 55 9 105.5t31.5 101t56.5 87t89.5 59.5t125.5 23q84 0 146.5 -31t98 -85t52 -117.5t16.5 -136.5q0 -55 -8.5 -105.5t-31 -101t-57 -87t-90 -59.5t-125.5 -23q-84 0 -146.5 31t-98 85t-52 117.5t-16.5 136.5zM350 677q-53 0 -95 -19.5t-68 -50.5t-43 -73.5
t-23.5 -84.5t-6.5 -88q0 -45 6.5 -87t23.5 -85t43 -74.5t69 -51.5t98 -20t97.5 20t68 51.5t42 75t22.5 84t6 84.5q0 56 -11 108t-36.5 101.5t-75 79.5t-117.5 30zM314 803l-6 11q-7 11 8 20l121 70q18 10 24 1l20 -31q8 -14 -9 -21l-134 -53q-16 -7 -24 3z" />
    <glyph glyph-name="Ocircumflex" unicode="&#xd4;" horiz-adv-x="704" 
d="M39 357q0 55 9 105.5t31.5 101t56.5 87t89.5 59.5t125.5 23q84 0 146.5 -31t98 -85t52 -117.5t16.5 -136.5q0 -55 -8.5 -105.5t-31 -101t-57 -87t-90 -59.5t-125.5 -23q-84 0 -146.5 31t-98 85t-52 117.5t-16.5 136.5zM350 677q-53 0 -95 -19.5t-68 -50.5t-43 -73.5
t-23.5 -84.5t-6.5 -88q0 -45 6.5 -87t23.5 -85t43 -74.5t69 -51.5t98 -20t97.5 20t68 51.5t42 75t22.5 84t6 84.5q0 56 -11 108t-36.5 101.5t-75 79.5t-117.5 30zM415 810l-65 70l-63 -70q-12 -13 -25 -13h-28q-11 0 -12.5 5.5t6.5 13.5l91 100q12 14 32 14q19 0 32 -14
l92 -100q4 -5 5 -9.5t-2 -7t-10 -2.5h-28q-13 0 -25 13z" />
    <glyph glyph-name="Otilde" unicode="&#xd5;" horiz-adv-x="704" 
d="M39 357q0 55 9 105.5t31.5 101t56.5 87t89.5 59.5t125.5 23q84 0 146.5 -31t98 -85t52 -117.5t16.5 -136.5q0 -55 -8.5 -105.5t-31 -101t-57 -87t-90 -59.5t-125.5 -23q-84 0 -146.5 31t-98 85t-52 117.5t-16.5 136.5zM350 677q-53 0 -95 -19.5t-68 -50.5t-43 -73.5
t-23.5 -84.5t-6.5 -88q0 -45 6.5 -87t23.5 -85t43 -74.5t69 -51.5t98 -20t97.5 20t68 51.5t42 75t22.5 84t6 84.5q0 56 -11 108t-36.5 101.5t-75 79.5t-117.5 30zM390 848q26 0 28 33q2 7 8 7h26q9 0 9 -9q0 -81 -69 -81q-39 0 -52 26q-9 16 -18 18q-3 1 -7 1q-24 0 -26 -33
q-1 -8 -10 -8h-25q-9 0 -9 10q0 38 18 59t51 21q16 0 26.5 -5.5t14 -10t9.5 -14.5q9 -14 26 -14z" />
    <glyph glyph-name="Odieresis" unicode="&#xd6;" horiz-adv-x="704" 
d="M39 357q0 55 9 105.5t31.5 101t56.5 87t89.5 59.5t125.5 23q84 0 146.5 -31t98 -85t52 -117.5t16.5 -136.5q0 -55 -8.5 -105.5t-31 -101t-57 -87t-90 -59.5t-125.5 -23q-84 0 -146.5 31t-98 85t-52 117.5t-16.5 136.5zM350 677q-53 0 -95 -19.5t-68 -50.5t-43 -73.5
t-23.5 -84.5t-6.5 -88q0 -45 6.5 -87t23.5 -85t43 -74.5t69 -51.5t98 -20t97.5 20t68 51.5t42 75t22.5 84t6 84.5q0 56 -11 108t-36.5 101.5t-75 79.5t-117.5 30zM232 843q0 23 14 38t33 15t31.5 -13.5t12.5 -36.5q0 -21 -14 -35.5t-33 -14.5q-20 0 -32 12.5t-12 34.5z
M379 843q0 23 14.5 38t33.5 15q18 0 31 -13.5t13 -36.5q0 -21 -14.5 -35.5t-33.5 -14.5t-31.5 13t-12.5 34z" />
    <glyph glyph-name="multiply" unicode="&#xd7;" horiz-adv-x="489" 
d="M241 227v1l-141 -157q-14 -16 -23 -18t-22 10q-17 19 5 43l145 165l-145 164q-22 25 -5 44q13 12 22 10t23 -18l141 -158v1l2 -3l3 3v-2l141 159q14 16 23 18t23 -10q16 -20 -5 -44l-145 -164l145 -165q21 -23 5 -43q-14 -12 -23 -10t-23 18l-141 158v-2l-3 2z" />
    <glyph glyph-name="Oslash" unicode="&#xd8;" horiz-adv-x="704" 
d="M178 -5l12 32q-78 45 -114.5 133t-36.5 197q0 55 9 105.5t31.5 101t56.5 87t89.5 59.5t125.5 23q54 0 101 -14l5 13q4 11 7 14.5t9 2.5l48 -10q13 -2 5 -22l-10 -26q76 -46 112 -133.5t36 -194.5q0 -55 -8.5 -105.5t-31 -101t-57 -87t-90 -59.5t-125.5 -23q-51 0 -98 13
l-8 -23q-4 -10 -6.5 -12.5t-9.5 -1.5l-47 11q-7 2 -8 5.5t3 15.5zM350 677q-53 0 -95 -19.5t-68 -50.5t-43 -73.5t-23.5 -84.5t-6.5 -88q0 -191 99 -272l218 575q-39 13 -81 13zM590 358q0 187 -98 271l-217 -574q35 -12 79 -12q55 0 97.5 20t68 51.5t42 75t22.5 84t6 84.5z
" />
    <glyph glyph-name="Ugrave" unicode="&#xd9;" horiz-adv-x="680" 
d="M342 55q174 0 174 217v357q0 24 -6.5 31.5t-25.5 7.5h-29q-9 0 -12 2.5t-3 12.5v23q0 10 3 13t12 3h187q8 0 11 -3t3 -13v-23q0 -10 -2.5 -12.5t-11.5 -2.5h-31q-19 0 -25.5 -7.5t-6.5 -31.5v-362q0 -274 -238 -274q-242 0 -242 270v364q0 25 -6.5 33t-25.5 8h-29
q-9 0 -12 2.5t-3 12.5v23q0 10 3.5 13t11.5 3h195q8 0 11 -3t3 -13v-23q0 -10 -2.5 -12.5t-11.5 -2.5h-31q-19 0 -25 -7.5t-6 -33.5v-357q0 -215 171 -215zM356 821l-6 -13q-5 -11 -23 -3l-131 52q-21 8 -11 22l18 31q7 9 25 -1l123 -68q12 -7 5 -20z" />
    <glyph glyph-name="Uacute" unicode="&#xda;" horiz-adv-x="680" 
d="M342 55q174 0 174 217v357q0 24 -6.5 31.5t-25.5 7.5h-29q-9 0 -12 2.5t-3 12.5v23q0 10 3 13t12 3h187q8 0 11 -3t3 -13v-23q0 -10 -2.5 -12.5t-11.5 -2.5h-31q-19 0 -25.5 -7.5t-6.5 -31.5v-362q0 -274 -238 -274q-242 0 -242 270v364q0 25 -6.5 33t-25.5 8h-29
q-9 0 -12 2.5t-3 12.5v23q0 10 3.5 13t11.5 3h195q8 0 11 -3t3 -13v-23q0 -10 -2.5 -12.5t-11.5 -2.5h-31q-19 0 -25 -7.5t-6 -33.5v-357q0 -215 171 -215zM306 803l-6 11q-7 11 8 20l121 70q18 10 24 1l20 -31q8 -14 -9 -21l-134 -53q-16 -7 -24 3z" />
    <glyph glyph-name="Ucircumflex" unicode="&#xdb;" horiz-adv-x="680" 
d="M342 55q174 0 174 217v357q0 24 -6.5 31.5t-25.5 7.5h-29q-9 0 -12 2.5t-3 12.5v23q0 10 3 13t12 3h187q8 0 11 -3t3 -13v-23q0 -10 -2.5 -12.5t-11.5 -2.5h-31q-19 0 -25.5 -7.5t-6.5 -31.5v-362q0 -274 -238 -274q-242 0 -242 270v364q0 25 -6.5 33t-25.5 8h-29
q-9 0 -12 2.5t-3 12.5v23q0 10 3.5 13t11.5 3h195q8 0 11 -3t3 -13v-23q0 -10 -2.5 -12.5t-11.5 -2.5h-31q-19 0 -25 -7.5t-6 -33.5v-357q0 -215 171 -215zM405 810l-65 70l-63 -70q-12 -13 -25 -13h-28q-11 0 -12.5 5.5t6.5 13.5l91 100q12 14 32 14q19 0 32 -14l92 -100
q4 -5 5 -9.5t-2 -7t-10 -2.5h-28q-13 0 -25 13z" />
    <glyph glyph-name="Udieresis" unicode="&#xdc;" horiz-adv-x="680" 
d="M342 55q174 0 174 217v357q0 24 -6.5 31.5t-25.5 7.5h-29q-9 0 -12 2.5t-3 12.5v23q0 10 3 13t12 3h187q8 0 11 -3t3 -13v-23q0 -10 -2.5 -12.5t-11.5 -2.5h-31q-19 0 -25.5 -7.5t-6.5 -31.5v-362q0 -274 -238 -274q-242 0 -242 270v364q0 25 -6.5 33t-25.5 8h-29
q-9 0 -12 2.5t-3 12.5v23q0 10 3.5 13t11.5 3h195q8 0 11 -3t3 -13v-23q0 -10 -2.5 -12.5t-11.5 -2.5h-31q-19 0 -25 -7.5t-6 -33.5v-357q0 -215 171 -215zM223 843q0 23 14 38t33 15t31.5 -13.5t12.5 -36.5q0 -21 -14 -35.5t-33 -14.5q-20 0 -32 12.5t-12 34.5zM370 843
q0 23 14.5 38t33.5 15q18 0 31 -13.5t13 -36.5q0 -21 -14.5 -35.5t-33.5 -14.5t-31.5 13t-12.5 34z" />
    <glyph glyph-name="Yacute" unicode="&#xdd;" horiz-adv-x="565" 
d="M213 54q18 0 25.5 6t8.5 25v212l-161 329q-13 25 -21.5 33t-23.5 8h-24q-15 0 -15 17v23q0 9 3 12t11 3h179q9 0 11.5 -3t2.5 -12v-22q0 -10 -2.5 -13.5t-11.5 -3.5h-23q-15 0 -18 -5t6 -25l125 -277l136 278q8 19 5.5 24t-17.5 5h-21q-9 0 -11.5 4t-2.5 14v22
q0 9 3 11.5t11 2.5h161q13 0 13 -15v-22q0 -10 -2.5 -13.5t-11.5 -3.5h-24q-12 0 -18.5 -6t-20.5 -31l-166 -319v-225q1 -20 8 -26.5t26 -6.5h28q9 0 12 -2.5t3 -10.5v-26q0 -15 -15 -15h-195q-8 0 -11 3t-3 11v26q0 8 2.5 11t11.5 3h27zM255 803l-6 11q-7 11 8 20l121 70
q18 10 24 1l20 -31q8 -14 -9 -21l-134 -53q-16 -7 -24 3z" />
    <glyph glyph-name="Thorn" unicode="&#xde;" horiz-adv-x="534" 
d="M504 300q0 -78 -38.5 -133.5t-94.5 -80.5t-120 -25q-52 0 -97 12v-212q0 -19 -17 -20h-35q-16 0 -16 19v861q0 20 17 21h35q16 0 16 -20v-192q47 6 88 6q120 0 191 -62t71 -174zM154 469v-334q44 -18 97 -18q76 0 127 46.5t51 136.5q0 85 -51.5 131t-127.5 46
q-59 0 -96 -8z" />
    <glyph glyph-name="germandbls" unicode="&#xdf;" horiz-adv-x="550" 
d="M304 49q57 0 95 38.5t38 110.5q0 77 -43 117t-106 40h-56q-7 0 -7 10v37q0 11 9 11h53q43 0 78.5 31t35.5 97q0 63 -35 97t-93 34q-61 0 -96.5 -37t-35.5 -101v-741q0 -20 -19 -20h-31q-18 0 -18 19v742q0 89 49 143.5t150 54.5q96 0 147.5 -50.5t51.5 -140.5
q0 -60 -26.5 -104.5t-65.5 -52.5q50 -11 91 -56.5t41 -135.5q0 -97 -55.5 -147t-148.5 -50q-76 0 -126 22q-9 5 -9 16v29q0 14 9 14q3 0 20 -7t45.5 -13.5t57.5 -6.5z" />
    <glyph glyph-name="agrave" unicode="&#xe0;" 
d="M57 412q1 72 43.5 102t123.5 30q95 0 139.5 -44t44.5 -158v-249q0 -42 28 -42q7 0 32 5q7 3 10 1.5t3 -9.5v-27q0 -13 -12 -18q-24 -8 -53 -8q-73 0 -77 79q-53 -80 -162 -80q-143 0 -143 138q0 93 65 133t194 40h46v43q0 81 -26 112t-88 31q-75 0 -105 -36
q27 -11 27 -44q0 -22 -14 -36t-32 -14q-19 0 -31.5 12.5t-12.5 33.5v5zM103 133q0 -86 85 -86q66 0 108.5 45.5t42.5 123.5v37h-46q-97 0 -143.5 -28t-46.5 -92zM251 685l-6 -13q-5 -11 -23 -3l-131 52q-21 8 -11 22l18 31q7 9 25 -1l123 -68q12 -7 5 -20z" />
    <glyph glyph-name="aacute" unicode="&#xe1;" 
d="M57 412q1 72 43.5 102t123.5 30q95 0 139.5 -44t44.5 -158v-249q0 -42 28 -42q7 0 32 5q7 3 10 1.5t3 -9.5v-27q0 -13 -12 -18q-24 -8 -53 -8q-73 0 -77 79q-53 -80 -162 -80q-143 0 -143 138q0 93 65 133t194 40h46v43q0 81 -26 112t-88 31q-75 0 -105 -36
q27 -11 27 -44q0 -22 -14 -36t-32 -14q-19 0 -31.5 12.5t-12.5 33.5v5zM103 133q0 -86 85 -86q66 0 108.5 45.5t42.5 123.5v37h-46q-97 0 -143.5 -28t-46.5 -92zM201 668l-6 11q-7 11 8 20l121 70q18 10 24 1l20 -31q8 -14 -9 -21l-134 -53q-16 -7 -24 3z" />
    <glyph glyph-name="acircumflex" unicode="&#xe2;" 
d="M57 412q1 72 43.5 102t123.5 30q95 0 139.5 -44t44.5 -158v-249q0 -42 28 -42q7 0 32 5q7 3 10 1.5t3 -9.5v-27q0 -13 -12 -18q-24 -8 -53 -8q-73 0 -77 79q-53 -80 -162 -80q-143 0 -143 138q0 93 65 133t194 40h46v43q0 81 -26 112t-88 31q-75 0 -105 -36
q27 -11 27 -44q0 -22 -14 -36t-32 -14q-19 0 -31.5 12.5t-12.5 33.5v5zM103 133q0 -86 85 -86q66 0 108.5 45.5t42.5 123.5v37h-46q-97 0 -143.5 -28t-46.5 -92zM301 674l-65 70l-63 -70q-12 -13 -25 -13h-28q-11 0 -12.5 5.5t6.5 13.5l91 100q12 14 32 14q19 0 32 -14
l92 -100q4 -5 5 -9.5t-2 -7t-10 -2.5h-28q-13 0 -25 13z" />
    <glyph glyph-name="atilde" unicode="&#xe3;" 
d="M57 412q1 72 43.5 102t123.5 30q95 0 139.5 -44t44.5 -158v-249q0 -42 28 -42q7 0 32 5q7 3 10 1.5t3 -9.5v-27q0 -13 -12 -18q-24 -8 -53 -8q-73 0 -77 79q-53 -80 -162 -80q-143 0 -143 138q0 93 65 133t194 40h46v43q0 81 -26 112t-88 31q-75 0 -105 -36
q27 -11 27 -44q0 -22 -14 -36t-32 -14q-19 0 -31.5 12.5t-12.5 33.5v5zM103 133q0 -86 85 -86q66 0 108.5 45.5t42.5 123.5v37h-46q-97 0 -143.5 -28t-46.5 -92zM277 713q27 0 28 33q2 7 8 7h26q9 0 9 -9q0 -81 -69 -81q-39 0 -52 26q-9 16 -18 18q-3 1 -7 1q-24 0 -26 -33
q-1 -8 -10 -8h-25q-9 0 -9 10q0 38 18 59t51 21q16 0 26.5 -5.5t14 -10t9.5 -14.5q9 -14 26 -14z" />
    <glyph glyph-name="adieresis" unicode="&#xe4;" 
d="M57 412q1 72 43.5 102t123.5 30q95 0 139.5 -44t44.5 -158v-249q0 -42 28 -42q7 0 32 5q7 3 10 1.5t3 -9.5v-27q0 -13 -12 -18q-24 -8 -53 -8q-73 0 -77 79q-53 -80 -162 -80q-143 0 -143 138q0 93 65 133t194 40h46v43q0 81 -26 112t-88 31q-75 0 -105 -36
q27 -11 27 -44q0 -22 -14 -36t-32 -14q-19 0 -31.5 12.5t-12.5 33.5v5zM103 133q0 -86 85 -86q66 0 108.5 45.5t42.5 123.5v37h-46q-97 0 -143.5 -28t-46.5 -92zM265 708q0 23 14.5 38t33.5 15q18 0 31 -13.5t13 -36.5q0 -21 -14.5 -35.5t-33.5 -14.5t-31.5 13t-12.5 34z
M118 708q0 23 14 38t33 15t31.5 -13.5t12.5 -36.5q0 -21 -14 -35.5t-33 -14.5q-20 0 -32 12.5t-12 34.5z" />
    <glyph glyph-name="aring" unicode="&#xe5;" 
d="M57 412q1 72 43.5 102t123.5 30q95 0 139.5 -44t44.5 -158v-249q0 -42 28 -42q7 0 32 5q7 3 10 1.5t3 -9.5v-27q0 -13 -12 -18q-24 -8 -53 -8q-73 0 -77 79q-53 -80 -162 -80q-143 0 -143 138q0 93 65 133t194 40h46v43q0 81 -26 112t-88 31q-75 0 -105 -36
q27 -11 27 -44q0 -22 -14 -36t-32 -14q-19 0 -31.5 12.5t-12.5 33.5v5zM103 133q0 -86 85 -86q66 0 108.5 45.5t42.5 123.5v37h-46q-97 0 -143.5 -28t-46.5 -92zM236 653q-43 0 -69.5 23t-26.5 60t26 59.5t70 22.5t71 -22.5t27 -59.5t-27 -60t-71 -23zM236 689
q20 0 34.5 12.5t14.5 34.5q0 21 -14 34.5t-35 13.5q-20 0 -33.5 -13.5t-13.5 -34.5q0 -22 13.5 -34.5t33.5 -12.5z" />
    <glyph glyph-name="ae" unicode="&#xe6;" horiz-adv-x="799" 
d="M567 544q95 0 147 -49.5t52 -137.5q0 -79 -51 -123t-154 -44q-83 0 -146 25q15 -171 165 -171q51 0 87 12q11 4 33.5 13t24.5 10q10 3 10 -9v-28q0 -10 -2.5 -14t-13.5 -9q-61 -32 -142 -32q-166 0 -215 135q-16 -54 -63 -91t-121 -37q-143 0 -143 138q0 93 64.5 133
t194.5 40h46v43q0 81 -26 112t-88 31q-78 0 -106 -38q28 -11 28 -45q0 -21 -14 -35.5t-32 -14.5q-19 0 -31.5 13t-12.5 35v4q1 73 43 103.5t123 30.5q66 0 106.5 -20t59.5 -68q60 88 177 88zM567 490q-76 0 -114.5 -59t-39.5 -164q70 -25 139 -25q147 0 147 120
q0 60 -35.5 94t-96.5 34zM104 133q0 -86 85 -86q66 0 108.5 45.5t42.5 123.5v37h-46q-98 0 -144 -27.5t-46 -92.5z" />
    <glyph glyph-name="ccedilla" unicode="&#xe7;" horiz-adv-x="470" 
d="M195 -58l23 55q-92 15 -136.5 83.5t-44.5 177.5q0 132 61.5 209t170.5 77q83 0 124 -40.5t41 -94.5q0 -23 -13 -37.5t-35 -14.5q-21 0 -34.5 14t-13.5 36q0 35 27 49q-33 31 -95 31q-82 0 -121 -62.5t-39 -162.5q0 -210 173 -210q66 0 136 35q12 6 16.5 4.5t4.5 -13.5
v-27q0 -14 -11 -21q-19 -13 -61 -25.5t-94 -12.5h-13l-6 -19q41 6 67 -13t26 -63q0 -91 -111 -91q-28 0 -64 6q-6 1 -6 13v19q0 8 1.5 10t6.5 1q42 -6 59 -6q61 0 61 47q0 38 -45 38q-9 0 -26 -2t-22 -2q-13 0 -7 12z" />
    <glyph glyph-name="egrave" unicode="&#xe8;" horiz-adv-x="475" 
d="M246 544q87 0 133 -44.5t46 -125.5q0 -79 -45 -123.5t-138 -44.5q-71 0 -132 25q4 -97 42 -140t111 -43q61 0 117 25q10 4 19.5 8.5t14 7t6.5 2.5q7 0 7 -10v-28q0 -16 -17 -26q-67 -35 -153 -35q-112 0 -165.5 70.5t-53.5 198.5q0 131 53.5 207t154.5 76zM246 490
q-129 0 -137 -206q62 -25 128 -25q124 0 124 117q0 114 -115 114zM272 685l-6 -13q-5 -11 -23 -3l-131 52q-21 8 -11 22l18 31q7 9 25 -1l123 -68q12 -7 5 -20z" />
    <glyph glyph-name="eacute" unicode="&#xe9;" horiz-adv-x="475" 
d="M246 544q87 0 133 -44.5t46 -125.5q0 -79 -45 -123.5t-138 -44.5q-71 0 -132 25q4 -97 42 -140t111 -43q61 0 117 25q10 4 19.5 8.5t14 7t6.5 2.5q7 0 7 -10v-28q0 -16 -17 -26q-67 -35 -153 -35q-112 0 -165.5 70.5t-53.5 198.5q0 131 53.5 207t154.5 76zM246 490
q-129 0 -137 -206q62 -25 128 -25q124 0 124 117q0 114 -115 114zM205 668l-6 11q-7 11 8 20l121 70q18 10 24 1l20 -31q8 -14 -9 -21l-134 -53q-16 -7 -24 3z" />
    <glyph glyph-name="ecircumflex" unicode="&#xea;" horiz-adv-x="475" 
d="M246 544q87 0 133 -44.5t46 -125.5q0 -79 -45 -123.5t-138 -44.5q-71 0 -132 25q4 -97 42 -140t111 -43q61 0 117 25q10 4 19.5 8.5t14 7t6.5 2.5q7 0 7 -10v-28q0 -16 -17 -26q-67 -35 -153 -35q-112 0 -165.5 70.5t-53.5 198.5q0 131 53.5 207t154.5 76zM246 490
q-129 0 -137 -206q62 -25 128 -25q124 0 124 117q0 114 -115 114zM321 674l-65 70l-63 -70q-12 -13 -25 -13h-28q-11 0 -12.5 5.5t6.5 13.5l91 100q12 14 32 14q19 0 32 -14l92 -100q4 -5 5 -9.5t-2 -7t-10 -2.5h-28q-13 0 -25 13z" />
    <glyph glyph-name="edieresis" unicode="&#xeb;" horiz-adv-x="475" 
d="M246 544q87 0 133 -44.5t46 -125.5q0 -79 -45 -123.5t-138 -44.5q-71 0 -132 25q4 -97 42 -140t111 -43q61 0 117 25q10 4 19.5 8.5t14 7t6.5 2.5q7 0 7 -10v-28q0 -16 -17 -26q-67 -35 -153 -35q-112 0 -165.5 70.5t-53.5 198.5q0 131 53.5 207t154.5 76zM246 490
q-129 0 -137 -206q62 -25 128 -25q124 0 124 117q0 114 -115 114zM139 708q0 23 14 38t33 15t31.5 -13.5t12.5 -36.5q0 -21 -14 -35.5t-33 -14.5q-20 0 -32 12.5t-12 34.5zM286 708q0 23 14.5 38t33.5 15q18 0 31 -13.5t13 -36.5q0 -21 -14.5 -35.5t-33.5 -14.5t-31.5 13
t-12.5 34z" />
    <glyph glyph-name="igrave" unicode="&#xec;" horiz-adv-x="272" 
d="M176 88q0 -21 7.5 -27.5t28.5 -6.5h30q9 0 11.5 -2.5t2.5 -10.5v-26q0 -9 -3 -12t-11 -3h-200q-8 0 -11 3t-3 12v26q0 8 2.5 10.5t11.5 2.5h31q20 0 27 6.5t7 27.5v354q0 22 -10 26t-53 4q-14 0 -14 14v25q0 15 14 16l111 7q12 0 16.5 -6t4.5 -22v-418zM155 685l-6 -13
q-5 -11 -23 -3l-131 52q-21 8 -11 22l18 31q7 9 25 -1l123 -68q12 -7 5 -20z" />
    <glyph glyph-name="iacute" unicode="&#xed;" horiz-adv-x="272" 
d="M177 88q0 -21 7.5 -27.5t27.5 -6.5h31q9 0 11.5 -2.5t2.5 -10.5v-26q0 -9 -3 -12t-11 -3h-200q-15 0 -15 15v26q0 13 15 13h30q21 0 28 6.5t7 27.5v354q0 22 -10 26t-54 4q-13 0 -13 14v25q0 15 14 16l111 7q12 0 16.5 -6t4.5 -22v-418zM106 668l-6 11q-7 11 8 20l121 70
q18 10 24 1l20 -31q8 -14 -9 -21l-134 -53q-16 -7 -24 3z" />
    <glyph glyph-name="icircumflex" unicode="&#xee;" horiz-adv-x="272" 
d="M177 88q0 -21 7.5 -27.5t27.5 -6.5h31q9 0 11.5 -2.5t2.5 -10.5v-26q0 -9 -3 -12t-11 -3h-200q-15 0 -15 15v26q0 13 15 13h30q21 0 28 6.5t7 27.5v354q0 22 -10 26t-54 4q-13 0 -13 14v25q0 15 14 16l111 7q12 0 16.5 -6t4.5 -22v-418zM206 674l-65 70l-63 -70
q-12 -13 -25 -13h-28q-11 0 -12.5 5.5t6.5 13.5l91 100q12 14 32 14q19 0 32 -14l92 -100q4 -5 5 -9.5t-2 -7t-10 -2.5h-28q-13 0 -25 13z" />
    <glyph glyph-name="idieresis" unicode="&#xef;" horiz-adv-x="272" 
d="M177 88q0 -21 7.5 -27.5t27.5 -6.5h31q9 0 11.5 -2.5t2.5 -10.5v-26q0 -9 -3 -12t-11 -3h-200q-15 0 -15 15v26q0 13 15 13h30q21 0 28 6.5t7 27.5v354q0 22 -10 26t-54 4q-13 0 -13 14v25q0 15 14 16l111 7q12 0 16.5 -6t4.5 -22v-418zM23 708q0 23 14 38t33 15
t31.5 -13.5t12.5 -36.5q0 -21 -14 -35.5t-33 -14.5q-20 0 -32 12.5t-12 34.5zM170 708q0 23 14.5 38t33.5 15q18 0 31 -13.5t13 -36.5q0 -21 -14.5 -35.5t-33.5 -14.5t-31.5 13t-12.5 34z" />
    <glyph glyph-name="eth" unicode="&#xf0;" horiz-adv-x="525" 
d="M483 625l-90 -39q88 -125 88 -297q0 -36 -5.5 -73t-22 -79t-42 -74t-69 -53t-98.5 -21q-102 0 -157.5 69t-55.5 164q0 93 55 161.5t151 67.5q54 -1 105 -33.5t73 -78.5q-10 118 -86 220l-112 -48q-28 -10 -37 17q-6 17 -0.5 24.5t26.5 16.5l84 36q-40 44 -102 95
q-8 5 -8 14q0 8 4 11l21 18q14 8 15 8q5 0 14 -6q79 -61 122 -112l111 48q23 10 34 -19q10 -26 -18 -37zM245 50q73 0 111 51t38 118q0 75 -48 124t-100 49q-66 0 -104 -51.5t-38 -120.5q0 -70 36.5 -120t104.5 -50z" />
    <glyph glyph-name="ntilde" unicode="&#xf1;" horiz-adv-x="562" 
d="M308 483q-66 0 -100 -57t-34 -162v-176q0 -21 7.5 -27.5t28.5 -6.5h30q15 0 15 -13v-26q0 -15 -15 -15h-200q-8 0 -11 3t-3 12v26q0 8 2.5 10.5t11.5 2.5h31q20 0 27.5 6.5t7.5 27.5v354q0 22 -10 26t-54 4q-14 0 -14 14v25q0 15 15 16l110 7q12 0 16.5 -6t4.5 -22v-66
q19 52 60 78t95 26q68 0 108 -44.5t40 -130.5v-276q0 -42 28 -42q5 0 33 5q12 5 12 -8v-27q0 -13 -12 -18q-24 -8 -53 -8q-77 0 -77 88v273q0 127 -100 127zM342 713q26 0 28 33q2 7 8 7h26q9 0 9 -9q0 -81 -69 -81q-39 0 -52 26q-9 16 -18 18q-3 1 -7 1q-24 0 -26 -33
q-1 -8 -10 -8h-25q-9 0 -9 10q0 38 18 59t51 21q16 0 26.5 -5.5t14 -10t9.5 -14.5q9 -14 26 -14z" />
    <glyph glyph-name="ograve" unicode="&#xf2;" horiz-adv-x="505" 
d="M38 266q0 126 52.5 202t162.5 76t162.5 -76t52.5 -202t-52.5 -202.5t-162.5 -76.5t-162.5 76.5t-52.5 202.5zM253 490q-144 0 -144 -224q0 -225 144 -225t144 225q0 224 -144 224zM271 686l-6 -13q-5 -11 -23 -3l-131 52q-21 8 -11 22l18 31q7 9 25 -1l123 -68
q12 -7 5 -20z" />
    <glyph glyph-name="oacute" unicode="&#xf3;" horiz-adv-x="505" 
d="M38 266q0 126 52.5 202t162.5 76t162.5 -76t52.5 -202t-52.5 -202.5t-162.5 -76.5t-162.5 76.5t-52.5 202.5zM253 490q-144 0 -144 -224q0 -225 144 -225t144 225q0 224 -144 224zM220 668l-6 11q-7 11 8 20l121 70q18 10 24 1l20 -31q8 -14 -9 -21l-134 -53
q-16 -7 -24 3z" />
    <glyph glyph-name="ocircumflex" unicode="&#xf4;" horiz-adv-x="505" 
d="M38 266q0 126 52.5 202t162.5 76t162.5 -76t52.5 -202t-52.5 -202.5t-162.5 -76.5t-162.5 76.5t-52.5 202.5zM253 490q-144 0 -144 -224q0 -225 144 -225t144 225q0 224 -144 224zM321 675l-65 70l-63 -70q-12 -13 -25 -13h-28q-11 0 -12.5 6t6.5 13l91 100q12 14 32 14
q19 0 32 -14l92 -100q4 -5 5 -9.5t-2 -7t-10 -2.5h-28q-13 0 -25 13z" />
    <glyph glyph-name="otilde" unicode="&#xf5;" horiz-adv-x="505" 
d="M38 266q0 126 52.5 202t162.5 76t162.5 -76t52.5 -202t-52.5 -202.5t-162.5 -76.5t-162.5 76.5t-52.5 202.5zM253 490q-144 0 -144 -224q0 -225 144 -225t144 225q0 224 -144 224zM296 713q26 0 28 33q2 7 8 7h26q9 0 9 -9q0 -81 -69 -81q-39 0 -52 26q-9 16 -18 18
q-3 1 -7 1q-24 0 -26 -33q-1 -8 -10 -8h-25q-9 0 -9 10q0 38 18 59t51 21q16 0 26.5 -5.5t14 -10t9.5 -14.5q9 -14 26 -14z" />
    <glyph glyph-name="odieresis" unicode="&#xf6;" horiz-adv-x="505" 
d="M38 266q0 126 52.5 202t162.5 76t162.5 -76t52.5 -202t-52.5 -202.5t-162.5 -76.5t-162.5 76.5t-52.5 202.5zM253 490q-144 0 -144 -224q0 -225 144 -225t144 225q0 224 -144 224zM138 708q0 23 14 38t33 15t31.5 -13.5t12.5 -36.5q0 -21 -14 -35.5t-33 -14.5
q-20 0 -32 12.5t-12 34.5zM285 708q0 23 14.5 38t33.5 15q18 0 31 -13.5t13 -36.5q0 -21 -14.5 -35.5t-33.5 -14.5t-31.5 13t-12.5 34z" />
    <glyph glyph-name="divide" unicode="&#xf7;" horiz-adv-x="511" 
d="M447 307h-384q-11 0 -11 11v32q0 11 11 11h385q10 0 10 -11v-32q0 -11 -11 -11zM210 533q0 26 15.5 43t37.5 17q21 0 35.5 -15t14.5 -40t-16 -41.5t-38 -16.5q-21 0 -35 14.5t-14 38.5zM210 123q0 26 15.5 43t37.5 17q21 0 35.5 -15t14.5 -40t-16 -41.5t-38 -16.5
q-21 0 -35 14.5t-14 38.5z" />
    <glyph glyph-name="oslash" unicode="&#xf8;" horiz-adv-x="513" 
d="M96 -67l34 90q-92 68 -92 243q0 126 52.5 202t162.5 76q36 0 71 -10l34 90q3 10 6 13.5t9 2.5l45 -10q11 -2 4 -20l-40 -107q86 -70 86 -237q0 -126 -52.5 -202.5t-162.5 -76.5q-33 0 -63 8l-30 -79q-3 -7 -4 -9t-4 -4t-7 0l-44 10q-11 3 -5 20zM253 490
q-144 0 -144 -224q0 -125 45 -181l150 396q-22 9 -51 9zM397 266q0 115 -40 172l-148 -391q19 -6 44 -6q144 0 144 225z" />
    <glyph glyph-name="ugrave" unicode="&#xf9;" horiz-adv-x="550" 
d="M251 49q68 0 104 50.5t36 140.5v202q0 22 -10 26t-53 4q-14 0 -14 14v25q0 15 14 16l111 7q21 0 21 -28v-413q0 -42 28 -42q7 0 32 5q7 3 10 1.5t3 -9.5v-27q0 -13 -12 -18q-24 -8 -53 -8q-69 0 -77 70q-49 -75 -156 -75q-75 0 -112 42.5t-37 140.5v269q0 22 -10 26
t-54 4q-13 0 -13 14v25q0 15 14 16l110 7q12 0 16.5 -6t4.5 -22v-336q0 -121 97 -121zM263 685l-6 -13q-5 -11 -23 -3l-131 52q-21 8 -11 22l18 31q7 9 25 -1l123 -68q12 -7 5 -20z" />
    <glyph glyph-name="uacute" unicode="&#xfa;" horiz-adv-x="550" 
d="M251 49q68 0 104 50.5t36 140.5v202q0 22 -10 26t-53 4q-14 0 -14 14v25q0 15 14 16l111 7q21 0 21 -28v-413q0 -42 28 -42q7 0 32 5q7 3 10 1.5t3 -9.5v-27q0 -13 -12 -18q-24 -8 -53 -8q-69 0 -77 70q-49 -75 -156 -75q-75 0 -112 42.5t-37 140.5v269q0 22 -10 26
t-54 4q-13 0 -13 14v25q0 15 14 16l110 7q12 0 16.5 -6t4.5 -22v-336q0 -121 97 -121zM213 668l-6 11q-7 11 8 20l121 70q18 10 24 1l20 -31q8 -14 -9 -21l-134 -53q-16 -7 -24 3z" />
    <glyph glyph-name="ucircumflex" unicode="&#xfb;" horiz-adv-x="550" 
d="M251 49q68 0 104 50.5t36 140.5v202q0 22 -10 26t-53 4q-14 0 -14 14v25q0 15 14 16l111 7q21 0 21 -28v-413q0 -42 28 -42q7 0 32 5q7 3 10 1.5t3 -9.5v-27q0 -13 -12 -18q-24 -8 -53 -8q-69 0 -77 70q-49 -75 -156 -75q-75 0 -112 42.5t-37 140.5v269q0 22 -10 26
t-54 4q-13 0 -13 14v25q0 15 14 16l110 7q12 0 16.5 -6t4.5 -22v-336q0 -121 97 -121zM313 674l-65 70l-63 -70q-12 -13 -25 -13h-28q-11 0 -12.5 5.5t6.5 13.5l91 100q12 14 32 14q19 0 32 -14l92 -100q4 -5 5 -9.5t-2 -7t-10 -2.5h-28q-13 0 -25 13z" />
    <glyph glyph-name="udieresis" unicode="&#xfc;" horiz-adv-x="550" 
d="M251 49q68 0 104 50.5t36 140.5v202q0 22 -10 26t-53 4q-14 0 -14 14v25q0 15 14 16l111 7q21 0 21 -28v-413q0 -42 28 -42q7 0 32 5q7 3 10 1.5t3 -9.5v-27q0 -13 -12 -18q-24 -8 -53 -8q-69 0 -77 70q-49 -75 -156 -75q-75 0 -112 42.5t-37 140.5v269q0 22 -10 26
t-54 4q-13 0 -13 14v25q0 15 14 16l110 7q12 0 16.5 -6t4.5 -22v-336q0 -121 97 -121zM130 708q0 23 14 38t33 15t31.5 -13.5t12.5 -36.5q0 -21 -14 -35.5t-33 -14.5q-20 0 -32 12.5t-12 34.5zM277 708q0 23 14.5 38t33.5 15q18 0 31 -13.5t13 -36.5q0 -21 -14.5 -35.5
t-33.5 -14.5t-31.5 13t-12.5 34z" />
    <glyph glyph-name="yacute" unicode="&#xfd;" horiz-adv-x="548" 
d="M162 438l116 -371l118 370q7 23 2 29t-29 6h-18q-14 0 -14 14v25q0 10 3 12.5t12 2.5h175q9 0 11.5 -3t2.5 -12v-22q0 -16 -14 -16h-24q-20 0 -27 -6.5t-17 -33.5l-176 -540q-27 -79 -63 -110.5t-89 -31.5q-40 0 -68.5 21t-32.5 57q-1 4 -1 12q0 21 13.5 35.5t31.5 14.5
t31.5 -13t13.5 -35q0 -27 -23 -43q16 -7 32 -7q32 0 55 24t43 86l22 71l-159 460q-11 26 -17.5 32t-26.5 6h-22q-14 0 -14 15v25q0 9 3 11.5t11 2.5h189q8 0 11 -3t3 -12v-23q0 -15 -14 -15h-29q-22 0 -25.5 -6.5t4.5 -28.5zM244 668l-6 11q-7 11 8 20l121 70q18 10 24 1
l20 -31q8 -14 -9 -21l-134 -53q-16 -7 -24 3z" />
    <glyph glyph-name="thorn" unicode="&#xfe;" horiz-adv-x="525" 
d="M142 722v-293q46 114 165 114q177 0 177 -267q0 -143 -53 -216t-155 -73q-72 0 -134 36v-162q0 -19 -18 -20h-35q-16 0 -16 19v861q0 20 17 21h36q16 0 16 -20zM292 486q-132 0 -150 -216v-182q50 -44 126 -44q145 0 145 231q0 211 -121 211z" />
    <glyph glyph-name="ydieresis" unicode="&#xff;" horiz-adv-x="548" 
d="M162 438l116 -371l118 370q7 23 2 29t-29 6h-18q-14 0 -14 14v25q0 10 3 12.5t12 2.5h175q9 0 11.5 -3t2.5 -12v-22q0 -16 -14 -16h-24q-20 0 -27 -6.5t-17 -33.5l-176 -540q-27 -79 -63 -110.5t-89 -31.5q-40 0 -68.5 21t-32.5 57q-1 4 -1 12q0 21 13.5 35.5t31.5 14.5
t31.5 -13t13.5 -35q0 -27 -23 -43q16 -7 32 -7q32 0 55 24t43 86l22 71l-159 460q-11 26 -17.5 32t-26.5 6h-22q-14 0 -14 15v25q0 9 3 11.5t11 2.5h189q8 0 11 -3t3 -12v-23q0 -15 -14 -15h-29q-22 0 -25.5 -6.5t4.5 -28.5zM161 708q0 23 14 38t33 15t31.5 -13.5
t12.5 -36.5q0 -21 -14 -35.5t-33 -14.5q-20 0 -32 12.5t-12 34.5zM308 708q0 23 14.5 38t33.5 15q18 0 31 -13.5t13 -36.5q0 -21 -14.5 -35.5t-33.5 -14.5t-31.5 13t-12.5 34z" />
    <glyph glyph-name="Amacron" unicode="&#x100;" horiz-adv-x="619" 
d="M465 100l-42 143h-241l-43 -149q-6 -25 -0.5 -32t27.5 -8l15 -1q12 0 15.5 -3.5t3.5 -13.5v-21q0 -9 -3.5 -12t-14.5 -3h-165q-14 0 -14 15v22q0 17 14 17l30 1q12 0 18 7t15 35l183 616q4 10 7 12.5t16 2.5h49q15 0 20 -14l184 -612q10 -32 17 -39.5t29 -8.5h18
q12 0 15.5 -3t3.5 -13v-23q0 -10 -3 -12.5t-14 -2.5h-181q-11 0 -14 2.5t-3 12.5v22q0 10 3 12.5t16 3.5h15q30 1 30 17q0 10 -6 30zM302 657l-105 -361h210zM420 802h-211q-17 0 -17 35q0 22 17 22h206q16 0 16 -32q0 -25 -11 -25z" />
    <glyph glyph-name="amacron" unicode="&#x101;" 
d="M57 412q1 72 43.5 102t123.5 30q95 0 139.5 -44t44.5 -158v-249q0 -42 28 -42q7 0 32 5q7 3 10 1.5t3 -9.5v-27q0 -13 -12 -18q-24 -8 -53 -8q-73 0 -77 79q-53 -80 -162 -80q-143 0 -143 138q0 93 65 133t194 40h46v43q0 81 -26 112t-88 31q-75 0 -105 -36
q27 -11 27 -44q0 -22 -14 -36t-32 -14q-19 0 -31.5 12.5t-12.5 33.5v5zM103 133q0 -86 85 -86q66 0 108.5 45.5t42.5 123.5v37h-46q-97 0 -143.5 -28t-46.5 -92zM348 666h-211q-17 0 -17 35q0 22 17 22h206q16 0 16 -32q0 -25 -11 -25z" />
    <glyph glyph-name="Abreve" unicode="&#x102;" horiz-adv-x="619" 
d="M465 100l-42 143h-241l-43 -149q-6 -25 -0.5 -32t27.5 -8l15 -1q12 0 15.5 -3.5t3.5 -13.5v-21q0 -9 -3.5 -12t-14.5 -3h-165q-14 0 -14 15v22q0 17 14 17l30 1q12 0 18 7t15 35l183 616q4 10 7 12.5t16 2.5h49q15 0 20 -14l184 -612q10 -32 17 -39.5t29 -8.5h18
q12 0 15.5 -3t3.5 -13v-23q0 -10 -3 -12.5t-14 -2.5h-181q-11 0 -14 2.5t-3 12.5v22q0 10 3 12.5t16 3.5h15q30 1 30 17q0 10 -6 30zM302 657l-105 -361h210zM308 837q59 0 59 49q0 11 10 11h32q10 0 10 -13q0 -46 -30.5 -72t-80.5 -26q-52 0 -80.5 26t-28.5 73q0 12 10 12
h32q10 0 10 -10q2 -50 57 -50z" />
    <glyph glyph-name="abreve" unicode="&#x103;" 
d="M57 412q1 72 43.5 102t123.5 30q95 0 139.5 -44t44.5 -158v-249q0 -42 28 -42q7 0 32 5q7 3 10 1.5t3 -9.5v-27q0 -13 -12 -18q-24 -8 -53 -8q-73 0 -77 79q-53 -80 -162 -80q-143 0 -143 138q0 93 65 133t194 40h46v43q0 81 -26 112t-88 31q-75 0 -105 -36
q27 -11 27 -44q0 -22 -14 -36t-32 -14q-19 0 -31.5 12.5t-12.5 33.5v5zM103 133q0 -86 85 -86q66 0 108.5 45.5t42.5 123.5v37h-46q-97 0 -143.5 -28t-46.5 -92zM236 702q59 0 59 49q0 11 10 11h32q10 0 10 -13q0 -46 -30.5 -72t-80.5 -26q-52 0 -80.5 26t-28.5 73
q0 12 10 12h32q10 0 10 -10q2 -50 57 -50z" />
    <glyph glyph-name="Aogonek" unicode="&#x104;" horiz-adv-x="619" 
d="M465 100l-42 143h-241l-43 -149q-6 -25 -0.5 -32t27.5 -8l15 -1q12 0 15.5 -3.5t3.5 -13.5v-21q0 -9 -3.5 -12t-14.5 -3h-165q-14 0 -14 15v22q0 17 14 17l30 1q12 0 18 7t15 35l183 616q4 10 7 12.5t16 2.5h49q15 0 20 -14l184 -612q10 -32 17 -39.5t29 -8.5h18
q12 0 15.5 -3t3.5 -13v-23q0 -10 -3 -12.5t-14 -2.5h-77q-52 -39 -52 -91q0 -43 43 -43q23 0 41 11q18 10 22 -3l6 -15q5 -11 -7 -21q-30 -21 -72 -21q-41 0 -66 20t-25 61q0 60 61 102h-55q-11 0 -14 2.5t-3 12.5v22q0 10 3 12.5t16 3.5h15q30 1 30 17q0 10 -6 30zM302 657
l-105 -361h210z" />
    <glyph glyph-name="aogonek" unicode="&#x105;" 
d="M57 412q1 72 43.5 102t123.5 30q95 0 139.5 -44t44.5 -158v-249q0 -42 28 -42q7 0 32 5q7 3 10 1.5t3 -9.5v-27q0 -13 -12 -18q-23 -7 -43 -8q-52 -39 -52 -91q0 -43 43 -43q23 0 41 11q18 10 22 -3l6 -15q5 -11 -7 -21q-30 -21 -72 -21q-41 0 -66 20t-25 61q0 62 68 107
q-42 13 -45 74q-53 -80 -162 -80q-143 0 -143 138q0 93 65 133t194 40h46v43q0 81 -26 112t-88 31q-75 0 -105 -36q27 -11 27 -44q0 -22 -14 -36t-32 -14q-19 0 -31.5 12.5t-12.5 33.5v5zM103 133q0 -86 85 -86q66 0 108.5 45.5t42.5 123.5v37h-46q-97 0 -143.5 -28
t-46.5 -92z" />
    <glyph glyph-name="Cacute" unicode="&#x106;" horiz-adv-x="610" 
d="M114 349q0 -138 61 -219.5t190 -81.5q17 0 32.5 1t29.5 4t25.5 5t24.5 6.5l20 7t19 8.5t15.5 7.5t14 7.5t11.5 6q9 5 14.5 6.5t8.5 -1.5t3 -13v-26q0 -14 -14 -23q-80 -55 -213 -55q-146 0 -231 90.5t-85 269.5q0 171 83 276.5t232 105.5q108 0 163 -52t57 -120v-5
q0 -25 -16 -39.5t-38 -14.5t-36 14.5t-14 38.5q0 21 12 35.5t31 18.5q-44 67 -154 67q-84 0 -141 -46t-81 -117t-24 -162zM318 771l-6 11q-7 11 8 20l121 70q18 10 24 1l20 -31q8 -14 -9 -21l-134 -53q-16 -7 -24 3z" />
    <glyph glyph-name="cacute" unicode="&#x107;" horiz-adv-x="471" 
d="M110 262q0 -210 173 -210q66 0 136 35q12 6 16.5 4.5t4.5 -13.5v-27q0 -14 -11 -21q-19 -13 -61 -25.5t-94 -12.5q-120 0 -178.5 70.5t-58.5 195.5q0 132 61.5 209t170.5 77q83 0 124 -40.5t41 -94.5q0 -23 -13 -37.5t-35 -14.5q-21 0 -34.5 14t-13.5 36q0 35 27 49
q-33 31 -95 31q-82 0 -121 -62.5t-39 -162.5zM235 668l-6 11q-7 11 8 20l121 70q18 10 24 1l20 -31q8 -14 -9 -21l-134 -53q-16 -7 -24 3z" />
    <glyph glyph-name="Ccircumflex" unicode="&#x108;" horiz-adv-x="610" 
d="M114 349q0 -138 61 -219.5t190 -81.5q17 0 32.5 1t29.5 4t25.5 5t24.5 6.5l20 7t19 8.5t15.5 7.5t14 7.5t11.5 6q9 5 14.5 6.5t8.5 -1.5t3 -13v-26q0 -14 -14 -23q-80 -55 -213 -55q-146 0 -231 90.5t-85 269.5q0 171 83 276.5t232 105.5q108 0 163 -52t57 -120v-5
q0 -25 -16 -39.5t-38 -14.5t-36 14.5t-14 38.5q0 21 12 35.5t31 18.5q-44 67 -154 67q-84 0 -141 -46t-81 -117t-24 -162zM419 778l-65 70l-63 -70q-12 -13 -25 -13h-28q-11 0 -12.5 5.5t6.5 13.5l91 100q12 14 32 14q19 0 32 -14l92 -100q4 -5 5 -9.5t-2 -7t-10 -2.5h-28
q-13 0 -25 13z" />
    <glyph glyph-name="ccircumflex" unicode="&#x109;" horiz-adv-x="471" 
d="M110 262q0 -210 173 -210q66 0 136 35q12 6 16.5 4.5t4.5 -13.5v-27q0 -14 -11 -21q-19 -13 -61 -25.5t-94 -12.5q-120 0 -178.5 70.5t-58.5 195.5q0 132 61.5 209t170.5 77q83 0 124 -40.5t41 -94.5q0 -23 -13 -37.5t-35 -14.5q-21 0 -34.5 14t-13.5 36q0 35 27 49
q-33 31 -95 31q-82 0 -121 -62.5t-39 -162.5zM335 674l-65 70l-63 -70q-12 -13 -25 -13h-28q-11 0 -12.5 5.5t6.5 13.5l91 100q12 14 32 14q19 0 32 -14l92 -100q4 -5 5 -9.5t-2 -7t-10 -2.5h-28q-13 0 -25 13z" />
    <glyph glyph-name="Cdotaccent" unicode="&#x10a;" horiz-adv-x="610" 
d="M114 349q0 -138 61 -219.5t190 -81.5q17 0 32.5 1t29.5 4t25.5 5t24.5 6.5l20 7t19 8.5t15.5 7.5t14 7.5t11.5 6q9 5 14.5 6.5t8.5 -1.5t3 -13v-26q0 -14 -14 -23q-80 -55 -213 -55q-146 0 -231 90.5t-85 269.5q0 171 83 276.5t232 105.5q109 0 164.5 -53t55.5 -122v-2
q0 -25 -16 -39.5t-38 -14.5t-36 14.5t-14 38.5q0 21 12 35.5t31 18.5q-44 67 -154 67q-84 0 -141 -46t-81 -117t-24 -162zM303 799q0 26 16 42.5t38 16.5q21 0 35.5 -15t14.5 -40t-16.5 -41t-38.5 -16q-21 0 -35 14.5t-14 38.5z" />
    <glyph glyph-name="cdotaccent" unicode="&#x10b;" horiz-adv-x="471" 
d="M220 722q0 25 16 42t37 17t35.5 -15t14.5 -40t-16 -41t-38 -16q-21 0 -35 14.5t-14 38.5zM110 262q0 -210 173 -210q66 0 136 35q12 6 16.5 4.5t4.5 -13.5v-27q0 -14 -11 -21q-19 -13 -61 -25.5t-94 -12.5q-120 0 -178.5 70.5t-58.5 195.5q0 132 61.5 209t170.5 77
q83 0 124 -40.5t41 -94.5q0 -23 -13 -37.5t-35 -14.5q-21 0 -34.5 14t-13.5 36q0 35 27 49q-33 31 -95 31q-82 0 -121 -62.5t-39 -162.5z" />
    <glyph glyph-name="Ccaron" unicode="&#x10c;" horiz-adv-x="610" 
d="M114 349q0 -138 61 -219.5t190 -81.5q17 0 32.5 1t29.5 4t25.5 5t24.5 6.5l20 7t19 8.5t15.5 7.5t14 7.5t11.5 6q9 5 14.5 6.5t8.5 -1.5t3 -13v-26q0 -14 -14 -23q-80 -55 -213 -55q-146 0 -231 90.5t-85 269.5q0 171 83 276.5t232 105.5q108 0 163 -52t57 -120v-5
q0 -25 -16 -39.5t-38 -14.5t-36 14.5t-14 38.5q0 21 12 35.5t31 18.5q-44 67 -154 67q-84 0 -141 -46t-81 -117t-24 -162zM290 881l64 -71l64 71q13 13 25 13h28q10 0 11.5 -6t-6.5 -13l-91 -100q-12 -14 -31 -14t-32 14l-91 100q-8 7 -6.5 13t11.5 6h28q13 0 26 -13z" />
    <glyph glyph-name="ccaron" unicode="&#x10d;" horiz-adv-x="471" 
d="M110 262q0 -210 173 -210q66 0 136 35q12 6 16.5 4.5t4.5 -13.5v-27q0 -14 -11 -21q-19 -13 -61 -25.5t-94 -12.5q-120 0 -178.5 70.5t-58.5 195.5q0 132 61.5 209t170.5 77q83 0 124 -40.5t41 -94.5q0 -23 -13 -37.5t-35 -14.5q-21 0 -34.5 14t-13.5 36q0 35 27 49
q-33 31 -95 31q-82 0 -121 -62.5t-39 -162.5zM207 778l64 -71l64 71q13 13 25 13h28q10 0 11.5 -5.5t-6.5 -13.5l-91 -100q-12 -14 -31 -14t-32 14l-91 100q-8 8 -6.5 13.5t11.5 5.5h28q13 0 26 -13z" />
    <glyph glyph-name="Dcaron" unicode="&#x10e;" horiz-adv-x="651" 
d="M611 360q0 -360 -353 -360h-206q-14 0 -14 15v22q0 17 13 17q40 0 51.5 7t11.5 34v539q0 32 -25 33h-38q-7 0 -10 3t-3 12v25q0 9 3 12t13 3h204q180 0 266.5 -90t86.5 -272zM186 667v-610h71q146 0 213 72.5t67 230.5q0 160 -68 233.5t-214 73.5h-69zM263 874l64 -71
l64 71q13 13 25 13h28q10 0 11.5 -5.5t-6.5 -13.5l-91 -100q-12 -14 -31 -14t-32 14l-91 100q-8 8 -6.5 13.5t11.5 5.5h28q13 0 26 -13z" />
    <glyph glyph-name="dcaron" unicode="&#x10f;" horiz-adv-x="549" 
d="M443 19q0 -19 -11 -19h-40q-10 0 -11 15l-5 72q-50 -100 -160 -100q-83 0 -130.5 65t-47.5 190q0 137 55.5 219t159.5 82q62 0 121 -44v171q0 31 -24 31l-40 1q-13 1 -13 17v20q0 10 2.5 13t10.5 4l112 7q12 1 16.5 -6t4.5 -22v-716zM232 44q126 0 142 216v180
q-42 46 -112 46q-78 0 -115.5 -70t-37.5 -171q0 -88 30 -144.5t93 -56.5zM523 571l-8 178q-1 9 6.5 12.5t30.5 3.5q24 0 31.5 -3.5t6.5 -12.5l-9 -178q0 -16 -29 -16q-17 0 -22.5 3t-6.5 13z" />
    <glyph glyph-name="Dcroat" unicode="&#x110;" horiz-adv-x="652" 
d="M114 357h-62q-16 0 -16 35q0 22 16 22h62v220q0 32 -24 33h-39q-13 0 -13 15v25q0 9 3 12t13 3h205q179 0 265.5 -90t86.5 -272q0 -360 -353 -360h-206q-14 0 -14 15v22q0 17 13 17q40 0 51.5 7t11.5 34v262zM186 667v-253h121q16 0 16 -33q0 -24 -12 -24h-125v-300h71
q146 0 213 72.5t67 230.5q0 160 -68 233.5t-214 73.5h-69z" />
    <glyph glyph-name="dcroat" unicode="&#x111;" horiz-adv-x="516" 
d="M274 680h100v55q0 28 15 28h40q8 1 11 -5.5t3 -22.5v-55h65q9 0 11.5 -3t2.5 -12v-23q0 -10 -3 -13t-11 -3h-65v-607q0 -19 -11 -19h-40q-10 0 -11 15l-5 72q-50 -100 -160 -100q-83 0 -130.5 65t-47.5 190q0 137 55.5 219t159.5 82q62 0 121 -44v127h-100q-8 0 -11 3
t-3 13v23q0 9 2.5 12t11.5 3zM232 44q126 0 142 216v180q-42 46 -112 46q-78 0 -115.5 -70t-37.5 -171q0 -88 30 -144.5t93 -56.5z" />
    <glyph glyph-name="Emacron" unicode="&#x112;" horiz-adv-x="554" 
d="M52 0q-14 0 -14 15v22q0 17 13 17q40 0 51.5 7t11.5 34v539q0 32 -25 33h-38q-7 0 -10 3t-3 12v25q0 9 3 12t13 3h397q26 0 32.5 -7t8.5 -40l6 -99q2 -15 -0.5 -19.5t-13.5 -4.5h-23q-10 0 -14 4t-5 18l-3 47q-3 33 -17.5 40t-62.5 7h-173v-286h115q23 0 24 29l1 38
q1 10 4 13t13 3h20q10 0 13 -3.5t3 -12.5v-188q0 -9 -2.5 -12t-11.5 -3h-22q-16 0 -17 14l-1 39q-1 30 -24 30h-115v-275h215q32 0 41 6.5t13 32.5l8 90q1 14 18 14h24q16 0 13 -16l-12 -157q-1 -16 -6.5 -20t-20.5 -4h-427zM398 802h-211q-17 0 -17 35q0 22 17 22h206
q16 0 16 -32q0 -25 -11 -25z" />
    <glyph glyph-name="emacron" unicode="&#x113;" horiz-adv-x="475" 
d="M246 544q87 0 133 -44.5t46 -125.5q0 -79 -45 -123.5t-138 -44.5q-71 0 -132 25q4 -97 42 -140t111 -43q61 0 117 25q10 4 19.5 8.5t14 7t6.5 2.5q7 0 7 -10v-28q0 -16 -17 -26q-67 -35 -153 -35q-112 0 -165.5 70.5t-53.5 198.5q0 131 53.5 207t154.5 76zM246 490
q-129 0 -137 -206q62 -25 128 -25q124 0 124 117q0 114 -115 114zM369 666h-211q-17 0 -17 35q0 22 17 22h206q16 0 16 -32q0 -25 -11 -25z" />
    <glyph glyph-name="Ebreve" unicode="&#x114;" horiz-adv-x="554" 
d="M52 0q-14 0 -14 15v22q0 17 13 17q40 0 51.5 7t11.5 34v539q0 32 -25 33h-38q-7 0 -10 3t-3 12v25q0 9 3 12t13 3h397q26 0 32.5 -7t8.5 -40l6 -99q2 -15 -0.5 -19.5t-13.5 -4.5h-23q-10 0 -14 4t-5 18l-3 47q-3 33 -17.5 40t-62.5 7h-173v-286h115q23 0 24 29l1 38
q1 10 4 13t13 3h20q10 0 13 -3.5t3 -12.5v-188q0 -9 -2.5 -12t-11.5 -3h-22q-16 0 -17 14l-1 39q-1 30 -24 30h-115v-275h215q32 0 41 6.5t13 32.5l8 90q1 14 18 14h24q16 0 13 -16l-12 -157q-1 -16 -6.5 -20t-20.5 -4h-427zM285 837q59 0 59 49q0 11 10 11h32q10 0 10 -13
q0 -46 -30.5 -72t-80.5 -26q-52 0 -80.5 26t-28.5 73q0 12 10 12h32q10 0 10 -10q2 -50 57 -50z" />
    <glyph glyph-name="ebreve" unicode="&#x115;" horiz-adv-x="475" 
d="M246 544q87 0 133 -44.5t46 -125.5q0 -79 -45 -123.5t-138 -44.5q-71 0 -132 25q4 -97 42 -140t111 -43q61 0 117 25q10 4 19.5 8.5t14 7t6.5 2.5q7 0 7 -10v-28q0 -16 -17 -26q-67 -35 -153 -35q-112 0 -165.5 70.5t-53.5 198.5q0 131 53.5 207t154.5 76zM246 490
q-129 0 -137 -206q62 -25 128 -25q124 0 124 117q0 114 -115 114zM257 702q59 0 59 49q0 11 10 11h32q10 0 10 -13q0 -46 -30.5 -72t-80.5 -26q-52 0 -80.5 26t-28.5 73q0 12 10 12h32q10 0 10 -10q2 -50 57 -50z" />
    <glyph glyph-name="Edotaccent" unicode="&#x116;" horiz-adv-x="553" 
d="M301 329h-116v-275h215q32 0 41.5 6.5t13.5 32.5l7 90q3 14 19 14h23q15 0 14 -16l-12 -157q-1 -16 -6.5 -20t-20.5 -4h-427q-8 0 -11.5 3t-3.5 12v22q0 17 14 17q37 0 49 5.5t13 27.5v547q0 18 -5 25t-19 8h-38q-14 0 -14 15v25q0 9 3.5 12t13.5 3h397q26 0 32.5 -7
t8.5 -40l6 -99q2 -15 -0.5 -19.5t-13.5 -4.5h-23q-10 0 -14 4t-5 18l-4 47q-2 33 -16.5 40t-63.5 7h-173v-286h116q23 0 24 29l1 38q1 10 4 13t13 3h20q10 0 13 -3.5t3 -12.5v-188q0 -15 -14 -15h-22q-10 0 -13 2.5t-4 11.5l-1 39q-1 30 -24 30zM235 831q0 26 15.5 42.5
t37.5 16.5q21 0 35.5 -15t14.5 -40t-16 -41t-38 -16q-21 0 -35 14.5t-14 38.5z" />
    <glyph glyph-name="edotaccent" unicode="&#x117;" horiz-adv-x="475" 
d="M206 721q0 26 15.5 43t37.5 17q21 0 35.5 -15t14.5 -40t-16 -41.5t-38 -16.5q-21 0 -35 14.5t-14 38.5zM246 544q87 0 133 -44.5t46 -125.5q0 -79 -45 -123.5t-138 -44.5q-71 0 -132 25q4 -97 42 -140t111 -43q61 0 117 25q10 4 19.5 8.5t14 7t6.5 2.5q7 0 7 -10v-28
q0 -16 -17 -26q-67 -35 -153 -35q-112 0 -165.5 70.5t-53.5 198.5q0 131 53.5 207t154.5 76zM246 490q-129 0 -137 -206q62 -25 128 -25q124 0 124 117q0 114 -115 114z" />
    <glyph glyph-name="Eogonek" unicode="&#x118;" horiz-adv-x="553" 
d="M52 0q-8 0 -11.5 3t-3.5 12v22q0 17 14 17q40 0 51 7t11 34v539q0 18 -5 25t-19 8h-38q-14 0 -14 15v25q0 9 3.5 12t13.5 3h397q26 0 32.5 -7t8.5 -40l6 -99q2 -15 -0.5 -19.5t-13.5 -4.5h-23q-10 0 -14 4t-5 18l-4 47q-2 33 -16.5 40t-63.5 7h-173v-286h116q23 0 24 29
l1 38q1 10 4 13t13 3h20q10 0 13 -3.5t3 -12.5v-188q0 -15 -14 -15h-22q-10 0 -13 2.5t-4 11.5l-1 39q-1 30 -24 30h-116v-275h215q32 0 41.5 6.5t13.5 32.5l7 90q3 14 19 14h23q15 0 14 -16l-12 -157q-1 -15 -6.5 -19.5t-18.5 -4.5q-58 -38 -58 -95q0 -43 43 -43
q23 0 41 11q18 10 22 -3l6 -15q5 -11 -7 -21q-30 -21 -72 -21q-41 0 -66 20t-25 61q0 63 67 106h-380z" />
    <glyph glyph-name="eogonek" unicode="&#x119;" horiz-adv-x="475" 
d="M246 544q87 0 133 -44.5t46 -125.5q0 -79 -45 -123.5t-138 -44.5q-71 0 -132 25q4 -97 42 -140t111 -43q61 0 117 25q10 4 19.5 8.5t14 7t6.5 2.5q7 0 7 -10v-28q0 -16 -17 -26q-49 -27 -128 -34q-46 -36 -46 -86q0 -43 43 -43q23 0 41 11q18 10 22 -3l6 -15
q5 -11 -7 -21q-30 -21 -72 -21q-41 0 -66 20t-25 61q0 57 55 97q-100 7 -147.5 77t-47.5 191q0 131 53.5 207t154.5 76zM246 490q-129 0 -137 -206q62 -25 128 -25q124 0 124 117q0 114 -115 114z" />
    <glyph glyph-name="Ecaron" unicode="&#x11a;" horiz-adv-x="554" 
d="M52 0q-14 0 -14 15v22q0 17 13 17q40 0 51.5 7t11.5 34v539q0 32 -25 33h-38q-7 0 -10 3t-3 12v25q0 9 3 12t13 3h397q26 0 32.5 -7t8.5 -40l6 -99q2 -15 -0.5 -19.5t-13.5 -4.5h-23q-10 0 -14 4t-5 18l-3 47q-3 33 -17.5 40t-62.5 7h-173v-286h115q23 0 24 29l1 38
q1 10 4 13t13 3h20q10 0 13 -3.5t3 -12.5v-188q0 -9 -2.5 -12t-11.5 -3h-22q-16 0 -17 14l-1 39q-1 30 -24 30h-115v-275h215q32 0 41 6.5t13 32.5l8 90q1 14 18 14h24q16 0 13 -16l-12 -157q-1 -16 -6.5 -20t-20.5 -4h-427zM222 913l64 -71l64 71q13 13 25 13h28
q10 0 11.5 -6t-6.5 -13l-91 -100q-12 -14 -31 -14t-32 14l-91 100q-8 7 -6.5 13t11.5 6h28q13 0 26 -13z" />
    <glyph glyph-name="ecaron" unicode="&#x11b;" horiz-adv-x="475" 
d="M246 544q87 0 133 -44.5t46 -125.5q0 -79 -45 -123.5t-138 -44.5q-71 0 -132 25q4 -97 42 -140t111 -43q61 0 117 25q10 4 19.5 8.5t14 7t6.5 2.5q7 0 7 -10v-28q0 -16 -17 -26q-67 -35 -153 -35q-112 0 -165.5 70.5t-53.5 198.5q0 131 53.5 207t154.5 76zM246 490
q-129 0 -137 -206q62 -25 128 -25q124 0 124 117q0 114 -115 114zM193 778l64 -71l64 71q13 13 25 13h28q10 0 11.5 -5.5t-6.5 -13.5l-91 -100q-12 -14 -31 -14t-32 14l-91 100q-8 8 -6.5 13.5t11.5 5.5h28q13 0 26 -13z" />
    <glyph glyph-name="Gcircumflex" unicode="&#x11c;" horiz-adv-x="633" 
d="M376 299v28q0 16 11 16h179q15 0 15 -16v-310q0 -17 -14 -17h-25q-15 0 -18 14l-3 17q-77 -44 -171 -44q-138 0 -224.5 93t-86.5 273q0 171 83 274.5t231 103.5q109 0 166.5 -49t59.5 -123v-6q-1 -25 -16 -39t-37 -14t-36.5 14.5t-14.5 38.5q0 21 12.5 35.5t30.5 18.5
q-44 68 -161 68q-118 0 -180.5 -91t-62.5 -232q0 -144 64 -224.5t177 -80.5q84 0 158 44v179q0 17 -18 17h-107q-12 0 -12 12zM417 810l-65 70l-63 -70q-12 -13 -25 -13h-28q-11 0 -12.5 5.5t6.5 13.5l91 100q12 14 32 14q19 0 32 -14l92 -100q4 -5 5 -9.5t-2 -7t-10 -2.5
h-28q-13 0 -25 13z" />
    <glyph glyph-name="gcircumflex" unicode="&#x11d;" horiz-adv-x="532" 
d="M216 -193q75 0 117 44t42 135v99q-50 -98 -158 -98q-84 0 -131 65t-47 190q0 137 55.5 219t158.5 82q61 0 122 -44v8q0 16 4.5 22t16.5 6l108 -8q14 -1 14 -14v-27q0 -3 -0.5 -5t-2.5 -3t-2.5 -1.5t-4 -2t-4.5 -1.5h-36q-16 -2 -20.5 -10t-4.5 -30v-435
q0 -126 -60 -186.5t-166 -60.5q-73 0 -122.5 32t-49.5 104q0 21 13.5 35.5t31.5 14.5t31 -13.5t13 -34.5q0 -30 -26 -44q31 -38 108 -38zM232 44q127 0 143 216v180q-44 46 -113 46q-78 0 -115.5 -70t-37.5 -171q0 -87 30 -144t93 -57zM324 674l-65 70l-63 -70
q-12 -13 -25 -13h-28q-11 0 -12.5 5.5t6.5 13.5l91 100q12 14 32 14q19 0 32 -14l92 -100q4 -5 5 -9.5t-2 -7t-10 -2.5h-28q-13 0 -25 13z" />
    <glyph glyph-name="Gbreve" unicode="&#x11e;" horiz-adv-x="633" 
d="M376 299v28q0 16 11 16h179q15 0 15 -16v-310q0 -17 -14 -17h-25q-15 0 -18 14l-3 17q-77 -44 -171 -44q-138 0 -224.5 93t-86.5 273q0 171 83 274.5t231 103.5q109 0 166.5 -49t59.5 -123v-6q-1 -25 -16 -39t-37 -14t-36.5 14.5t-14.5 38.5q0 21 12.5 35.5t30.5 18.5
q-44 68 -161 68q-118 0 -180.5 -91t-62.5 -232q0 -144 64 -224.5t177 -80.5q84 0 158 44v179q0 17 -18 17h-107q-12 0 -12 12zM353 837q59 0 59 49q0 11 10 11h32q10 0 10 -13q0 -46 -30.5 -72t-80.5 -26q-52 0 -80.5 26t-28.5 73q0 12 10 12h32q10 0 10 -10q2 -50 57 -50z
" />
    <glyph glyph-name="gbreve" unicode="&#x11f;" horiz-adv-x="532" 
d="M216 -193q75 0 117 44t42 135v99q-50 -98 -158 -98q-84 0 -131 65t-47 190q0 137 55.5 219t158.5 82q61 0 122 -44v8q0 16 4.5 22t16.5 6l108 -8q14 -1 14 -14v-27q0 -3 -0.5 -5t-2.5 -3t-2.5 -1.5t-4 -2t-4.5 -1.5h-36q-16 -2 -20.5 -10t-4.5 -30v-435
q0 -126 -60 -186.5t-166 -60.5q-73 0 -122.5 32t-49.5 104q0 21 13.5 35.5t31.5 14.5t31 -13.5t13 -34.5q0 -30 -26 -44q31 -38 108 -38zM232 44q127 0 143 216v180q-44 46 -113 46q-78 0 -115.5 -70t-37.5 -171q0 -87 30 -144t93 -57zM259 702q59 0 59 49q0 11 10 11h32
q10 0 10 -13q0 -46 -30.5 -72t-80.5 -26q-52 0 -80.5 26t-28.5 73q0 12 10 12h32q10 0 10 -10q2 -50 57 -50z" />
    <glyph glyph-name="Gdotaccent" unicode="&#x120;" horiz-adv-x="634" 
d="M376 299v28q0 16 11 16h179q16 0 16 -16v-310q0 -17 -14 -17h-26q-15 0 -18 14l-3 17q-75 -44 -171 -44q-138 0 -224 93t-86 273q0 171 82.5 274.5t230.5 103.5q109 0 167 -49t60 -123v-6q-1 -25 -16.5 -39t-37.5 -14q-21 0 -35.5 14.5t-14.5 38.5q0 21 12 35.5t30 18.5
q-44 68 -161 68q-118 0 -180.5 -91t-62.5 -232q0 -144 64 -224.5t177 -80.5q85 0 158 44v179q0 17 -17 17h-108q-12 0 -12 12zM303 831q0 26 15.5 42.5t36.5 16.5t35.5 -15t14.5 -40t-16 -41t-37 -16t-35 14.5t-14 38.5z" />
    <glyph glyph-name="gdotaccent" unicode="&#x121;" horiz-adv-x="532" 
d="M216 -193q75 0 117 44t42 135v99q-50 -98 -158 -98q-84 0 -131 65t-47 190q0 137 55.5 219t158.5 82q61 0 122 -44v8q0 16 4.5 22t16.5 6l108 -8q14 -1 14 -14v-27q0 -3 -0.5 -5t-2.5 -3t-2.5 -1.5t-4 -2t-4.5 -1.5h-36q-16 -2 -20.5 -10t-4.5 -30v-435
q0 -126 -60 -186.5t-166 -60.5q-73 0 -122.5 32t-49.5 104q0 21 13.5 35.5t31.5 14.5t31 -13.5t13 -34.5q0 -30 -26 -44q31 -38 108 -38zM232 44q127 0 143 216v180q-44 46 -113 46q-78 0 -115.5 -70t-37.5 -171q0 -87 30 -144t93 -57zM210 720q0 26 15.5 43t37.5 17
q21 0 35.5 -15.5t14.5 -40.5t-16 -41t-38 -16q-21 0 -35 14.5t-14 38.5z" />
    <glyph glyph-name="Gcommaaccent" unicode="&#x122;" horiz-adv-x="633" 
d="M376 299v28q0 16 11 16h179q15 0 15 -16v-310q0 -17 -14 -17h-25q-15 0 -18 14l-3 17q-77 -44 -171 -44q-138 0 -224.5 93t-86.5 273q0 171 83 274.5t231 103.5q109 0 166.5 -49t59.5 -123v-6q-1 -25 -16 -39t-37 -14t-36.5 14.5t-14.5 38.5q0 21 12.5 35.5t30.5 18.5
q-44 68 -161 68q-118 0 -180.5 -91t-62.5 -232q0 -144 64 -224.5t177 -80.5q84 0 158 44v179q0 17 -18 17h-107q-12 0 -12 12z" />
    <glyph glyph-name="gcommaaccent" unicode="&#x123;" horiz-adv-x="532" 
d="M216 -193q75 0 117 44t42 135v99q-50 -98 -158 -98q-84 0 -131 65t-47 190q0 137 55.5 219t158.5 82q61 0 122 -44v8q0 16 4.5 22t16.5 6l108 -8q14 -1 14 -14v-27q0 -3 -0.5 -5t-2.5 -3t-2.5 -1.5t-4 -2t-4.5 -1.5h-36q-16 -2 -20.5 -10t-4.5 -30v-435
q0 -126 -60 -186.5t-166 -60.5q-73 0 -122.5 32t-49.5 104q0 21 13.5 35.5t31.5 14.5t31 -13.5t13 -34.5q0 -30 -26 -44q31 -38 108 -38zM232 44q127 0 143 216v180q-44 46 -113 46q-78 0 -115.5 -70t-37.5 -171q0 -87 30 -144t93 -57zM390 840q0 26 15 42.5t38 16.5
t36.5 -16t13.5 -46q0 -77 -87 -158q-11 -11 -18 -2l-8 8q-7 8 4 18q40 38 50 84q-19 1 -31.5 15.5t-12.5 37.5z" />
    <glyph glyph-name="Hcircumflex" unicode="&#x124;" horiz-adv-x="681" 
d="M113 627q0 25 -6.5 33t-25.5 8h-30q-9 0 -11.5 2.5t-2.5 12.5v23q0 10 3 13t11 3h195q8 0 11.5 -3t3.5 -13v-23q0 -10 -3 -12.5t-12 -2.5h-30q-19 0 -25 -7.5t-6 -33.5v-241h310v241q0 25 -6.5 33t-25.5 8h-29q-9 0 -12 2.5t-3 12.5v23q0 10 3.5 13t11.5 3h195q8 0 11 -3
t3 -13v-23q0 -10 -2.5 -12.5t-11.5 -2.5h-31q-19 0 -25 -7.5t-6 -33.5v-532q0 -25 7 -33t27 -8h29q9 0 11.5 -2.5t2.5 -10.5v-26q0 -15 -14 -15h-196q-8 0 -11 3t-3 11v26q0 8 2.5 11t11.5 3h28q19 0 26 8t7 33v237h-310v-237q0 -26 7 -33.5t27 -7.5h29q9 0 11 -2.5t2 -10.5
v-26q0 -15 -13 -15h-196q-9 0 -12 3t-3 11v26q0 8 3 11t12 3h27q20 0 27 8t7 33v532zM399 810l-65 70l-63 -70q-12 -13 -25 -13h-28q-11 0 -12.5 5.5t6.5 13.5l91 100q12 14 32 14q19 0 32 -14l92 -100q4 -5 5 -9.5t-2 -7t-10 -2.5h-28q-13 0 -25 13z" />
    <glyph glyph-name="hcircumflex" unicode="&#x125;" horiz-adv-x="549" 
d="M161 440q19 52 59.5 78t94.5 26q68 0 108.5 -44.5t40.5 -130.5v-276q0 -42 28 -42q7 0 32 5q7 3 10 1.5t3 -9.5v-27q0 -13 -12 -18q-24 -8 -53 -8q-77 0 -77 88v273q0 127 -100 127q-64 0 -98 -54.5t-36 -154.5v-186q0 -21 7.5 -27.5t28.5 -6.5h30q9 0 11.5 -2.5
t2.5 -10.5v-26q0 -9 -3 -12t-11 -3h-200q-8 0 -11 3t-3 12v26q0 8 2.5 10.5t11.5 2.5h31q18 0 25.5 5t8.5 21v566q0 17 -5 24t-18 7l-40 1q-9 1 -11.5 4.5t-2.5 12.5v20q0 10 2.5 13t11.5 4l111 7q11 1 15.5 -4.5t5.5 -19.5v-275zM392 620l-65 70l-63 -70q-12 -13 -25 -13
h-28q-11 0 -12.5 5.5t6.5 13.5l91 100q12 14 32 14q19 0 32 -14l92 -100q4 -5 5 -9.5t-2 -7t-10 -2.5h-28q-13 0 -25 13z" />
    <glyph glyph-name="Hbar" unicode="&#x126;" horiz-adv-x="681" 
d="M113 509h-59q-16 0 -16 35q0 22 16 22h59v61q0 25 -6.5 33t-25.5 8h-30q-9 0 -11.5 2.5t-2.5 12.5v23q0 10 3 13t11 3h195q8 0 11.5 -3t3.5 -13v-23q0 -10 -3 -12.5t-12 -2.5h-30q-19 0 -25 -7.5t-6 -33.5v-61l310 -1v62q0 25 -6.5 33t-25.5 8h-29q-9 0 -12 2.5t-3 12.5
v23q0 10 3.5 13t11.5 3h195q8 0 11 -3t3 -13v-23q0 -10 -2.5 -12.5t-11.5 -2.5h-31q-19 0 -25 -7.5t-6 -33.5v-62h58q16 0 16 -32q0 -25 -11 -25h-63v-413q0 -25 7 -33t27 -8h29q9 0 11.5 -2.5t2.5 -10.5v-26q0 -15 -14 -15h-196q-8 0 -11 3t-3 11v26q0 8 2.5 11t11.5 3h28
q19 0 26 8t7 33v237h-310v-237q0 -26 7 -33.5t27 -7.5h29q9 0 11 -2.5t2 -10.5v-26q0 -15 -13 -15h-196q-9 0 -12 3t-3 11v26q0 8 3 11t12 3h27q20 0 27 8t7 33v414zM185 509v-123h310v122z" />
    <glyph glyph-name="hbar" unicode="&#x127;" horiz-adv-x="549" 
d="M161 440q19 52 59.5 78t94.5 26q68 0 108.5 -44.5t40.5 -130.5v-276q0 -42 28 -42q7 0 32 5q7 3 10 1.5t3 -9.5v-27q0 -13 -12 -18q-24 -8 -53 -8q-77 0 -77 88v273q0 127 -100 127q-64 0 -98 -54.5t-36 -154.5v-186q0 -21 7.5 -27.5t28.5 -6.5h30q9 0 11.5 -2.5
t2.5 -10.5v-26q0 -9 -3 -12t-11 -3h-200q-8 0 -11 3t-3 12v26q0 8 2.5 10.5t11.5 2.5h31q18 0 25.5 5t8.5 21v516h-52q-17 0 -17 35q0 22 17 22h52v82q0 28 16 28h39q8 1 11 -5.5t3 -22.5v-82h85q16 0 16 -32q0 -25 -11 -25h-90v-156z" />
    <glyph glyph-name="Itilde" unicode="&#x128;" horiz-adv-x="297" 
d="M185 95q0 -26 7 -33.5t27 -7.5h29q9 0 11 -2.5t2 -10.5v-26q0 -15 -13 -15h-196q-9 0 -12 3t-3 11v26q0 8 3 11t12 3h27q20 0 27 8t7 33v532q0 25 -6.5 33t-25.5 8h-30q-9 0 -11.5 2.5t-2.5 12.5v23q0 10 3 13t11 3h195q8 0 11.5 -3t3.5 -13v-23q0 -10 -3 -12.5t-12 -2.5
h-30q-19 0 -25 -7.5t-6 -33.5v-532zM190 848q26 0 28 33q2 7 8 7h26q9 0 9 -9q0 -81 -69 -81q-39 0 -52 26q-9 16 -18 18q-3 1 -7 1q-24 0 -26 -33q-1 -8 -10 -8h-25q-9 0 -9 10q0 38 18 59t51 21q16 0 26.5 -5.5t14 -10t9.5 -14.5q9 -14 26 -14z" />
    <glyph glyph-name="itilde" unicode="&#x129;" horiz-adv-x="272" 
d="M177 88q0 -21 7.5 -27.5t27.5 -6.5h31q9 0 11.5 -2.5t2.5 -10.5v-26q0 -9 -3 -12t-11 -3h-200q-15 0 -15 15v26q0 13 15 13h30q21 0 28 6.5t7 27.5v354q0 22 -10 26t-54 4q-13 0 -13 14v25q0 15 14 16l111 7q12 0 16.5 -6t4.5 -22v-418zM182 713q26 0 28 33q2 7 8 7h26
q9 0 9 -9q0 -81 -69 -81q-39 0 -52 26q-9 16 -18 18q-3 1 -7 1q-24 0 -26 -33q-1 -8 -10 -8h-25q-9 0 -9 10q0 38 18 59t51 21q16 0 26.5 -5.5t14 -10t9.5 -14.5q9 -14 26 -14z" />
    <glyph glyph-name="Imacron" unicode="&#x12a;" horiz-adv-x="298" 
d="M185 95q0 -26 7 -33.5t27 -7.5h29q9 0 11 -2.5t2 -10.5v-26q0 -15 -13 -15h-196q-9 0 -12 3t-3 11v26q0 8 3 11t12 3h27q20 0 27 8t7 33v532q0 25 -6.5 33t-25.5 8h-30q-9 0 -11.5 2.5t-2.5 12.5v23q0 10 3 13t11 3h195q8 0 11.5 -3t3.5 -13v-23q0 -10 -3 -12.5t-12 -2.5
h-30q-19 0 -25 -7.5t-6 -33.5v-532zM260 802h-211q-17 0 -17 35q0 22 17 22h206q16 0 16 -32q0 -25 -11 -25z" />
    <glyph glyph-name="imacron" unicode="&#x12b;" horiz-adv-x="272" 
d="M177 88q0 -21 7.5 -27.5t27.5 -6.5h31q9 0 11.5 -2.5t2.5 -10.5v-26q0 -9 -3 -12t-11 -3h-200q-15 0 -15 15v26q0 13 15 13h30q21 0 28 6.5t7 27.5v354q0 22 -10 26t-54 4q-13 0 -13 14v25q0 15 14 16l111 7q12 0 16.5 -6t4.5 -22v-418zM253 666h-211q-17 0 -17 35
q0 22 17 22h206q16 0 16 -32q0 -25 -11 -25z" />
    <glyph glyph-name="Ibreve" unicode="&#x12c;" horiz-adv-x="298" 
d="M185 95q0 -26 7 -33.5t27 -7.5h29q9 0 11 -2.5t2 -10.5v-26q0 -15 -13 -15h-196q-9 0 -12 3t-3 11v26q0 8 3 11t12 3h27q20 0 27 8t7 33v532q0 25 -6.5 33t-25.5 8h-30q-9 0 -11.5 2.5t-2.5 12.5v23q0 10 3 13t11 3h195q8 0 11.5 -3t3.5 -13v-23q0 -10 -3 -12.5t-12 -2.5
h-30q-19 0 -25 -7.5t-6 -33.5v-532zM148 837q59 0 59 49q0 11 10 11h32q10 0 10 -13q0 -46 -30.5 -72t-80.5 -26q-52 0 -80.5 26t-28.5 73q0 12 10 12h32q10 0 10 -10q2 -50 57 -50z" />
    <glyph glyph-name="ibreve" unicode="&#x12d;" horiz-adv-x="272" 
d="M177 88q0 -21 7.5 -27.5t27.5 -6.5h31q9 0 11.5 -2.5t2.5 -10.5v-26q0 -9 -3 -12t-11 -3h-200q-15 0 -15 15v26q0 13 15 13h30q21 0 28 6.5t7 27.5v354q0 22 -10 26t-54 4q-13 0 -13 14v25q0 15 14 16l111 7q12 0 16.5 -6t4.5 -22v-418zM141 702q59 0 59 49q0 11 10 11
h32q10 0 10 -13q0 -46 -30.5 -72t-80.5 -26q-52 0 -80.5 26t-28.5 73q0 12 10 12h32q10 0 10 -10q2 -50 57 -50z" />
    <glyph glyph-name="Iogonek" unicode="&#x12e;" horiz-adv-x="298" 
d="M185 95q0 -26 7 -33.5t27 -7.5h29q9 0 11 -2.5t2 -10.5v-26q0 -15 -13 -15h-48q-60 -38 -60 -96q0 -43 43 -43q23 0 41 11q18 10 22 -3l6 -15q5 -11 -7 -21q-30 -21 -72 -21q-41 0 -66 20t-25 61q0 64 69 107h-99q-9 0 -12 3t-3 11v26q0 8 3 11t12 3h27q20 0 27 8t7 33
v532q0 25 -6.5 33t-25.5 8h-30q-9 0 -11.5 2.5t-2.5 12.5v23q0 10 3 13t11 3h195q8 0 11.5 -3t3.5 -13v-23q0 -10 -3 -12.5t-12 -2.5h-30q-19 0 -25 -7.5t-6 -33.5v-532z" />
    <glyph glyph-name="iogonek" unicode="&#x12f;" horiz-adv-x="272" 
d="M108 440q0 31 -24 32h-39q-9 1 -11.5 4.5t-2.5 12.5v20q0 11 2.5 13.5t11.5 3.5l111 7q12 1 16.5 -5.5t4.5 -22.5v-417q0 -21 7.5 -27.5t27.5 -6.5h31q9 0 11.5 -2.5t2.5 -10.5v-26q0 -9 -3 -12t-11 -3h-76q-60 -38 -60 -96q0 -43 43 -43q23 0 41 11q18 10 22 -3l6 -15
q5 -11 -7 -21q-30 -21 -72 -21q-41 0 -66 20t-25 61q0 64 69 107h-75q-15 0 -15 15v26q0 13 15 13h30q21 0 28 6.5t7 27.5v352zM88 702q0 27 15.5 43.5t38.5 16.5q20 0 34 -16t14 -40q0 -25 -16 -40.5t-39 -15.5q-20 0 -33.5 14t-13.5 38z" />
    <glyph glyph-name="Idotaccent" unicode="&#x130;" horiz-adv-x="298" 
d="M185 95q0 -26 7 -33.5t27 -7.5h29q9 0 11 -2.5t2 -10.5v-26q0 -15 -13 -15h-196q-9 0 -12 3t-3 11v26q0 8 3 11t12 3h27q20 0 27 8t7 33v532q0 25 -6.5 33t-25.5 8h-30q-9 0 -11.5 2.5t-2.5 12.5v23q0 10 3 13t11 3h195q8 0 11.5 -3t3.5 -13v-23q0 -10 -3 -12.5t-12 -2.5
h-30q-19 0 -25 -7.5t-6 -33.5v-532zM97 831q0 26 16 42.5t38 16.5q21 0 35.5 -15t14.5 -40t-16 -41t-38 -16q-21 0 -35.5 14.5t-14.5 38.5z" />
    <glyph glyph-name="dotlessi" unicode="&#x131;" horiz-adv-x="272" 
d="M177 88q0 -21 7.5 -27.5t27.5 -6.5h31q9 0 11.5 -2.5t2.5 -10.5v-26q0 -9 -3 -12t-11 -3h-200q-15 0 -15 15v26q0 13 15 13h30q21 0 28 6.5t7 27.5v354q0 22 -10 26t-54 4q-13 0 -13 14v25q0 15 14 16l111 7q12 0 16.5 -6t4.5 -22v-418z" />
    <glyph glyph-name="IJ" unicode="&#x132;" horiz-adv-x="742" 
d="M317 135q0 24 16 39t37 15t35.5 -14.5t14.5 -39.5q0 -22 -11.5 -35.5t-29.5 -16.5q22 -45 83 -45q52 0 78.5 43.5t26.5 113.5v432q0 25 -6 33t-26 8h-30q-9 0 -11.5 3t-2.5 12v23q0 16 14 16h196q8 0 11 -3t3 -13v-23q0 -10 -2.5 -12.5t-11.5 -2.5h-31q-19 0 -25 -7.5
t-6 -33.5v-424q0 -98 -43.5 -155t-128.5 -57q-75 0 -112 39.5t-38 99.5v5zM113 627q0 25 -6.5 33t-25.5 8h-30q-9 0 -11.5 2.5t-2.5 12.5v23q0 10 3 13t11 3h195q8 0 11.5 -3t3.5 -13v-23q0 -10 -3 -12.5t-12 -2.5h-30q-19 0 -25 -7.5t-6 -33.5v-532q0 -26 7 -33.5t27 -7.5
h29q9 0 11 -2.5t2 -10.5v-26q0 -15 -13 -15h-196q-9 0 -12 3t-3 11v26q0 8 3 11t12 3h27q20 0 27 8t7 33v532z" />
    <glyph glyph-name="ij" unicode="&#x133;" horiz-adv-x="509" 
d="M186 -149q0 21 13.5 35.5t32.5 14.5q18 0 31 -13t13 -35q0 -31 -27 -44q15 -11 40 -11q79 0 79 118v526q0 31 -24 32h-40q-14 1 -14 17v20q0 11 2.5 13.5t11.5 3.5l111 7q12 1 17 -5.5t5 -22.5v-578q0 -85 -34.5 -133t-105.5 -48q-50 0 -79 26t-31 65q-1 4 -1 12z
M108 440q0 31 -24 32h-39q-9 1 -11.5 4.5t-2.5 12.5v20q0 11 2.5 13.5t11.5 3.5l111 7q12 1 16.5 -5.5t4.5 -22.5v-417q0 -21 7.5 -27.5t27.5 -6.5h31q9 0 11.5 -2.5t2.5 -10.5v-26q0 -9 -3 -12t-11 -3h-200q-15 0 -15 15v26q0 13 15 13h30q21 0 28 6.5t7 27.5v352zM88 702
q0 27 15.5 43.5t38.5 16.5q20 0 34 -16t14 -40q0 -25 -16 -40.5t-39 -15.5q-20 0 -33.5 14t-13.5 38zM347 678q0 27 15 43.5t38 16.5q20 0 34 -16t14 -40q0 -25 -15.5 -40.5t-38.5 -15.5q-21 0 -34 14t-13 38z" />
    <glyph glyph-name="Jcircumflex" unicode="&#x134;" horiz-adv-x="450" 
d="M24 135q0 24 16 39t37 15t36 -14.5t15 -39.5q0 -22 -12 -35.5t-30 -16.5q22 -45 83 -45q52 0 79 43.5t27 113.5v432q0 25 -6.5 33t-25.5 8h-30q-10 0 -12 2.5t-2 12.5v23q0 10 3 13t11 3h194q9 0 12.5 -3t3.5 -13v-23q0 -10 -3 -12.5t-13 -2.5h-30q-19 0 -25 -7.5
t-6 -33.5v-424q0 -98 -43.5 -155t-127.5 -57q-72 0 -109 36.5t-41 93.5q-1 4 -1 14zM376 810l-65 70l-63 -70q-12 -13 -25 -13h-28q-11 0 -12.5 5.5t6.5 13.5l91 100q12 14 32 14q19 0 32 -14l92 -100q4 -5 5 -9.5t-2 -7t-10 -2.5h-28q-13 0 -25 13z" />
    <glyph glyph-name="jcircumflex" unicode="&#x135;" horiz-adv-x="237" 
d="M-86 -145q0 21 13.5 35.5t31.5 14.5q19 0 32 -13t13 -35q0 -33 -29 -46q16 -13 42 -13q79 0 79 118v526q0 17 -5.5 24t-19.5 8h-39q-9 1 -11.5 4.5t-2.5 12.5v20q0 11 2.5 13.5t11.5 3.5l111 7q12 1 16.5 -5.5t4.5 -22.5v-578q0 -86 -34 -133.5t-105 -47.5
q-51 0 -80 27.5t-30 67.5q-1 4 -1 12zM159 675l-65 70l-63 -70q-12 -13 -25 -13h-28q-11 0 -12.5 6t6.5 13l91 100q12 14 32 14q19 0 32 -14l92 -100q4 -5 5 -9.5t-2 -7t-10 -2.5h-28q-13 0 -25 13z" />
    <glyph glyph-name="Kcommaaccent" unicode="&#x136;" horiz-adv-x="625" 
d="M113 627q0 25 -6.5 33t-25.5 8h-30q-9 0 -11.5 2.5t-2.5 12.5v23q0 10 3 13t11 3h195q8 0 11.5 -3t3.5 -13v-23q0 -10 -3 -12.5t-12 -2.5h-30q-19 0 -25 -7.5t-6 -33.5v-278l238 290q25 29 0 29h-25q-14 0 -14 21v17q0 10 3 13t11 3h184q8 0 11 -3t3 -13v-21
q0 -17 -14 -17h-39q-25 0 -61 -41l-172 -206h2q94 0 152 -131q20 -48 63 -197q7 -26 17 -35.5t27 -9.5q13 0 35 14q7 4 11 1t4 -11v-25q0 -15 -16 -25q-23 -13 -50 -13q-21 0 -35 4t-31.5 22.5t-29.5 53.5q-6 20 -19.5 70t-24.5 83.5t-29.5 72t-44 59t-58.5 20.5h-12
l-86 -104v-175q0 -26 7 -33.5t27 -7.5h29q9 0 11 -2.5t2 -10.5v-26q0 -15 -13 -15h-196q-9 0 -12 3t-3 11v26q0 8 3 11t12 3h27q20 0 27 8t7 33v532z" />
    <glyph glyph-name="kcommaaccent" unicode="&#x137;" horiz-adv-x="519" 
d="M389 433l-163 -154l156 -160q35 -40 50 -52.5t32 -12.5h31q13 -1 13 -18v-21q0 -9 -3 -12t-12 -3h-195q-8 0 -10.5 3t-2.5 12v20q0 17 13 18h25q14 0 14 6t-20 29l-156 160v-160q0 -21 7.5 -27.5t28.5 -6.5h30q9 0 11.5 -2.5t2.5 -10.5v-26q0 -9 -3 -12t-11 -3h-200
q-8 0 -11 3t-3 12v26q0 8 2.5 10.5t11.5 2.5h31q20 0 27 6.5t7 27.5v582q0 17 -5 24t-18 7l-40 1q-9 1 -11.5 4.5t-2.5 12.5v20q0 10 2.5 13t11.5 4l111 7q12 1 16.5 -5.5t4.5 -22.5v-456l166 162q29 29 -6 29h-28q-16 0 -16 18v20q0 9 4 12.5t15 3.5h182q13 0 17 -3t4 -13
v-21q0 -17 -17 -17h-27q-29 0 -66 -37zM223 -135q0 23 14 38.5t33 15.5q18 0 31 -15t13 -41q0 -71 -79 -146q-10 -8 -15 -2l-8 8q-7 8 3 17q37 36 47 77q-17 2 -28 14.5t-11 33.5z" />
    <glyph glyph-name="Lacute" unicode="&#x139;" horiz-adv-x="529" 
d="M186 54h199q32 0 41.5 6.5t13.5 32.5l7 90q3 14 20 14h22q15 0 14 -16l-12 -157q-1 -16 -6.5 -20t-19.5 -4h-413q-14 0 -14 15v22q0 17 13 17q40 0 51.5 7t11.5 34v532q0 25 -6.5 33t-25.5 8h-30q-9 0 -11.5 2.5t-2.5 12.5v23q0 10 3 13t11 3h195q9 0 12 -3t3 -13v-23
q0 -10 -3 -12.5t-12 -2.5h-30q-18 0 -24 -6t-7 -26v-582zM109 803l-6 11q-7 11 8 20l121 70q18 10 24 1l20 -31q8 -14 -9 -21l-134 -53q-16 -7 -24 3z" />
    <glyph glyph-name="lacute" unicode="&#x13a;" horiz-adv-x="260" 
d="M164 88q0 -21 7.5 -27.5t28.5 -6.5h30q9 0 11.5 -2.5t2.5 -10.5v-26q0 -9 -3 -12t-11 -3h-200q-8 0 -11 3t-3 12v26q0 8 2.5 10.5t11.5 2.5h31q20 0 27 6.5t7 27.5v582q0 17 -5 24t-18 7l-40 1q-9 1 -11.5 4.5t-2.5 12.5v20q0 10 2.5 13t11.5 4l111 7q12 1 16.5 -5.5
t4.5 -22.5v-647zM67 794l-6 11q-7 11 8 20l121 70q18 10 24 1l20 -31q8 -14 -9 -21l-134 -53q-16 -7 -24 3z" />
    <glyph glyph-name="Lcommaaccent" unicode="&#x13b;" horiz-adv-x="529" 
d="M186 54h199q32 0 41.5 6.5t13.5 32.5l7 90q3 14 20 14h22q15 0 14 -16l-12 -157q-1 -16 -6.5 -20t-19.5 -4h-413q-14 0 -14 15v22q0 17 13 17q40 0 51.5 7t11.5 34v532q0 25 -6.5 33t-25.5 8h-30q-9 0 -11.5 2.5t-2.5 12.5v23q0 10 3 13t11 3h195q9 0 12 -3t3 -13v-23
q0 -10 -3 -12.5t-12 -2.5h-30q-18 0 -24 -6t-7 -26v-582zM250 -135q0 23 14 38.5t33 15.5q18 0 31 -15t13 -41q0 -71 -79 -146q-10 -8 -15 -2l-8 8q-7 8 3 17q37 36 47 77q-17 2 -28 14.5t-11 33.5z" />
    <glyph glyph-name="lcommaaccent" unicode="&#x13c;" horiz-adv-x="260" 
d="M164 88q0 -21 7.5 -27.5t28.5 -6.5h30q9 0 11.5 -2.5t2.5 -10.5v-26q0 -9 -3 -12t-11 -3h-200q-8 0 -11 3t-3 12v26q0 8 2.5 10.5t11.5 2.5h31q20 0 27 6.5t7 27.5v582q0 17 -5 24t-18 7l-40 1q-9 1 -11.5 4.5t-2.5 12.5v20q0 10 2.5 13t11.5 4l111 7q12 1 16.5 -5.5
t4.5 -22.5v-647zM97 -120q0 23 14 38.5t33 15.5q18 0 31 -15t13 -41q0 -71 -79 -146q-10 -8 -15 -2l-8 8q-7 8 3 17q37 36 47 77q-17 2 -28 14.5t-11 33.5z" />
    <glyph glyph-name="Lcaron" unicode="&#x13d;" horiz-adv-x="529" 
d="M52 0q-14 0 -14 15v22q0 17 13 17q38 0 50 5.5t13 27.5v540q0 25 -6.5 33t-25.5 8h-30q-9 0 -11.5 2.5t-2.5 12.5v23q0 10 3 13t11 3h195q9 0 12 -3t3 -13v-23q0 -10 -3 -12.5t-12 -2.5h-30q-19 0 -25 -7.5t-6 -33.5v-573h199q32 0 41.5 6.5t13.5 32.5l7 90q3 14 20 14
h22q15 0 14 -16l-12 -157q-1 -16 -6.5 -20t-19.5 -4h-413zM385 527l-9 179q0 9 7.5 12.5t30.5 3.5t30.5 -3.5t6.5 -12.5l-9 -179q0 -15 -28 -15q-17 0 -23 3t-6 12z" />
    <glyph glyph-name="lcaron" unicode="&#x13e;" horiz-adv-x="277" 
d="M164 88q0 -21 7.5 -27.5t28.5 -6.5h30q9 0 11.5 -2.5t2.5 -10.5v-26q0 -9 -3 -12t-11 -3h-200q-8 0 -11 3t-3 12v26q0 8 2.5 10.5t11.5 2.5h31q20 0 27 6.5t7 27.5v582q0 17 -5 24t-18 7l-40 1q-9 1 -11.5 4.5t-2.5 12.5v20q0 10 2.5 13t11.5 4l111 7q12 1 16.5 -5.5
t4.5 -22.5v-647zM208 706q0 26 15 42.5t38 16.5t36.5 -16t13.5 -46q0 -77 -87 -158q-11 -11 -18 -2l-8 8q-7 8 4 18q40 38 50 84q-19 1 -31.5 15.5t-12.5 37.5z" />
    <glyph glyph-name="Ldot" unicode="&#x13f;" horiz-adv-x="529" 
d="M52 0q-14 0 -14 15v22q0 17 13 17q38 0 50 5.5t13 27.5v549q-1 19 -8.5 25.5t-23.5 6.5h-30q-9 0 -11.5 2.5t-2.5 12.5v23q0 10 3 13t11 3h195q9 0 12 -3t3 -13v-23q0 -10 -3 -12.5t-12 -2.5h-30q-18 0 -24 -6t-7 -26v-582h199q32 0 41.5 6.5t13.5 32.5l7 90q3 14 20 14
h22q15 0 14 -16l-12 -157q-1 -16 -6.5 -20t-19.5 -4h-413zM286 285q0 26 16 43t37 17t35.5 -15t14.5 -40t-16 -41.5t-38 -16.5q-21 0 -35 14.5t-14 38.5z" />
    <glyph glyph-name="ldot" unicode="&#x140;" horiz-adv-x="304" 
d="M95 670q0 17 -5 24t-18 7l-40 1q-9 1 -11.5 4.5t-2.5 12.5v20q0 10 2.5 13t11.5 4l111 7q12 1 16.5 -5.5t4.5 -22.5v-647q0 -21 7.5 -27.5t28.5 -6.5h30q9 0 11.5 -2.5t2.5 -10.5v-26q0 -9 -3 -12t-11 -3h-200q-8 0 -11 3t-3 12v26q0 8 2.5 10.5t11.5 2.5h31q20 0 27 6.5
t7 27.5v582zM229 290q0 26 15.5 42.5t37.5 16.5q21 0 35.5 -15t14.5 -40t-16 -41t-38 -16q-21 0 -35 14.5t-14 38.5z" />
    <glyph glyph-name="Lslash" unicode="&#x141;" horiz-adv-x="530" 
d="M115 256l-55 -52q-10 -6 -15 1l-19 26q-6 9 3 15l86 82v299q0 25 -6.5 33t-25.5 8h-29q-10 0 -12.5 2.5t-2.5 12.5v23q0 10 3 13t12 3h194q9 0 12 -3t3 -13v-23q0 -10 -2.5 -12.5t-12.5 -2.5h-30q-18 0 -24 -6t-7 -26v-240l141 135q9 8 15 -1l18 -26q7 -8 -2 -15
l-172 -164v-271h199q32 0 41.5 6.5t13.5 32.5l8 90q3 14 19 14h23q15 0 14 -16l-12 -157q-1 -16 -6.5 -20t-20.5 -4h-412q-8 0 -11.5 3t-3.5 12v22q0 17 13 17q41 0 52 7t11 34v161z" />
    <glyph glyph-name="lslash" unicode="&#x142;" horiz-adv-x="305" 
d="M109 304l-63 -49q-23 -18 -39 8q-8 16 -5 23.5t21 21.5l86 68v294q0 31 -24 31l-40 1q-13 1 -13 17v20q0 10 2.5 13t10.5 4l112 7q12 1 16.5 -5.5t4.5 -22.5v-305l74 59q21 15 37 -10q14 -23 -9 -40l-102 -81v-265q0 -42 28 -42q7 0 32 5q7 3 10 1.5t3 -9.5v-27
q0 -13 -12 -18q-24 -8 -54 -8q-76 0 -76 88v221z" />
    <glyph glyph-name="Nacute" unicode="&#x143;" horiz-adv-x="693" 
d="M587 8q0 -16 -16 -16h-19q-16 0 -25 13l-354 589v-514q0 -16 8 -21t28 -5h27q9 0 11.5 -2t2.5 -12v-25q0 -9 -3 -12t-11 -3h-185q-9 0 -11.5 3t-2.5 12v24q0 10 2.5 12.5t11.5 2.5h26q20 0 28 5.5t8 20.5v543q-1 27 -12 36t-36 9h-5q-12 0 -16.5 4t-4.5 14v19q0 17 21 17
h95q19 0 27 -15l345 -584v519q0 16 -8 21t-28 5h-27q-9 0 -11.5 2t-2.5 12v24q0 10 3 13t11 3h185q8 0 11 -3t3 -12v-24q0 -10 -2.5 -12.5t-11.5 -2.5h-26q-21 0 -28.5 -5.5t-7.5 -20.5v-634zM300 803l-6 11q-7 11 8 20l121 70q18 10 24 1l20 -31q8 -14 -9 -21l-134 -53
q-16 -7 -24 3z" />
    <glyph glyph-name="nacute" unicode="&#x144;" horiz-adv-x="562" 
d="M308 483q-66 0 -100 -57t-34 -162v-176q0 -21 7.5 -27.5t28.5 -6.5h30q15 0 15 -13v-26q0 -15 -15 -15h-200q-8 0 -11 3t-3 12v26q0 8 2.5 10.5t11.5 2.5h31q20 0 27.5 6.5t7.5 27.5v354q0 22 -10 26t-54 4q-14 0 -14 14v25q0 15 15 16l110 7q12 0 16.5 -6t4.5 -22v-66
q19 52 60 78t95 26q68 0 108 -44.5t40 -130.5v-276q0 -42 28 -42q5 0 33 5q12 5 12 -8v-27q0 -13 -12 -18q-24 -8 -53 -8q-77 0 -77 88v273q0 127 -100 127zM266 668l-6 11q-7 11 8 20l121 70q18 10 24 1l20 -31q8 -14 -9 -21l-134 -53q-16 -7 -24 3z" />
    <glyph glyph-name="Ncommaaccent" unicode="&#x145;" horiz-adv-x="693" 
d="M587 8q0 -16 -16 -16h-19q-16 0 -25 13l-354 589v-514q0 -16 8 -21t28 -5h27q9 0 11.5 -2t2.5 -12v-25q0 -9 -3 -12t-11 -3h-185q-9 0 -11.5 3t-2.5 12v24q0 10 2.5 12.5t11.5 2.5h26q20 0 28 5.5t8 20.5v543q-1 27 -12 36t-36 9h-5q-12 0 -16.5 4t-4.5 14v19q0 17 21 17
h95q19 0 27 -15l345 -584v519q0 16 -8 21t-28 5h-27q-9 0 -11.5 2t-2.5 12v24q0 10 3 13t11 3h185q8 0 11 -3t3 -12v-24q0 -10 -2.5 -12.5t-11.5 -2.5h-26q-21 0 -28.5 -5.5t-7.5 -20.5v-634zM294 -135q0 23 14 38.5t33 15.5q18 0 31 -15t13 -41q0 -71 -79 -146
q-10 -8 -15 -2l-8 8q-7 8 3 17q37 36 47 77q-17 2 -28 14.5t-11 33.5z" />
    <glyph glyph-name="ncommaaccent" unicode="&#x146;" horiz-adv-x="562" 
d="M308 483q-66 0 -100 -57t-34 -162v-176q0 -21 7.5 -27.5t28.5 -6.5h30q15 0 15 -13v-26q0 -15 -15 -15h-200q-8 0 -11 3t-3 12v26q0 8 2.5 10.5t11.5 2.5h31q20 0 27.5 6.5t7.5 27.5v354q0 22 -10 26t-54 4q-14 0 -14 14v25q0 15 15 16l110 7q12 0 16.5 -6t4.5 -22v-66
q19 52 60 78t95 26q68 0 108 -44.5t40 -130.5v-276q0 -42 28 -42q5 0 33 5q12 5 12 -8v-27q0 -13 -12 -18q-24 -8 -53 -8q-77 0 -77 88v273q0 127 -100 127zM265 -135q0 23 14 38.5t33 15.5q18 0 31 -15t13 -41q0 -71 -79 -146q-10 -8 -15 -2l-8 8q-7 8 3 17q37 36 47 77
q-17 2 -28 14.5t-11 33.5z" />
    <glyph glyph-name="Ncaron" unicode="&#x147;" horiz-adv-x="693" 
d="M587 8q0 -16 -16 -16h-19q-16 0 -25 13l-354 589v-514q0 -16 8 -21t28 -5h27q9 0 11.5 -2t2.5 -12v-25q0 -9 -3 -12t-11 -3h-185q-9 0 -11.5 3t-2.5 12v24q0 10 2.5 12.5t11.5 2.5h26q20 0 28 5.5t8 20.5v543q-1 27 -12 36t-36 9h-5q-12 0 -16.5 4t-4.5 14v19q0 17 21 17
h95q19 0 27 -15l345 -584v519q0 16 -8 21t-28 5h-27q-9 0 -11.5 2t-2.5 12v24q0 10 3 13t11 3h185q8 0 11 -3t3 -12v-24q0 -10 -2.5 -12.5t-11.5 -2.5h-26q-21 0 -28.5 -5.5t-7.5 -20.5v-634zM272 913l64 -71l64 71q13 13 25 13h28q10 0 11.5 -6t-6.5 -13l-91 -100
q-12 -14 -31 -14t-32 14l-91 100q-8 7 -6.5 13t11.5 6h28q13 0 26 -13z" />
    <glyph glyph-name="ncaron" unicode="&#x148;" horiz-adv-x="562" 
d="M308 483q-66 0 -100 -57t-34 -162v-176q0 -21 7.5 -27.5t28.5 -6.5h30q15 0 15 -13v-26q0 -15 -15 -15h-200q-8 0 -11 3t-3 12v26q0 8 2.5 10.5t11.5 2.5h31q20 0 27.5 6.5t7.5 27.5v354q0 22 -10 26t-54 4q-14 0 -14 14v25q0 15 15 16l110 7q12 0 16.5 -6t4.5 -22v-66
q19 52 60 78t95 26q68 0 108 -44.5t40 -130.5v-276q0 -42 28 -42q5 0 33 5q12 5 12 -8v-27q0 -13 -12 -18q-24 -8 -53 -8q-77 0 -77 88v273q0 127 -100 127zM238 778l64 -71l64 71q13 13 25 13h28q10 0 11.5 -5.5t-6.5 -13.5l-91 -100q-12 -14 -31 -14t-32 14l-91 100
q-8 8 -6.5 13.5t11.5 5.5h28q13 0 26 -13z" />
    <glyph glyph-name="napostrophe" unicode="&#x149;" horiz-adv-x="562" 
d="M308 483q-66 0 -100 -57t-34 -162v-176q0 -21 7.5 -27.5t28.5 -6.5h30q15 0 15 -13v-26q0 -15 -15 -15h-200q-8 0 -11 3t-3 12v26q0 8 2.5 10.5t11.5 2.5h31q20 0 27.5 6.5t7.5 27.5v354q0 22 -10 26t-54 4q-14 0 -14 14v25q0 15 15 16l110 7q12 0 16.5 -6t4.5 -22v-66
q19 52 60 78t95 26q68 0 108 -44.5t40 -130.5v-276q0 -42 28 -42q5 0 33 5q12 5 12 -8v-27q0 -13 -12 -18q-24 -8 -53 -8q-77 0 -77 88v273q0 127 -100 127zM52 720q0 23 14 38.5t33 15.5q18 0 31 -15t13 -41q0 -71 -79 -146q-10 -8 -15 -2l-8 8q-7 8 3 17q37 36 47 77
q-17 2 -28 14.5t-11 33.5z" />
    <glyph glyph-name="Eng" unicode="&#x14a;" horiz-adv-x="693" 
d="M155 722q19 0 27 -15l345 -584v519q0 16 -8 21t-28 5h-27q-9 0 -11.5 2t-2.5 12v24q0 10 3 13t11 3h185q8 0 11 -3t3 -12v-24q0 -10 -2.5 -12.5t-11.5 -2.5h-26q-21 0 -28.5 -5.5t-7.5 -20.5v-665q0 -98 -43.5 -155.5t-128.5 -57.5q-71 0 -108.5 36.5t-41.5 93.5
q-1 5 -1 14q0 24 16 39.5t38 15.5q21 0 35.5 -14.5t14.5 -39.5q0 -44 -42 -53q22 -45 84 -45q52 0 78.5 43.5t26.5 113.5v57l-342 569v-514q0 -16 8 -21t28 -5h27q9 0 11.5 -2t2.5 -12v-25q0 -9 -3 -12t-11 -3h-185q-9 0 -11.5 3t-2.5 12v24q0 10 2.5 12.5t11.5 2.5h26
q20 0 28 5.5t8 20.5v543q-1 27 -12 36t-36 9h-5q-12 0 -16.5 4t-4.5 14v19q0 17 21 17h95z" />
    <glyph glyph-name="eng" unicode="&#x14b;" horiz-adv-x="543" 
d="M227 -151q0 21 13.5 35t32.5 14q18 0 31 -13t13 -35q0 -30 -26 -44q17 -12 38 -12q79 0 79 131v431q0 127 -100 127q-66 0 -100 -57t-34 -162v-176q0 -21 7.5 -27.5t28.5 -6.5h30q15 0 15 -13v-26q0 -15 -15 -15h-200q-8 0 -11 3t-3 12v26q0 8 2.5 10.5t11.5 2.5h31
q20 0 27.5 6.5t7.5 27.5v354q0 22 -10 26t-54 4q-14 0 -14 14v25q0 15 15 16l110 7q12 0 16.5 -6t4.5 -22v-66q19 52 60 78t95 26q68 0 108 -44.5t40 -130.5v-428q0 -89 -34.5 -139.5t-105.5 -50.5q-50 0 -79 26t-31 65v7z" />
    <glyph glyph-name="Omacron" unicode="&#x14c;" horiz-adv-x="704" 
d="M39 357q0 55 9 105.5t31.5 101t56.5 87t89.5 59.5t125.5 23q84 0 146.5 -31t98 -85t52 -117.5t16.5 -136.5q0 -55 -8.5 -105.5t-31 -101t-57 -87t-90 -59.5t-125.5 -23q-84 0 -146.5 31t-98 85t-52 117.5t-16.5 136.5zM350 677q-53 0 -95 -19.5t-68 -50.5t-43 -73.5
t-23.5 -84.5t-6.5 -88q0 -45 6.5 -87t23.5 -85t43 -74.5t69 -51.5t98 -20t97.5 20t68 51.5t42 75t22.5 84t6 84.5q0 56 -11 108t-36.5 101.5t-75 79.5t-117.5 30zM462 802h-211q-17 0 -17 35q0 22 17 22h206q16 0 16 -32q0 -25 -11 -25z" />
    <glyph glyph-name="omacron" unicode="&#x14d;" horiz-adv-x="505" 
d="M38 266q0 126 52.5 202t162.5 76t162.5 -76t52.5 -202t-52.5 -202.5t-162.5 -76.5t-162.5 76.5t-52.5 202.5zM253 490q-144 0 -144 -224q0 -225 144 -225t144 225q0 224 -144 224zM368 667h-211q-17 0 -17 35q0 22 17 22h206q16 0 16 -32q0 -25 -11 -25z" />
    <glyph glyph-name="Obreve" unicode="&#x14e;" horiz-adv-x="704" 
d="M39 357q0 55 9 105.5t31.5 101t56.5 87t89.5 59.5t125.5 23q84 0 146.5 -31t98 -85t52 -117.5t16.5 -136.5q0 -55 -8.5 -105.5t-31 -101t-57 -87t-90 -59.5t-125.5 -23q-84 0 -146.5 31t-98 85t-52 117.5t-16.5 136.5zM350 677q-53 0 -95 -19.5t-68 -50.5t-43 -73.5
t-23.5 -84.5t-6.5 -88q0 -45 6.5 -87t23.5 -85t43 -74.5t69 -51.5t98 -20t97.5 20t68 51.5t42 75t22.5 84t6 84.5q0 56 -11 108t-36.5 101.5t-75 79.5t-117.5 30zM349 837q59 0 59 49q0 11 10 11h32q10 0 10 -13q0 -46 -30.5 -72t-80.5 -26q-52 0 -80.5 26t-28.5 73
q0 12 10 12h32q10 0 10 -10q2 -50 57 -50z" />
    <glyph glyph-name="obreve" unicode="&#x14f;" horiz-adv-x="505" 
d="M38 266q0 126 52.5 202t162.5 76t162.5 -76t52.5 -202t-52.5 -202.5t-162.5 -76.5t-162.5 76.5t-52.5 202.5zM253 490q-144 0 -144 -224q0 -225 144 -225t144 225q0 224 -144 224zM256 702q59 0 59 49q0 11 10 11h32q10 0 10 -13q0 -46 -30.5 -72t-80.5 -26
q-52 0 -80.5 26t-28.5 73q0 12 10 12h32q10 0 10 -10q2 -50 57 -50z" />
    <glyph glyph-name="Ohungarumlaut" unicode="&#x150;" horiz-adv-x="704" 
d="M39 357q0 55 9 105.5t31.5 101t56.5 87t89.5 59.5t125.5 23q84 0 146.5 -31t98 -85t52 -117.5t16.5 -136.5q0 -55 -8.5 -105.5t-31 -101t-57 -87t-90 -59.5t-125.5 -23q-84 0 -146.5 31t-98 85t-52 117.5t-16.5 136.5zM350 677q-53 0 -95 -19.5t-68 -50.5t-43 -73.5
t-23.5 -84.5t-6.5 -88q0 -45 6.5 -87t23.5 -85t43 -74.5t69 -51.5t98 -20t97.5 20t68 51.5t42 75t22.5 84t6 84.5q0 56 -11 108t-36.5 101.5t-75 79.5t-117.5 30zM272 803l-11 10q-9 7 3 18l106 89q15 11 25 4l28 -23q7 -6 5.5 -10.5t-12.5 -11.5l-120 -75q-16 -8 -24 -1z
M402 803l-10 10q-8 8 3 17l105 90q15 11 24 4l28 -22q7 -6 6.5 -11t-11.5 -11l-121 -76q-16 -10 -24 -1z" />
    <glyph glyph-name="ohungarumlaut" unicode="&#x151;" horiz-adv-x="505" 
d="M38 266q0 126 52.5 202t162.5 76t162.5 -76t52.5 -202t-52.5 -202.5t-162.5 -76.5t-162.5 76.5t-52.5 202.5zM253 490q-144 0 -144 -224q0 -225 144 -225t144 225q0 224 -144 224zM178 668l-11 10q-9 7 3 18l106 89q15 11 25 4l28 -23q7 -6 5.5 -10.5t-12.5 -11.5
l-120 -75q-16 -8 -24 -1zM308 668l-10 10q-8 8 3 17l105 90q15 11 24 4l28 -22q7 -6 6.5 -11t-11.5 -11l-121 -76q-16 -10 -24 -1z" />
    <glyph glyph-name="OE" unicode="&#x152;" horiz-adv-x="1024" 
d="M39 357q0 55 9 105.5t31.5 101t56.5 87t89.5 59.5t125.5 23q162 0 243 -114v87q0 10 3 13t12 3h317q25 0 32 -7t8 -40l6 -99q1 -9 0.5 -14.5t-3.5 -7.5t-10 -2h-24q-11 0 -14 4t-4 18l-3 47q-4 33 -17 40t-65 7h-167v-276h109q24 0 25 29l1 38q1 11 4 13.5t13 2.5h20
q10 0 13 -3.5t3 -12.5v-188q0 -15 -14 -15h-22q-10 0 -13 2.5t-4 11.5l-1 39q-3 30 -25 30h-109v-285h205q32 0 41 6.5t14 32.5l8 90q3 14 19 14h21q15 0 12 -16l-12 -157q-1 -16 -6.5 -20t-19.5 -4h-338q-11 0 -13 2.5t-2 13.5v87q-81 -116 -242 -116q-84 0 -146.5 31
t-98 85t-52 117.5t-16.5 136.5zM350 677q-53 0 -95 -19.5t-68 -50.5t-43 -73.5t-23.5 -84.5t-6.5 -88q0 -45 6.5 -87t23.5 -85t43 -74.5t69 -51.5t98 -20t97.5 20t68 51.5t42 75t22.5 84t6 84.5q0 56 -11 108t-36.5 101.5t-75 79.5t-117.5 30z" />
    <glyph glyph-name="oe" unicode="&#x153;" horiz-adv-x="862" 
d="M38 266q0 126 52.5 202t162.5 76q133 0 185 -116q56 116 193 116q95 0 146.5 -49.5t51.5 -137.5q0 -79 -50.5 -123t-154.5 -44q-80 0 -146 25q15 -171 165 -171q51 0 87 12l19.5 7.5l23.5 9t16 6.5q10 3 10 -9v-28q0 -10 -3 -14t-14 -9q-61 -32 -141 -32q-150 0 -205 112
q-54 -112 -183 -112q-110 0 -162.5 76.5t-52.5 202.5zM253 490q-144 0 -144 -224q0 -225 144 -225t144 225q0 224 -144 224zM631 490q-77 0 -115.5 -59t-39.5 -163q69 -26 139 -26q147 0 147 120q0 60 -35.5 94t-95.5 34z" />
    <glyph glyph-name="Racute" unicode="&#x154;" horiz-adv-x="566" 
d="M245 292h-60v-197q0 -26 7 -33.5t27 -7.5h29q9 0 11 -2.5t2 -10.5v-26q0 -15 -13 -15h-196q-9 0 -12 3t-3 11v26q0 8 3 11t12 3h27q20 0 27 8t7 33v539q0 32 -25 33h-38q-7 0 -10 3t-3 12v25q0 9 3 12t13 3h197q120 0 178.5 -51t58.5 -161q0 -166 -131 -207
q30 -20 53 -67t58 -147q9 -25 18 -33.5t24 -8.5q18 0 38 12q14 9 14 -6v-26q0 -15 -15 -24q-24 -14 -56 -14q-19 0 -32 4t-29.5 22.5t-29.5 53.5q-4 10 -15 43t-18 51t-20.5 46.5t-26.5 43.5t-32.5 27t-41.5 12zM185 346h78q75 0 112 39.5t37 124.5q0 82 -39 120t-117 38
h-71v-322zM235 803l-6 11q-7 11 8 20l121 70q18 10 24 1l20 -31q8 -14 -9 -21l-134 -53q-16 -7 -24 3z" />
    <glyph glyph-name="racute" unicode="&#x155;" horiz-adv-x="428" 
d="M106 442q0 22 -10 26t-54 4q-14 0 -14 14v25q0 15 15 16l110 7q12 0 16.5 -6t4.5 -22v-110q6 23 16 45t27.5 47t45.5 40.5t63 15.5q45 0 68.5 -24t23.5 -64h-3q3 -9 3 -19q0 -23 -14.5 -38t-33.5 -15q-21 0 -34 13.5t-13 36.5q0 33 28 49q-16 7 -31 7q-44 0 -79 -42.5
t-51 -98.5t-16 -109v-152q0 -21 7.5 -27.5t28.5 -6.5h48q15 0 15 -13v-28q0 -13 -14 -13h-219q-14 0 -14 15v26q0 8 2.5 10.5t11.5 2.5h30q20 0 28 7t8 27v354zM205 668l-6 11q-7 11 8 20l121 70q18 10 24 1l20 -31q8 -14 -9 -21l-134 -53q-16 -7 -24 3z" />
    <glyph glyph-name="Rcommaaccent" unicode="&#x156;" horiz-adv-x="566" 
d="M245 292h-60v-197q0 -26 7 -33.5t27 -7.5h29q9 0 11 -2.5t2 -10.5v-26q0 -15 -13 -15h-196q-9 0 -12 3t-3 11v26q0 8 3 11t12 3h27q20 0 27 8t7 33v539q0 32 -25 33h-38q-7 0 -10 3t-3 12v25q0 9 3 12t13 3h197q120 0 178.5 -51t58.5 -161q0 -166 -131 -207
q30 -20 53 -67t58 -147q9 -25 18 -33.5t24 -8.5q18 0 38 12q14 9 14 -6v-26q0 -15 -15 -24q-24 -14 -56 -14q-19 0 -32 4t-29.5 22.5t-29.5 53.5q-4 10 -15 43t-18 51t-20.5 46.5t-26.5 43.5t-32.5 27t-41.5 12zM185 346h78q75 0 112 39.5t37 124.5q0 82 -39 120t-117 38
h-71v-322zM324 -135q0 23 14 38.5t33 15.5q18 0 31 -15t13 -41q0 -71 -79 -146q-10 -8 -15 -2l-8 8q-7 8 3 17q37 36 47 77q-17 2 -28 14.5t-11 33.5z" />
    <glyph glyph-name="rcommaaccent" unicode="&#x157;" horiz-adv-x="428" 
d="M106 442q0 22 -10 26t-54 4q-14 0 -14 14v25q0 15 15 16l110 7q12 0 16.5 -6t4.5 -22v-110q6 23 16 45t27.5 47t45.5 40.5t63 15.5q45 0 68.5 -24t23.5 -64h-3q3 -9 3 -19q0 -23 -14.5 -38t-33.5 -15q-21 0 -34 13.5t-13 36.5q0 33 28 49q-16 7 -31 7q-44 0 -79 -42.5
t-51 -98.5t-16 -109v-152q0 -21 7.5 -27.5t28.5 -6.5h48q15 0 15 -13v-28q0 -13 -14 -13h-219q-14 0 -14 15v26q0 8 2.5 10.5t11.5 2.5h30q20 0 28 7t8 27v354zM96 -130q0 23 14 38.5t33 15.5q18 0 31 -15t13 -41q0 -71 -79 -146q-10 -8 -15 -2l-8 8q-7 8 3 17q37 36 47 77
q-17 2 -28 14.5t-11 33.5z" />
    <glyph glyph-name="Rcaron" unicode="&#x158;" horiz-adv-x="567" 
d="M246 292h-61v-197q0 -25 7 -33t27 -8h29q9 0 11.5 -2.5t2.5 -10.5v-26q0 -15 -14 -15h-195q-9 0 -12 3t-3 11v26q0 8 3 11t12 3h27q19 0 26.5 8t7.5 33v539q0 32 -25 33h-38q-14 0 -14 15v25q0 9 3.5 12t13.5 3h197q120 0 178 -51t58 -161q0 -166 -130 -206
q29 -21 51.5 -67t58.5 -148q9 -25 18.5 -33.5t24.5 -8.5q18 0 38 12q14 9 14 -6v-26q0 -15 -16 -24q-23 -14 -55 -14q-19 0 -32 4t-29.5 22.5t-29.5 53.5q-4 10 -15 43t-18 51t-20.5 46.5t-26.5 43.5t-32.5 27t-41.5 12zM185 346h78q76 0 112.5 39.5t36.5 124.5
q0 82 -39 120t-116 38h-72v-322zM207 913l64 -71l64 71q13 13 25 13h28q10 0 11.5 -6t-6.5 -13l-91 -100q-12 -14 -31 -14t-32 14l-91 100q-8 7 -6.5 13t11.5 6h28q13 0 26 -13z" />
    <glyph glyph-name="rcaron" unicode="&#x159;" horiz-adv-x="428" 
d="M106 442q0 22 -10 26t-54 4q-14 0 -14 14v25q0 15 15 16l110 7q12 0 16.5 -6t4.5 -22v-110q6 23 16 45t27.5 47t45.5 40.5t63 15.5q45 0 68.5 -24t23.5 -64h-3q3 -9 3 -19q0 -23 -14.5 -38t-33.5 -15q-21 0 -34 13.5t-13 36.5q0 33 28 49q-16 7 -31 7q-44 0 -79 -42.5
t-51 -98.5t-16 -109v-152q0 -21 7.5 -27.5t28.5 -6.5h48q15 0 15 -13v-28q0 -13 -14 -13h-219q-14 0 -14 15v26q0 8 2.5 10.5t11.5 2.5h30q20 0 28 7t8 27v354zM177 778l64 -71l64 71q13 13 25 13h28q10 0 11.5 -5.5t-6.5 -13.5l-91 -100q-12 -14 -31 -14t-32 14l-91 100
q-8 8 -6.5 13.5t11.5 5.5h28q13 0 26 -13z" />
    <glyph glyph-name="Sacute" unicode="&#x15a;" horiz-adv-x="516" 
d="M468 572q-1 -24 -16.5 -37.5t-37.5 -13.5q-21 0 -35 14t-14 39q0 36 31 50q-39 53 -135 53q-135 0 -135 -114q0 -42 19 -70t50 -43.5t68 -28t74 -28t68 -38t50 -65t19 -101.5q0 -107 -61 -154.5t-163 -47.5q-215 0 -217 157v1q0 24 16 39t37 15t36 -14.5t15 -39.5
q0 -39 -34 -50q39 -53 145 -53q156 0 156 140q0 43 -15 74t-39.5 48t-56 31t-64 23t-64 25t-56 35t-39.5 54t-15 82q0 178 206 178q99 0 151.5 -40t55.5 -112v-8zM226 803l-6 11q-7 11 8 20l121 70q18 10 24 1l20 -31q8 -14 -9 -21l-134 -53q-16 -7 -24 3z" />
    <glyph glyph-name="sacute" unicode="&#x15b;" horiz-adv-x="433" 
d="M388 427q-1 -21 -15 -34.5t-31 -13.5q-18 0 -30.5 13t-12.5 34q0 26 17 40q-34 27 -92 27q-101 0 -101 -84q0 -42 28 -66t68 -35.5t80 -25.5t68 -48.5t28 -91.5q0 -81 -51 -118t-134 -37q-60 0 -104.5 20.5t-60.5 58.5q-16 13 -16 39q0 22 13.5 36.5t31.5 14.5t31 -13
t13 -35t-14 -36q34 -34 107 -34q119 0 119 96q0 42 -28 66t-68 35.5t-80 25.5t-68 48.5t-28 92.5q0 142 171 142q154 0 159 -110v-7zM188 668l-6 11q-7 11 8 20l121 70q18 10 24 1l20 -31q8 -14 -9 -21l-134 -53q-16 -7 -24 3z" />
    <glyph glyph-name="Scircumflex" unicode="&#x15c;" horiz-adv-x="515" 
d="M468 572q-1 -24 -16.5 -37.5t-37.5 -13.5q-21 0 -35 14t-14 39q0 36 31 50q-39 53 -135 53q-135 0 -135 -114q0 -42 19 -70t50 -43.5t68 -28t74 -28t68 -38t50 -65t19 -101.5q0 -107 -61 -154.5t-163 -47.5q-215 0 -217 157v1q0 24 16 39t37 15t36 -14.5t15 -39.5
q0 -39 -34 -50q39 -53 145 -53q156 0 156 140q0 43 -15 74t-39.5 48t-56 31t-64 23t-64 25t-56 35t-39.5 54t-15 82q0 178 206 178q99 0 151.5 -40t55.5 -112v-8zM326 810l-65 70l-63 -70q-12 -13 -25 -13h-28q-11 0 -12.5 5.5t6.5 13.5l91 100q12 14 32 14q19 0 32 -14
l92 -100q4 -5 5 -9.5t-2 -7t-10 -2.5h-28q-13 0 -25 13z" />
    <glyph glyph-name="scircumflex" unicode="&#x15d;" horiz-adv-x="433" 
d="M388 427q-1 -21 -15 -34.5t-31 -13.5q-18 0 -30.5 13t-12.5 34q0 26 17 40q-34 27 -92 27q-101 0 -101 -84q0 -42 28 -66t68 -35.5t80 -25.5t68 -48.5t28 -91.5q0 -81 -51 -118t-134 -37q-60 0 -104.5 20.5t-60.5 58.5q-16 13 -16 39q0 22 13.5 36.5t31.5 14.5t31 -13
t13 -35t-14 -36q34 -34 107 -34q119 0 119 96q0 42 -28 66t-68 35.5t-80 25.5t-68 48.5t-28 92.5q0 142 171 142q154 0 159 -110v-7zM289 674l-65 70l-63 -70q-12 -13 -25 -13h-28q-11 0 -12.5 5.5t6.5 13.5l91 100q12 14 32 14q19 0 32 -14l92 -100q4 -5 5 -9.5t-2 -7
t-10 -2.5h-28q-13 0 -25 13z" />
    <glyph glyph-name="Scedilla" unicode="&#x15e;" horiz-adv-x="515" 
d="M214 -72l25 59q-204 5 -206 157v1q0 24 16 39t37 15t36 -14.5t15 -39.5q0 -39 -34 -50q39 -53 145 -53q156 0 156 140q0 43 -15 74t-39.5 48t-56 31t-64 23t-64 25t-56 35t-39.5 54t-15 82q0 178 206 178q99 0 151.5 -40t55.5 -112v-8q-1 -24 -16.5 -37.5t-37.5 -13.5
q-21 0 -35 14t-14 39q0 36 31 50q-39 53 -135 53q-135 0 -135 -114q0 -42 19 -70t50 -43.5t68 -28t74 -28t68 -38t50 -65t19 -101.5q0 -184 -190 -200l-10 -30q41 6 67 -13t26 -63q0 -91 -111 -91q-28 0 -64 6q-6 1 -6 13v19q0 8 1.5 10t6.5 1q42 -6 59 -6q61 0 61 47
q0 38 -45 38q-9 0 -26 -2t-22 -2q-13 0 -7 12z" />
    <glyph glyph-name="scedilla" unicode="&#x15f;" horiz-adv-x="433" 
d="M149 -67l23 57q-101 12 -127 76q-16 13 -16 39q0 22 13.5 36.5t31.5 14.5t31 -13t13 -35t-14 -36q34 -34 107 -34q119 0 119 96q0 42 -28 66t-68 35.5t-80 25.5t-68 48.5t-28 92.5q0 142 171 142q154 0 159 -110v-7q-1 -21 -15 -34.5t-31 -13.5q-18 0 -30.5 13t-12.5 34
q0 26 17 40q-34 27 -92 27q-101 0 -101 -84q0 -42 28 -66t68 -35.5t80 -25.5t68 -48.5t28 -91.5q0 -80 -49 -116.5t-129 -38.5l-8 -23q41 6 67 -13t26 -63q0 -91 -111 -91q-28 0 -64 6q-6 1 -6 13v19q0 8 1.5 10t6.5 1q42 -6 59 -6q61 0 61 47q0 38 -45 38q-9 0 -26 -2
t-22 -2q-13 0 -7 12z" />
    <glyph glyph-name="Scaron" unicode="&#x160;" horiz-adv-x="516" 
d="M32 145q0 24 16 39t37 15t36 -14.5t15 -39.5q0 -39 -34 -50q38 -53 145 -53q156 0 156 140q0 43 -15 74t-39.5 48t-56 31t-64 23t-64 25t-56 35t-39.5 54t-15 82q0 178 207 178q98 0 150.5 -40.5t55.5 -111.5v-5q0 -26 -15.5 -40t-37.5 -14t-36 14t-14 39q0 35 31 49
q-40 54 -135 54q-135 0 -135 -114q0 -37 15 -63.5t39.5 -41t56 -27.5t64 -22.5t64 -27t56 -39.5t39.5 -61.5t15 -91.5q0 -107 -61.5 -154.5t-163.5 -47.5q-215 0 -217 157v1zM197 913l64 -71l64 71q13 13 25 13h28q10 0 11.5 -6t-6.5 -13l-91 -100q-12 -14 -31 -14t-32 14
l-91 100q-8 7 -6.5 13t11.5 6h28q13 0 26 -13z" />
    <glyph glyph-name="scaron" unicode="&#x161;" horiz-adv-x="433" 
d="M388 427q-1 -21 -15 -34.5t-31 -13.5q-18 0 -30.5 13t-12.5 34q0 26 17 40q-34 27 -92 27q-101 0 -101 -84q0 -42 28 -66t68 -35.5t80 -25.5t68 -48.5t28 -91.5q0 -81 -51 -118t-134 -37q-60 0 -104.5 20.5t-60.5 58.5q-16 13 -16 39q0 22 13.5 36.5t31.5 14.5t31 -13
t13 -35t-14 -36q34 -34 107 -34q119 0 119 96q0 42 -28 66t-68 35.5t-80 25.5t-68 48.5t-28 92.5q0 142 171 142q154 0 159 -110v-7zM160 778l64 -71l64 71q13 13 25 13h28q10 0 11.5 -5.5t-6.5 -13.5l-91 -100q-12 -14 -31 -14t-32 14l-91 100q-8 8 -6.5 13.5t11.5 5.5h28
q13 0 26 -13z" />
    <glyph glyph-name="Tcommaaccent" unicode="&#x162;" horiz-adv-x="542" 
d="M174 0q-9 0 -12 3t-3 11v26q0 8 3 11t12 3h27q20 0 27 8t7 33v571h-106q-26 0 -33.5 -4t-9.5 -21l-5 -69q-1 -10 -4 -12.5t-14 -2.5h-24q-9 0 -11.5 3t-2.5 14l7 123q1 17 5 21t18 4h431q14 0 18 -4t5 -21l7 -123q1 -11 -1 -14t-13 -3h-25q-10 0 -13 2.5t-4 12.5l-5 69
q-1 17 -9.5 21t-38.5 4h-100v-579q1 -20 8 -26.5t26 -6.5h29q9 0 11 -2.5t2 -10.5v-26q0 -15 -13 -15h-196zM236 -135q0 23 14 38.5t33 15.5q18 0 31 -15t13 -41q0 -71 -79 -146q-10 -8 -15 -2l-8 8q-7 8 3 17q37 36 47 77q-17 2 -28 14.5t-11 33.5z" />
    <glyph glyph-name="tcommaaccent" unicode="&#x163;" horiz-adv-x="312" 
d="M27 526h60l21 122q2 16 26 16q14 0 17.5 -3t3.5 -13v-122h116q15 0 15 -12v-31q0 -13 -15 -13h-116v-314q0 -64 18 -84.5t55 -20.5q36 0 59 13q15 7 15 -9v-29q0 -14 -13 -19q-29 -13 -76 -13q-59 0 -92.5 31t-33.5 114v331h-57q-10 0 -13 2.5t-3 11.5v26q0 16 13 16z
M116 -135q0 23 14 38.5t33 15.5q18 0 31 -15t13 -41q0 -71 -79 -146q-10 -8 -15 -2l-8 8q-7 8 3 17q37 36 47 77q-17 2 -28 14.5t-11 33.5z" />
    <glyph glyph-name="Tcaron" unicode="&#x164;" horiz-adv-x="542" 
d="M174 0q-9 0 -12 3t-3 11v26q0 8 3 11t12 3h27q20 0 27 8t7 33v571h-106q-26 0 -33.5 -4t-9.5 -21l-5 -69q-1 -10 -4 -12.5t-14 -2.5h-24q-9 0 -11.5 3t-2.5 14l7 123q1 17 5 21t18 4h431q14 0 18 -4t5 -21l7 -123q1 -11 -1 -14t-13 -3h-25q-10 0 -13 2.5t-4 12.5l-5 69
q-1 17 -9.5 21t-38.5 4h-100v-579q1 -20 8 -26.5t26 -6.5h29q9 0 11 -2.5t2 -10.5v-26q0 -15 -13 -15h-196zM203 905l64 -71l64 71q13 13 25 13h28q10 0 11.5 -6t-6.5 -13l-91 -100q-12 -14 -31 -14t-32 14l-91 100q-8 7 -6.5 13t11.5 6h28q13 0 26 -13z" />
    <glyph glyph-name="tcaron" unicode="&#x165;" horiz-adv-x="313" 
d="M27 526h60l21 122q2 16 26 16q14 0 17.5 -3t3.5 -13v-122h116q15 0 15 -12v-31q0 -13 -15 -13h-116v-314q0 -64 18 -84.5t55 -20.5q36 0 59 13q15 7 15 -9v-29q0 -14 -13 -19q-29 -13 -76 -13q-59 0 -92.5 31t-33.5 114v331h-57q-10 0 -13 2.5t-3 11.5v26q0 16 13 16z
M206 705q0 24 13.5 39t34.5 15t33.5 -15t12.5 -42q0 -73 -80 -145q-10 -11 -16 -2l-8 7q-5 8 4 17q38 36 46 77q-18 1 -29 14t-11 35z" />
    <glyph glyph-name="Tbar" unicode="&#x166;" horiz-adv-x="542" 
d="M382 382h-75v-295q1 -20 8 -26.5t26 -6.5h29q9 0 11 -2.5t2 -10.5v-26q0 -15 -13 -15h-196q-9 0 -12 3t-3 11v26q0 8 3 11t12 3h27q20 0 27 8t7 33v287h-84q-19 0 -19 36q0 22 19 22h84v226h-106q-26 0 -33.5 -4t-9.5 -21l-5 -69q-1 -10 -4 -12.5t-14 -2.5h-24
q-9 0 -11.5 3t-2.5 14l7 123q1 17 5 21t18 4h431q14 0 18 -4t5 -21l7 -123q1 -11 -1 -14t-13 -3h-25q-10 0 -13 2.5t-4 12.5l-5 69q-1 17 -9.5 21t-38.5 4h-100v-226h70q17 0 17 -33q0 -25 -12 -25z" />
    <glyph glyph-name="tbar" unicode="&#x167;" horiz-adv-x="315" 
d="M28 526h60l21 122q2 16 26 16q14 0 17.5 -3t3.5 -13v-122h116q15 0 15 -12v-31q0 -13 -15 -13h-116v-55h117q14 0 14 -12v-30q0 -14 -14 -14h-117v-203q0 -64 18 -84.5t55 -20.5q36 0 59 13q15 7 15 -9v-29q0 -14 -13 -19q-29 -13 -76 -13q-59 0 -92.5 31t-33.5 114v220
h-56q-10 0 -13 2.5t-3 11.5v25q0 17 13 17h59v55h-57q-10 0 -13 2.5t-3 11.5v26q0 16 13 16z" />
    <glyph glyph-name="Utilde" unicode="&#x168;" horiz-adv-x="680" 
d="M342 55q174 0 174 217v357q0 24 -6.5 31.5t-25.5 7.5h-29q-9 0 -12 2.5t-3 12.5v23q0 10 3 13t12 3h187q8 0 11 -3t3 -13v-23q0 -10 -2.5 -12.5t-11.5 -2.5h-31q-19 0 -25.5 -7.5t-6.5 -31.5v-362q0 -274 -238 -274q-242 0 -242 270v364q0 25 -6.5 33t-25.5 8h-29
q-9 0 -12 2.5t-3 12.5v23q0 10 3.5 13t11.5 3h195q8 0 11 -3t3 -13v-23q0 -10 -2.5 -12.5t-11.5 -2.5h-31q-19 0 -25 -7.5t-6 -33.5v-357q0 -215 171 -215zM382 848q26 0 28 33q2 7 8 7h26q9 0 9 -9q0 -81 -69 -81q-39 0 -52 26q-9 16 -18 18q-3 1 -7 1q-24 0 -26 -33
q-1 -8 -10 -8h-25q-9 0 -9 10q0 38 18 59t51 21q16 0 26.5 -5.5t14 -10t9.5 -14.5q9 -14 26 -14z" />
    <glyph glyph-name="utilde" unicode="&#x169;" horiz-adv-x="550" 
d="M251 49q68 0 104 50.5t36 140.5v202q0 22 -10 26t-53 4q-14 0 -14 14v25q0 15 14 16l111 7q21 0 21 -28v-413q0 -42 28 -42q7 0 32 5q7 3 10 1.5t3 -9.5v-27q0 -13 -12 -18q-24 -8 -53 -8q-69 0 -77 70q-49 -75 -156 -75q-75 0 -112 42.5t-37 140.5v269q0 22 -10 26
t-54 4q-13 0 -13 14v25q0 15 14 16l110 7q12 0 16.5 -6t4.5 -22v-336q0 -121 97 -121zM289 713q27 0 28 33q2 7 8 7h26q9 0 9 -9q0 -81 -69 -81q-39 0 -52 26q-9 16 -18 18q-3 1 -7 1q-24 0 -26 -33q-1 -8 -10 -8h-25q-9 0 -9 10q0 38 18 59t51 21q16 0 26.5 -5.5t14 -10
t9.5 -14.5q9 -14 26 -14z" />
    <glyph glyph-name="Umacron" unicode="&#x16a;" horiz-adv-x="680" 
d="M342 55q174 0 174 217v357q0 24 -6.5 31.5t-25.5 7.5h-29q-9 0 -12 2.5t-3 12.5v23q0 10 3 13t12 3h187q8 0 11 -3t3 -13v-23q0 -10 -2.5 -12.5t-11.5 -2.5h-31q-19 0 -25.5 -7.5t-6.5 -31.5v-362q0 -274 -238 -274q-242 0 -242 270v364q0 25 -6.5 33t-25.5 8h-29
q-9 0 -12 2.5t-3 12.5v23q0 10 3.5 13t11.5 3h195q8 0 11 -3t3 -13v-23q0 -10 -2.5 -12.5t-11.5 -2.5h-31q-19 0 -25 -7.5t-6 -33.5v-357q0 -215 171 -215zM453 802h-211q-17 0 -17 35q0 22 17 22h206q16 0 16 -32q0 -25 -11 -25z" />
    <glyph glyph-name="umacron" unicode="&#x16b;" horiz-adv-x="550" 
d="M251 49q68 0 104 50.5t36 140.5v202q0 22 -10 26t-53 4q-14 0 -14 14v25q0 15 14 16l111 7q21 0 21 -28v-413q0 -42 28 -42q7 0 32 5q7 3 10 1.5t3 -9.5v-27q0 -13 -12 -18q-24 -8 -53 -8q-69 0 -77 70q-49 -75 -156 -75q-75 0 -112 42.5t-37 140.5v269q0 22 -10 26
t-54 4q-13 0 -13 14v25q0 15 14 16l110 7q12 0 16.5 -6t4.5 -22v-336q0 -121 97 -121zM360 666h-211q-17 0 -17 35q0 22 17 22h206q16 0 16 -32q0 -25 -11 -25z" />
    <glyph glyph-name="Ubreve" unicode="&#x16c;" horiz-adv-x="680" 
d="M342 55q174 0 174 217v357q0 24 -6.5 31.5t-25.5 7.5h-29q-9 0 -12 2.5t-3 12.5v23q0 10 3 13t12 3h187q8 0 11 -3t3 -13v-23q0 -10 -2.5 -12.5t-11.5 -2.5h-31q-19 0 -25.5 -7.5t-6.5 -31.5v-362q0 -274 -238 -274q-242 0 -242 270v364q0 25 -6.5 33t-25.5 8h-29
q-9 0 -12 2.5t-3 12.5v23q0 10 3.5 13t11.5 3h195q8 0 11 -3t3 -13v-23q0 -10 -2.5 -12.5t-11.5 -2.5h-31q-19 0 -25 -7.5t-6 -33.5v-357q0 -215 171 -215zM343 837q59 0 59 49q0 11 10 11h32q10 0 10 -13q0 -46 -30.5 -72t-80.5 -26q-52 0 -80.5 26t-28.5 73q0 12 10 12h32
q10 0 10 -10q2 -50 57 -50z" />
    <glyph glyph-name="ubreve" unicode="&#x16d;" horiz-adv-x="550" 
d="M251 49q68 0 104 50.5t36 140.5v202q0 22 -10 26t-53 4q-14 0 -14 14v25q0 15 14 16l111 7q21 0 21 -28v-413q0 -42 28 -42q7 0 32 5q7 3 10 1.5t3 -9.5v-27q0 -13 -12 -18q-24 -8 -53 -8q-69 0 -77 70q-49 -75 -156 -75q-75 0 -112 42.5t-37 140.5v269q0 22 -10 26
t-54 4q-13 0 -13 14v25q0 15 14 16l110 7q12 0 16.5 -6t4.5 -22v-336q0 -121 97 -121zM248 702q59 0 59 49q0 11 10 11h32q10 0 10 -13q0 -46 -30.5 -72t-80.5 -26q-52 0 -80.5 26t-28.5 73q0 12 10 12h32q10 0 10 -10q2 -50 57 -50z" />
    <glyph glyph-name="Uring" unicode="&#x16e;" horiz-adv-x="680" 
d="M342 55q174 0 174 217v357q0 24 -6.5 31.5t-25.5 7.5h-29q-9 0 -12 2.5t-3 12.5v23q0 10 3 13t12 3h187q8 0 11 -3t3 -13v-23q0 -10 -2.5 -12.5t-11.5 -2.5h-31q-19 0 -25.5 -7.5t-6.5 -31.5v-362q0 -274 -238 -274q-242 0 -242 270v364q0 25 -6.5 33t-25.5 8h-29
q-9 0 -12 2.5t-3 12.5v23q0 10 3.5 13t11.5 3h195q8 0 11 -3t3 -13v-23q0 -10 -2.5 -12.5t-11.5 -2.5h-31q-19 0 -25 -7.5t-6 -33.5v-357q0 -215 171 -215zM341 788q-43 0 -69.5 23t-26.5 60t26 59.5t70 22.5t71 -22.5t27 -59.5t-27 -60t-71 -23zM341 824q20 0 34.5 12.5
t14.5 34.5q0 21 -14 34.5t-35 13.5q-20 0 -33.5 -13.5t-13.5 -34.5q0 -22 13.5 -34.5t33.5 -12.5z" />
    <glyph glyph-name="uring" unicode="&#x16f;" horiz-adv-x="550" 
d="M251 49q68 0 104 50.5t36 140.5v202q0 22 -10 26t-53 4q-14 0 -14 14v25q0 15 14 16l111 7q21 0 21 -28v-413q0 -42 28 -42q7 0 32 5q7 3 10 1.5t3 -9.5v-27q0 -13 -12 -18q-24 -8 -53 -8q-69 0 -77 70q-49 -75 -156 -75q-75 0 -112 42.5t-37 140.5v269q0 22 -10 26
t-54 4q-13 0 -13 14v25q0 15 14 16l110 7q12 0 16.5 -6t4.5 -22v-336q0 -121 97 -121zM248 653q-43 0 -69.5 23t-26.5 60t26 59.5t70 22.5t71 -22.5t27 -59.5t-27 -60t-71 -23zM248 689q20 0 34.5 12.5t14.5 34.5q0 21 -14 34.5t-35 13.5q-20 0 -33.5 -13.5t-13.5 -34.5
q0 -22 13.5 -34.5t33.5 -12.5z" />
    <glyph glyph-name="Uhungarumlaut" unicode="&#x170;" horiz-adv-x="680" 
d="M342 55q174 0 174 217v357q0 24 -6.5 31.5t-25.5 7.5h-29q-9 0 -12 2.5t-3 12.5v23q0 10 3 13t12 3h187q8 0 11 -3t3 -13v-23q0 -10 -2.5 -12.5t-11.5 -2.5h-31q-19 0 -25.5 -7.5t-6.5 -31.5v-362q0 -274 -238 -274q-242 0 -242 270v364q0 25 -6.5 33t-25.5 8h-29
q-9 0 -12 2.5t-3 12.5v23q0 10 3.5 13t11.5 3h195q8 0 11 -3t3 -13v-23q0 -10 -2.5 -12.5t-11.5 -2.5h-31q-19 0 -25 -7.5t-6 -33.5v-357q0 -215 171 -215zM263 803l-11 10q-9 7 3 18l106 89q15 11 25 4l28 -23q7 -6 5.5 -10.5t-12.5 -11.5l-120 -75q-16 -8 -24 -1zM393 803
l-10 10q-8 8 3 17l105 90q15 11 24 4l28 -22q7 -6 6.5 -11t-11.5 -11l-121 -76q-16 -10 -24 -1z" />
    <glyph glyph-name="uhungarumlaut" unicode="&#x171;" horiz-adv-x="550" 
d="M251 49q68 0 104 50.5t36 140.5v202q0 22 -10 26t-53 4q-14 0 -14 14v25q0 15 14 16l111 7q21 0 21 -28v-413q0 -42 28 -42q7 0 32 5q7 3 10 1.5t3 -9.5v-27q0 -13 -12 -18q-24 -8 -53 -8q-69 0 -77 70q-49 -75 -156 -75q-75 0 -112 42.5t-37 140.5v269q0 22 -10 26
t-54 4q-13 0 -13 14v25q0 15 14 16l110 7q12 0 16.5 -6t4.5 -22v-336q0 -121 97 -121zM171 668l-11 10q-9 7 3 18l106 89q15 11 25 4l28 -23q7 -6 5.5 -10.5t-12.5 -11.5l-120 -75q-16 -8 -24 -1zM301 668l-10 10q-8 8 3 17l105 90q15 11 24 4l28 -22q7 -6 6.5 -11
t-11.5 -11l-121 -76q-16 -10 -24 -1z" />
    <glyph glyph-name="Uogonek" unicode="&#x172;" horiz-adv-x="680" 
d="M342 55q174 0 174 217v357q0 24 -6.5 31.5t-25.5 7.5h-29q-9 0 -12 2.5t-3 12.5v23q0 10 3 13t12 3h187q8 0 11 -3t3 -13v-23q0 -10 -2.5 -12.5t-11.5 -2.5h-31q-19 0 -25.5 -7.5t-6.5 -31.5v-362q0 -271 -235 -274q-52 -39 -52 -91q0 -43 43 -43q23 0 41 11q18 10 22 -3
l6 -15q5 -11 -7 -21q-30 -21 -72 -21q-41 0 -66 20t-25 61q0 61 65 105q-200 22 -200 267v364q0 25 -6.5 33t-25.5 8h-29q-9 0 -12 2.5t-3 12.5v23q0 10 3.5 13t11.5 3h195q8 0 11 -3t3 -13v-23q0 -10 -2.5 -12.5t-11.5 -2.5h-31q-19 0 -25 -7.5t-6 -33.5v-357
q0 -215 171 -215z" />
    <glyph glyph-name="uogonek" unicode="&#x173;" horiz-adv-x="550" 
d="M251 49q68 0 104 50.5t36 140.5v202q0 22 -10 26t-53 4q-14 0 -14 14v25q0 15 14 16l111 7q21 0 21 -28v-413q0 -42 28 -42q7 0 32 5q7 3 10 1.5t3 -9.5v-27q0 -13 -12 -18q-23 -6 -33 -7q-64 -40 -64 -99q0 -43 43 -43q23 0 41 11q18 10 22 -3l6 -15q5 -11 -7 -21
q-30 -21 -72 -21q-41 0 -66 20t-25 61q0 65 77 112q-45 9 -52 67q-49 -75 -156 -75q-75 0 -112 42.5t-37 140.5v269q0 22 -10 26t-54 4q-13 0 -13 14v25q0 15 14 16l110 7q12 0 16.5 -6t4.5 -22v-336q0 -121 97 -121z" />
    <glyph glyph-name="Wcircumflex" unicode="&#x174;" horiz-adv-x="901" 
d="M157 622l130 -548l128 623q3 16 5.5 20.5t10.5 4.5h52q8 0 10 -4t7 -22l142 -602l119 526q8 33 0.5 40.5t-48.5 7.5q-14 0 -14 14v27q0 6 0.5 8.5t4 3.5t11.5 1h168q8 0 10.5 -2.5t2.5 -11.5v-25v-6t-1.5 -4.5t-4 -3.5t-7.5 -1q-37 0 -46.5 -8t-18.5 -46l-144 -603
q-3 -12 -7 -15t-15 -3h-42q-17 0 -21 18l-138 595l-122 -595q-3 -13 -6.5 -16t-14.5 -3h-57q-15 0 -20 19l-151 609q-9 35 -17.5 41.5t-44.5 6.5q-11 0 -14 3.5t-3 13.5v24q0 8 2 10.5t10 2.5h192q12 0 12 -13v-28q0 -13 -11 -13q-34 0 -44 -2.5t-10 -14.5q0 -7 5 -29z
M515 810l-65 70l-63 -70q-12 -13 -25 -13h-28q-11 0 -12.5 5.5t6.5 13.5l91 100q12 14 32 14q19 0 32 -14l92 -100q4 -5 5 -9.5t-2 -7t-10 -2.5h-28q-13 0 -25 13z" />
    <glyph glyph-name="wcircumflex" unicode="&#x175;" horiz-adv-x="799" 
d="M155 440l98 -387l110 446q4 19 7.5 23t12.5 4h44q8 0 11 -5t8 -24l115 -442l89 368q8 35 6.5 41t-19.5 8l-32 1q-8 2 -10.5 4t-2.5 9v26q0 9 2.5 11.5t10.5 2.5h178q7 0 9 -2t2 -9v-26q0 -16 -12 -17h-31q-17 -1 -23 -9t-17 -48l-113 -408q-2 -10 -7 -12.5t-23 -2.5h-42
q-15 0 -19 14l-112 418l-106 -417q-2 -9 -6 -12t-14 -3h-50q-13 0 -18 14l-120 432q-7 23 -15.5 28t-37.5 6q-11 1 -14.5 4t-3.5 11v26q0 13 13 13h180q11 0 11 -13v-26q0 -14 -10 -14q-42 -1 -48 -5.5t-1 -27.5zM468 699l-65 70l-63 -70q-12 -13 -25 -13h-28q-11 0 -12.5 6
t6.5 13l91 100q12 14 32 14q19 0 32 -14l92 -100q4 -5 5 -9.5t-2 -7t-10 -2.5h-28q-13 0 -25 13z" />
    <glyph glyph-name="Ycircumflex" unicode="&#x176;" horiz-adv-x="565" 
d="M213 54q18 0 25.5 6t8.5 25v212l-161 329q-13 25 -21.5 33t-23.5 8h-24q-15 0 -15 17v23q0 9 3 12t11 3h179q9 0 11.5 -3t2.5 -12v-22q0 -10 -2.5 -13.5t-11.5 -3.5h-23q-15 0 -18 -5t6 -25l125 -277l136 278q8 19 5.5 24t-17.5 5h-21q-9 0 -11.5 4t-2.5 14v22
q0 9 3 11.5t11 2.5h161q13 0 13 -15v-22q0 -10 -2.5 -13.5t-11.5 -3.5h-24q-12 0 -18.5 -6t-20.5 -31l-166 -319v-225q1 -20 8 -26.5t26 -6.5h28q9 0 12 -2.5t3 -10.5v-26q0 -15 -15 -15h-195q-8 0 -11 3t-3 11v26q0 8 2.5 11t11.5 3h27zM355 810l-65 70l-63 -70
q-12 -13 -25 -13h-28q-11 0 -12.5 5.5t6.5 13.5l91 100q12 14 32 14q19 0 32 -14l92 -100q4 -5 5 -9.5t-2 -7t-10 -2.5h-28q-13 0 -25 13z" />
    <glyph glyph-name="ycircumflex" unicode="&#x177;" horiz-adv-x="548" 
d="M162 438l116 -371l118 370q7 23 2 29t-29 6h-18q-14 0 -14 14v25q0 10 3 12.5t12 2.5h175q9 0 11.5 -3t2.5 -12v-22q0 -16 -14 -16h-24q-20 0 -27 -6.5t-17 -33.5l-176 -540q-27 -79 -63 -110.5t-89 -31.5q-40 0 -68.5 21t-32.5 57q-1 4 -1 12q0 21 13.5 35.5t31.5 14.5
t31.5 -13t13.5 -35q0 -27 -23 -43q16 -7 32 -7q32 0 55 24t43 86l22 71l-159 460q-11 26 -17.5 32t-26.5 6h-22q-14 0 -14 15v25q0 9 3 11.5t11 2.5h189q8 0 11 -3t3 -12v-23q0 -15 -14 -15h-29q-22 0 -25.5 -6.5t4.5 -28.5zM344 674l-65 70l-63 -70q-12 -13 -25 -13h-28
q-11 0 -12.5 5.5t6.5 13.5l91 100q12 14 32 14q19 0 32 -14l92 -100q4 -5 5 -9.5t-2 -7t-10 -2.5h-28q-13 0 -25 13z" />
    <glyph glyph-name="Ydieresis" unicode="&#x178;" horiz-adv-x="565" 
d="M213 54q18 0 25.5 6t8.5 25v212l-161 329q-13 25 -21.5 33t-23.5 8h-24q-15 0 -15 17v23q0 9 3 12t11 3h179q9 0 11.5 -3t2.5 -12v-22q0 -10 -2.5 -13.5t-11.5 -3.5h-23q-15 0 -18 -5t6 -25l125 -277l136 278q8 19 5.5 24t-17.5 5h-21q-9 0 -11.5 4t-2.5 14v22
q0 9 3 11.5t11 2.5h161q13 0 13 -15v-22q0 -10 -2.5 -13.5t-11.5 -3.5h-24q-12 0 -18.5 -6t-20.5 -31l-166 -319v-225q1 -20 8 -26.5t26 -6.5h28q9 0 12 -2.5t3 -10.5v-26q0 -15 -15 -15h-195q-8 0 -11 3t-3 11v26q0 8 2.5 11t11.5 3h27zM173 843q0 23 14 38t33 15
t31.5 -13.5t12.5 -36.5q0 -21 -14 -35.5t-33 -14.5q-20 0 -32 12.5t-12 34.5zM320 843q0 23 14.5 38t33.5 15q18 0 31 -13.5t13 -36.5q0 -21 -14.5 -35.5t-33.5 -14.5t-31.5 13t-12.5 34z" />
    <glyph glyph-name="Zacute" unicode="&#x179;" horiz-adv-x="531" 
d="M66 722h404q14 0 14 -22v-18q0 -11 -10 -31l-353 -597h266q24 0 33 15.5t27 88.5q2 8 3.5 11t4.5 5.5t9 2.5h25q13 0 10 -20l-16 -142q0 -15 -17 -15h-420q-10 1 -10 21v22q0 14 4 19l356 606h-240q-34 0 -43.5 -17t-18.5 -93q-3 -19 -14 -19h-30q-11 0 -9 22l8 145
q1 16 17 16zM238 803l-6 11q-7 11 8 20l121 70q18 10 24 1l20 -31q8 -14 -9 -21l-134 -53q-16 -7 -24 3z" />
    <glyph glyph-name="zacute" unicode="&#x17a;" horiz-adv-x="456" 
d="M76 528h316q13 0 13 -14v-16q0 -15 -11 -33l-276 -411h188q30 0 39 14t25 88q3 12 13 12h31q10 0 9 -13l-17 -139q-3 -16 -19 -16h-343q-11 1 -11 14v26q0 14 4 19l278 416h-162q-27 0 -35 -12t-19 -71q-2 -12 -5 -15.5t-10 -3.5h-30q-10 0 -10 16l12 123q1 16 20 16z
M197 668l-6 11q-7 11 8 20l121 70q18 10 24 1l20 -31q8 -14 -9 -21l-134 -53q-16 -7 -24 3z" />
    <glyph glyph-name="Zdotaccent" unicode="&#x17b;" horiz-adv-x="531" 
d="M223 831q0 26 15.5 42.5t37.5 16.5q21 0 35.5 -15t14.5 -40t-16 -41t-38 -16q-21 0 -35 14.5t-14 38.5zM66 722h404q14 0 14 -22v-18q0 -11 -10 -31l-353 -597h266q24 0 33 15.5t27 88.5q2 8 3.5 11t4.5 5.5t9 2.5h25q13 0 10 -20l-16 -142q0 -15 -17 -15h-420
q-10 1 -10 21v22q0 14 4 19l356 606h-240q-34 0 -43.5 -17t-18.5 -93q-3 -19 -14 -19h-30q-11 0 -9 22l8 145q1 16 17 16z" />
    <glyph glyph-name="zdotaccent" unicode="&#x17c;" horiz-adv-x="456" 
d="M76 528h316q13 0 13 -14v-16q0 -15 -11 -33l-276 -411h188q30 0 39 14t25 88q3 12 13 12h31q10 0 9 -13l-17 -139q-3 -16 -19 -16h-343q-11 1 -11 14v26q0 14 4 19l278 416h-162q-27 0 -35 -12t-19 -71q-2 -12 -5 -15.5t-10 -3.5h-30q-10 0 -10 16l12 123q1 16 20 16z
M184 720q0 26 15.5 43t37.5 17q21 0 35.5 -15.5t14.5 -40.5t-16 -41t-38 -16q-21 0 -35 14.5t-14 38.5z" />
    <glyph glyph-name="Zcaron" unicode="&#x17d;" horiz-adv-x="531" 
d="M66 722h404q14 0 14 -22v-18q0 -11 -10 -31l-353 -597h266q24 0 33 15.5t27 88.5q2 8 3.5 11t4.5 5.5t9 2.5h25q13 0 10 -20l-16 -142q0 -15 -17 -15h-420q-10 1 -10 21v22q0 14 4 19l356 606h-240q-34 0 -43.5 -17t-18.5 -93q-3 -19 -14 -19h-30q-11 0 -9 22l8 145
q1 16 17 16zM209 913l64 -71l64 71q13 13 25 13h28q10 0 11.5 -6t-6.5 -13l-91 -100q-12 -14 -31 -14t-32 14l-91 100q-8 7 -6.5 13t11.5 6h28q13 0 26 -13z" />
    <glyph glyph-name="zcaron" unicode="&#x17e;" horiz-adv-x="456" 
d="M76 528h316q13 0 13 -14v-16q0 -15 -11 -33l-276 -411h188q30 0 39 14t25 88q3 12 13 12h31q10 0 9 -13l-17 -139q-3 -16 -19 -16h-343q-11 1 -11 14v26q0 14 4 19l278 416h-162q-27 0 -35 -12t-19 -71q-2 -12 -5 -15.5t-10 -3.5h-30q-10 0 -10 16l12 123q1 16 20 16z
M169 778l64 -71l64 71q13 13 25 13h28q10 0 11.5 -5.5t-6.5 -13.5l-91 -100q-12 -14 -31 -14t-32 14l-91 100q-8 8 -6.5 13.5t11.5 5.5h28q13 0 26 -13z" />
    <glyph glyph-name="florin" unicode="&#x192;" horiz-adv-x="477" 
d="M123 500h66v79q0 204 151 204q58 0 89 -31.5t31 -82.5h-22q-2 -20 -16 -32.5t-31 -12.5q-19 0 -31 13t-12 35q0 19 11 33t27 16q-15 9 -41 9q-87 0 -87 -144v-86h115q15 0 15 -12v-28q0 -13 -14 -13h-116v-424q0 -204 -151 -204q-56 0 -87.5 29.5t-33.5 78.5v4
q0 21 13.5 35.5t31.5 14.5q19 0 32 -13t13 -35q0 -32 -27 -45q19 -17 52 -17q88 0 88 145v431h-64q-10 0 -12.5 2.5t-2.5 11.5v23q0 16 13 16z" />
    <glyph glyph-name="acaron" unicode="&#x1ce;" 
d="M57 412q1 72 43.5 102t123.5 30q95 0 139.5 -44t44.5 -158v-249q0 -42 28 -42q7 0 32 5q7 3 10 1.5t3 -9.5v-27q0 -13 -12 -18q-24 -8 -53 -8q-73 0 -77 79q-53 -80 -162 -80q-143 0 -143 138q0 93 65 133t194 40h46v43q0 81 -26 112t-88 31q-75 0 -105 -36
q27 -11 27 -44q0 -22 -14 -36t-32 -14q-19 0 -31.5 12.5t-12.5 33.5v5zM103 133q0 -86 85 -86q66 0 108.5 45.5t42.5 123.5v37h-46q-97 0 -143.5 -28t-46.5 -92zM172 778l64 -71l64 71q13 13 25 13h28q10 0 11.5 -5.5t-6.5 -13.5l-91 -100q-12 -14 -31 -14t-32 14l-91 100
q-8 8 -6.5 13.5t11.5 5.5h28q13 0 26 -13z" />
    <glyph glyph-name="AEacute" unicode="&#x1fc;" horiz-adv-x="843" 
d="M596 329h-127v-275h199q48 0 61 9t19 49l8 71q4 14 18 14h21q15 0 14 -16l-12 -134q-3 -32 -10.5 -39.5t-29.5 -7.5h-421q-14 0 -14 15v22q0 17 13 17q40 0 51.5 7t11.5 34v148h-207l-50 -142q-8 -22 -8 -31t6.5 -12t23.5 -4h19q15 -1 15 -18v-19q0 -17 -15 -17h-171
q-9 0 -11.5 3t-2.5 12v25q0 14 14 14l29 1q13 0 21 9t21 45l206 572q11 30 18 35.5t33 5.5h403q26 0 32.5 -7t8.5 -40l6 -99q1 -9 0.5 -14.5t-3.5 -7.5t-10 -2h-25q-10 0 -14 4t-5 18l-4 47q-2 33 -16.5 40t-63.5 7h-179v-286h127q22 0 23 29l2 41q1 10 3.5 12.5t13.5 2.5
h18q13 0 13 -17v-190q0 -17 -13 -17h-18q-10 0 -13.5 3t-3.5 12l-2 41q-1 30 -23 30zM336 648l-125 -351h187v370h-39q-16 0 -23 -19zM402 803l-6 11q-7 11 8 20l121 70q18 10 24 1l20 -31q8 -14 -9 -21l-134 -53q-16 -7 -24 3z" />
    <glyph glyph-name="aeacute" unicode="&#x1fd;" horiz-adv-x="799" 
d="M567 544q95 0 147 -49.5t52 -137.5q0 -79 -51 -123t-154 -44q-83 0 -146 25q15 -171 165 -171q51 0 87 12q11 4 33.5 13t24.5 10q10 3 10 -9v-28q0 -10 -2.5 -14t-13.5 -9q-61 -32 -142 -32q-166 0 -215 135q-16 -54 -63 -91t-121 -37q-143 0 -143 138q0 93 64.5 133
t194.5 40h46v43q0 81 -26 112t-88 31q-78 0 -106 -38q28 -11 28 -45q0 -21 -14 -35.5t-32 -14.5q-19 0 -31.5 13t-12.5 35v4q1 73 43 103.5t123 30.5q66 0 106.5 -20t59.5 -68q60 88 177 88zM567 490q-76 0 -114.5 -59t-39.5 -164q70 -25 139 -25q147 0 147 120
q0 60 -35.5 94t-96.5 34zM104 133q0 -86 85 -86q66 0 108.5 45.5t42.5 123.5v37h-46q-98 0 -144 -27.5t-46 -92.5zM408 667l-6 11q-7 11 8 20l121 70q18 10 24 1l20 -31q8 -14 -9 -21l-134 -53q-16 -7 -24 3z" />
    <glyph glyph-name="Oslashacute" unicode="&#x1fe;" horiz-adv-x="704" 
d="M178 -2l11 29q-77 46 -113.5 134t-36.5 196q0 55 9 105.5t31.5 101t56.5 87t89.5 59.5t125.5 23q53 0 100 -14l6 16q4 11 7 14.5t9 2.5l48 -10q13 -2 5 -22l-11 -29q77 -45 113 -133t36 -195q0 -55 -8.5 -105.5t-31 -101t-57 -87t-90 -59.5t-125.5 -23q-52 0 -99 13
l-7 -20q-4 -10 -6.5 -12.5t-9.5 -1.5l-47 11q-7 2 -8 5.5t3 15.5zM350 677q-53 0 -95 -19.5t-68 -50.5t-43 -73.5t-23.5 -84.5t-6.5 -88q0 -191 98 -272l218 575q-39 13 -80 13zM590 358q0 80 -23 153.5t-75 117.5l-218 -574q36 -12 80 -12q55 0 97.5 20t68 51.5t42 75
t22.5 84t6 84.5zM314 803l-6 11q-7 11 8 20l121 70q18 10 24 1l20 -31q8 -14 -9 -21l-134 -53q-16 -7 -24 3z" />
    <glyph glyph-name="oslashacute" unicode="&#x1ff;" horiz-adv-x="513" 
d="M96 -67l34 90q-92 68 -92 243q0 126 52.5 202t162.5 76q36 0 71 -10l34 90q3 10 6 13.5t9 2.5l45 -10q11 -2 4 -20l-40 -107q86 -70 86 -237q0 -126 -52.5 -202.5t-162.5 -76.5q-33 0 -63 8l-30 -79q-3 -7 -4 -9t-4 -4t-7 0l-44 10q-11 3 -5 20zM253 490
q-144 0 -144 -224q0 -125 45 -181l150 396q-22 9 -51 9zM397 266q0 115 -40 172l-148 -391q19 -6 44 -6q144 0 144 225zM220 668l-6 11q-7 11 8 20l121 70q18 10 24 1l20 -31q8 -14 -9 -21l-134 -53q-16 -7 -24 3z" />
    <glyph glyph-name="Scommaaccent" unicode="&#x218;" horiz-adv-x="516" 
d="M32 145q0 24 16 39t37 15t36 -14.5t15 -39.5q0 -39 -34 -50q38 -53 145 -53q156 0 156 140q0 43 -15 74t-39.5 48t-56 31t-64 23t-64 25t-56 35t-39.5 54t-15 82q0 178 207 178q98 0 150.5 -40.5t55.5 -111.5v-5q0 -26 -15.5 -40t-37.5 -14t-36 14t-14 39q0 35 31 49
q-40 54 -135 54q-135 0 -135 -114q0 -37 15 -63.5t39.5 -41t56 -27.5t64 -22.5t64 -27t56 -39.5t39.5 -61.5t15 -91.5q0 -107 -61.5 -154.5t-163.5 -47.5q-215 0 -217 157v1z" />
    <glyph glyph-name="scommaaccent" unicode="&#x219;" horiz-adv-x="433" 
d="M388 427q-1 -21 -15 -34.5t-31 -13.5q-18 0 -30.5 13t-12.5 34q0 26 17 40q-34 27 -92 27q-101 0 -101 -84q0 -42 28 -66t68 -35.5t80 -25.5t68 -48.5t28 -91.5q0 -81 -51 -118t-134 -37q-60 0 -104.5 20.5t-60.5 58.5q-16 13 -16 39q0 22 13.5 36.5t31.5 14.5t31 -13
t13 -35t-14 -36q34 -34 107 -34q119 0 119 96q0 42 -28 66t-68 35.5t-80 25.5t-68 48.5t-28 92.5q0 142 171 142q154 0 159 -110v-7zM173 -135q0 23 14 38.5t33 15.5q18 0 31 -15t13 -41q0 -71 -79 -146q-10 -8 -15 -2l-8 8q-7 8 3 17q37 36 47 77q-17 2 -28 14.5t-11 33.5z
" />
    <glyph glyph-name="dotlessj" unicode="&#x237;" horiz-adv-x="237" 
d="M-86 -145q0 21 13.5 35.5t31.5 14.5q19 0 32 -13t13 -35q0 -33 -29 -46q16 -13 42 -13q79 0 79 118v526q0 17 -5.5 24t-19.5 8h-39q-9 1 -11.5 4.5t-2.5 12.5v20q0 11 2.5 13.5t11.5 3.5l111 7q12 1 16.5 -5.5t4.5 -22.5v-578q0 -86 -34 -133.5t-105 -47.5
q-51 0 -80 27.5t-30 67.5q-1 4 -1 12z" />
    <glyph glyph-name="circumflex" unicode="&#x2c6;" horiz-adv-x="327" 
d="M193 699l-65 70l-63 -70q-12 -13 -25 -13h-28q-11 0 -12.5 6t6.5 13l91 100q12 14 32 14q19 0 32 -14l92 -100q4 -5 5 -9.5t-2 -7t-10 -2.5h-28q-13 0 -25 13z" />
    <glyph glyph-name="caron" unicode="&#x2c7;" horiz-adv-x="749" 
d="M65 806l64 -71l64 71q13 13 25 13h28q10 0 11.5 -5.5t-6.5 -13.5l-91 -100q-12 -14 -31 -14t-32 14l-91 100q-8 8 -6.5 13.5t11.5 5.5h28q13 0 26 -13z" />
    <glyph glyph-name="breve" unicode="&#x2d8;" horiz-adv-x="274" 
d="M123 727q59 0 59 49q0 11 10 11h32q10 0 10 -13q0 -46 -30.5 -72t-80.5 -26q-52 0 -80.5 26t-28.5 73q0 12 10 12h32q10 0 10 -10q2 -50 57 -50z" />
    <glyph glyph-name="dotaccent" unicode="&#x2d9;" horiz-adv-x="219" 
d="M53 757q0 26 15.5 43t37.5 17q21 0 35.5 -15.5t14.5 -40.5t-16 -41t-38 -16q-21 0 -35 14.5t-14 38.5z" />
    <glyph glyph-name="ring" unicode="&#x2da;" horiz-adv-x="273" 
d="M136 602q-43 0 -69.5 23t-26.5 60t26 59.5t70 22.5t71 -22.5t27 -59.5t-27 -60t-71 -23zM136 638q20 0 34.5 12.5t14.5 34.5q0 21 -14 34.5t-35 13.5q-20 0 -33.5 -13.5t-13.5 -34.5q0 -22 13.5 -34.5t33.5 -12.5z" />
    <glyph glyph-name="ogonek" unicode="&#x2db;" horiz-adv-x="280" 
d="M126 10h49q-77 -41 -77 -106q0 -43 43 -43q23 0 41 11q18 10 22 -3l6 -15q5 -11 -7 -21q-30 -21 -72 -21q-41 0 -66 20t-25 61q0 68 86 117z" />
    <glyph glyph-name="tilde" unicode="&#x2dc;" horiz-adv-x="314" 
d="M178 737q26 0 28 33q2 7 8 7h26q9 0 9 -9q0 -81 -69 -81q-39 0 -52 26q-9 16 -18 18q-3 1 -7 1q-24 0 -26 -33q-1 -8 -10 -8h-25q-9 0 -9 10q0 38 18 59t51 21q16 0 26.5 -5.5t14 -10t9.5 -14.5q9 -14 26 -14z" />
    <glyph glyph-name="hungarumlaut" unicode="&#x2dd;" horiz-adv-x="497" 
d="M70 631l-11 10q-9 7 3 18l106 89q15 11 25 4l28 -23q7 -6 5.5 -10.5t-12.5 -11.5l-120 -75q-16 -8 -24 -1zM200 631l-10 10q-8 8 3 17l105 90q15 11 24 4l28 -22q7 -6 6.5 -11t-11.5 -11l-121 -76q-16 -10 -24 -1z" />
    <glyph glyph-name="Wgrave" unicode="&#x1e80;" horiz-adv-x="901" 
d="M157 622l130 -548l128 623q3 16 5.5 20.5t10.5 4.5h52q8 0 10 -4t7 -22l142 -602l119 526q8 33 0.5 40.5t-48.5 7.5q-14 0 -14 14v27q0 6 0.5 8.5t4 3.5t11.5 1h168q8 0 10.5 -2.5t2.5 -11.5v-25v-6t-1.5 -4.5t-4 -3.5t-7.5 -1q-37 0 -46.5 -8t-18.5 -46l-144 -603
q-3 -12 -7 -15t-15 -3h-42q-17 0 -21 18l-138 595l-122 -595q-3 -13 -6.5 -16t-14.5 -3h-57q-15 0 -20 19l-151 609q-9 35 -17.5 41.5t-44.5 6.5q-11 0 -14 3.5t-3 13.5v24q0 8 2 10.5t10 2.5h192q12 0 12 -13v-28q0 -13 -11 -13q-34 0 -44 -2.5t-10 -14.5q0 -7 5 -29z
M465 821l-6 -13q-5 -11 -23 -3l-131 52q-21 8 -11 22l18 31q7 9 25 -1l123 -68q12 -7 5 -20z" />
    <glyph glyph-name="wgrave" unicode="&#x1e81;" horiz-adv-x="799" 
d="M155 440l98 -387l110 446q4 19 7.5 23t12.5 4h44q8 0 11 -5t8 -24l115 -442l89 368q8 35 6.5 41t-19.5 8l-32 1q-8 2 -10.5 4t-2.5 9v26q0 9 2.5 11.5t10.5 2.5h178q7 0 9 -2t2 -9v-26q0 -16 -12 -17h-31q-17 -1 -23 -9t-17 -48l-113 -408q-2 -10 -7 -12.5t-23 -2.5h-42
q-15 0 -19 14l-112 418l-106 -417q-2 -9 -6 -12t-14 -3h-50q-13 0 -18 14l-120 432q-7 23 -15.5 28t-37.5 6q-11 1 -14.5 4t-3.5 11v26q0 13 13 13h180q11 0 11 -13v-26q0 -14 -10 -14q-42 -1 -48 -5.5t-1 -27.5zM417 710l-6 -13q-5 -11 -23 -3l-131 52q-21 8 -11 22l18 31
q7 9 25 -1l123 -68q12 -7 5 -20z" />
    <glyph glyph-name="Wacute" unicode="&#x1e82;" horiz-adv-x="901" 
d="M157 622l130 -548l128 623q3 16 5.5 20.5t10.5 4.5h52q8 0 10 -4t7 -22l142 -602l119 526q8 33 0.5 40.5t-48.5 7.5q-14 0 -14 14v27q0 6 0.5 8.5t4 3.5t11.5 1h168q8 0 10.5 -2.5t2.5 -11.5v-25v-6t-1.5 -4.5t-4 -3.5t-7.5 -1q-37 0 -46.5 -8t-18.5 -46l-144 -603
q-3 -12 -7 -15t-15 -3h-42q-17 0 -21 18l-138 595l-122 -595q-3 -13 -6.5 -16t-14.5 -3h-57q-15 0 -20 19l-151 609q-9 35 -17.5 41.5t-44.5 6.5q-11 0 -14 3.5t-3 13.5v24q0 8 2 10.5t10 2.5h192q12 0 12 -13v-28q0 -13 -11 -13q-34 0 -44 -2.5t-10 -14.5q0 -7 5 -29z
M415 803l-6 11q-7 11 8 20l121 70q18 10 24 1l20 -31q8 -14 -9 -21l-134 -53q-16 -7 -24 3z" />
    <glyph glyph-name="wacute" unicode="&#x1e83;" horiz-adv-x="799" 
d="M155 440l98 -387l110 446q4 19 7.5 23t12.5 4h44q8 0 11 -5t8 -24l115 -442l89 368q8 35 6.5 41t-19.5 8l-32 1q-8 2 -10.5 4t-2.5 9v26q0 9 2.5 11.5t10.5 2.5h178q7 0 9 -2t2 -9v-26q0 -16 -12 -17h-31q-17 -1 -23 -9t-17 -48l-113 -408q-2 -10 -7 -12.5t-23 -2.5h-42
q-15 0 -19 14l-112 418l-106 -417q-2 -9 -6 -12t-14 -3h-50q-13 0 -18 14l-120 432q-7 23 -15.5 28t-37.5 6q-11 1 -14.5 4t-3.5 11v26q0 13 13 13h180q11 0 11 -13v-26q0 -14 -10 -14q-42 -1 -48 -5.5t-1 -27.5zM367 693l-6 11q-7 11 8 20l121 70q18 10 24 1l20 -31
q8 -14 -9 -21l-134 -53q-16 -7 -24 3z" />
    <glyph glyph-name="Wdieresis" unicode="&#x1e84;" horiz-adv-x="901" 
d="M157 622l130 -548l128 623q3 16 5.5 20.5t10.5 4.5h52q8 0 10 -4t7 -22l142 -602l119 526q8 33 0.5 40.5t-48.5 7.5q-14 0 -14 14v27q0 6 0.5 8.5t4 3.5t11.5 1h168q8 0 10.5 -2.5t2.5 -11.5v-25v-6t-1.5 -4.5t-4 -3.5t-7.5 -1q-37 0 -46.5 -8t-18.5 -46l-144 -603
q-3 -12 -7 -15t-15 -3h-42q-17 0 -21 18l-138 595l-122 -595q-3 -13 -6.5 -16t-14.5 -3h-57q-15 0 -20 19l-151 609q-9 35 -17.5 41.5t-44.5 6.5q-11 0 -14 3.5t-3 13.5v24q0 8 2 10.5t10 2.5h192q12 0 12 -13v-28q0 -13 -11 -13q-34 0 -44 -2.5t-10 -14.5q0 -7 5 -29z
M332 843q0 23 14 38t33 15t31.5 -13.5t12.5 -36.5q0 -21 -14 -35.5t-33 -14.5q-20 0 -32 12.5t-12 34.5zM479 843q0 23 14.5 38t33.5 15q18 0 31 -13.5t13 -36.5q0 -21 -14.5 -35.5t-33.5 -14.5t-31.5 13t-12.5 34z" />
    <glyph glyph-name="wdieresis" unicode="&#x1e85;" horiz-adv-x="799" 
d="M155 440l98 -387l110 446q4 19 7.5 23t12.5 4h44q8 0 11 -5t8 -24l115 -442l89 368q8 35 6.5 41t-19.5 8l-32 1q-8 2 -10.5 4t-2.5 9v26q0 9 2.5 11.5t10.5 2.5h178q7 0 9 -2t2 -9v-26q0 -16 -12 -17h-31q-17 -1 -23 -9t-17 -48l-113 -408q-2 -10 -7 -12.5t-23 -2.5h-42
q-15 0 -19 14l-112 418l-106 -417q-2 -9 -6 -12t-14 -3h-50q-13 0 -18 14l-120 432q-7 23 -15.5 28t-37.5 6q-11 1 -14.5 4t-3.5 11v26q0 13 13 13h180q11 0 11 -13v-26q0 -14 -10 -14q-42 -1 -48 -5.5t-1 -27.5zM285 733q0 23 14 38t33 15t31.5 -13.5t12.5 -36.5
q0 -21 -14 -35.5t-33 -14.5q-20 0 -32 12.5t-12 34.5zM432 733q0 23 14.5 38t33.5 15q18 0 31 -13.5t13 -36.5q0 -21 -14.5 -35.5t-33.5 -14.5t-31.5 13t-12.5 34z" />
    <glyph glyph-name="Ygrave" unicode="&#x1ef2;" horiz-adv-x="565" 
d="M213 54q18 0 25.5 6t8.5 25v212l-161 329q-13 25 -21.5 33t-23.5 8h-24q-15 0 -15 17v23q0 9 3 12t11 3h179q9 0 11.5 -3t2.5 -12v-22q0 -10 -2.5 -13.5t-11.5 -3.5h-23q-15 0 -18 -5t6 -25l125 -277l136 278q8 19 5.5 24t-17.5 5h-21q-9 0 -11.5 4t-2.5 14v22
q0 9 3 11.5t11 2.5h161q13 0 13 -15v-22q0 -10 -2.5 -13.5t-11.5 -3.5h-24q-12 0 -18.5 -6t-20.5 -31l-166 -319v-225q1 -20 8 -26.5t26 -6.5h28q9 0 12 -2.5t3 -10.5v-26q0 -15 -15 -15h-195q-8 0 -11 3t-3 11v26q0 8 2.5 11t11.5 3h27zM305 821l-6 -13q-5 -11 -23 -3
l-131 52q-21 8 -11 22l18 31q7 9 25 -1l123 -68q12 -7 5 -20z" />
    <glyph glyph-name="ygrave" unicode="&#x1ef3;" horiz-adv-x="548" 
d="M162 438l116 -371l118 370q7 23 2 29t-29 6h-18q-14 0 -14 14v25q0 10 3 12.5t12 2.5h175q9 0 11.5 -3t2.5 -12v-22q0 -16 -14 -16h-24q-20 0 -27 -6.5t-17 -33.5l-176 -540q-27 -79 -63 -110.5t-89 -31.5q-40 0 -68.5 21t-32.5 57q-1 4 -1 12q0 21 13.5 35.5t31.5 14.5
t31.5 -13t13.5 -35q0 -27 -23 -43q16 -7 32 -7q32 0 55 24t43 86l22 71l-159 460q-11 26 -17.5 32t-26.5 6h-22q-14 0 -14 15v25q0 9 3 11.5t11 2.5h189q8 0 11 -3t3 -12v-23q0 -15 -14 -15h-29q-22 0 -25.5 -6.5t4.5 -28.5zM294 685l-6 -13q-5 -11 -23 -3l-131 52
q-21 8 -11 22l18 31q7 9 25 -1l123 -68q12 -7 5 -20z" />
    <glyph glyph-name="thinspace" unicode="&#x2009;" horiz-adv-x="25" 
 />
    <glyph glyph-name="endash" unicode="&#x2013;" horiz-adv-x="468" 
d="M402 286h-336q-11 0 -11 11v32q0 11 11 11h337q10 0 10 -11v-32q0 -11 -11 -11z" />
    <glyph glyph-name="emdash" unicode="&#x2014;" horiz-adv-x="754" 
d="M688 286h-622q-11 0 -11 11v32q0 11 11 11h623q10 0 10 -11v-32q0 -11 -11 -11z" />
    <glyph glyph-name="quoteleft" unicode="&#x2018;" horiz-adv-x="201" 
d="M145 554q0 -26 -15 -42.5t-38 -16.5t-36.5 16t-13.5 46q0 77 87 158q11 11 18 2l8 -8q7 -8 -4 -18q-40 -38 -50 -84q19 -1 31.5 -15.5t12.5 -37.5z" />
    <glyph glyph-name="quoteright" unicode="&#x2019;" horiz-adv-x="200" 
d="M61 664q0 26 15 42.5t38 16.5t36.5 -16t13.5 -46q0 -77 -87 -158q-11 -11 -18 -2l-8 8q-7 8 4 18q40 38 50 84q-19 1 -31.5 15.5t-12.5 37.5z" />
    <glyph glyph-name="quotesinglbase" unicode="&#x201a;" horiz-adv-x="231" 
d="M66 43q0 26 15 42.5t38 16.5t36.5 -16t13.5 -46q0 -77 -87 -158q-11 -11 -18 -2l-8 8q-7 8 4 18q40 38 50 84q-19 1 -31.5 15.5t-12.5 37.5z" />
    <glyph glyph-name="quotedblleft" unicode="&#x201c;" horiz-adv-x="342" 
d="M145 554q0 -26 -15 -42.5t-38 -16.5t-36.5 16t-13.5 46q0 77 87 158q11 11 18 2l8 -8q7 -8 -4 -18q-40 -38 -50 -84q19 -1 31.5 -15.5t12.5 -37.5zM286 554q0 -26 -15 -42.5t-38 -16.5t-36.5 16t-13.5 46q0 77 87 158q11 11 18 2l8 -8q7 -8 -4 -18q-40 -38 -50 -84
q19 -1 31.5 -15.5t12.5 -37.5z" />
    <glyph glyph-name="quotedblright" unicode="&#x201d;" horiz-adv-x="343" 
d="M61 664q0 26 15 42.5t38 16.5t36.5 -16t13.5 -46q0 -77 -87 -158q-11 -11 -18 -2l-8 8q-7 8 4 18q40 38 50 84q-19 1 -31.5 15.5t-12.5 37.5zM202 664q0 26 15 42.5t38 16.5t36.5 -16t13.5 -46q0 -77 -87 -158q-11 -11 -18 -2l-8 8q-7 8 4 18q40 38 50 84
q-19 1 -31.5 15.5t-12.5 37.5z" />
    <glyph glyph-name="quotedblbase" unicode="&#x201e;" horiz-adv-x="384" 
d="M66 43q0 26 15 42.5t38 16.5t36.5 -16t13.5 -46q0 -77 -87 -158q-11 -11 -18 -2l-8 8q-7 8 4 18q40 38 50 84q-19 1 -31.5 15.5t-12.5 37.5zM219 43q0 26 15 42.5t38 16.5t36.5 -16t13.5 -46q0 -77 -87 -158q-11 -11 -18 -2l-8 8q-7 8 4 18q40 38 50 84q-19 1 -31.5 15.5
t-12.5 37.5z" />
    <glyph glyph-name="dagger" unicode="&#x2020;" horiz-adv-x="509" 
d="M289 299q-13 -194 -13 -317q0 -24 0.5 -52t0.5 -34q0 -18 -22 -18q-23 0 -23 18q0 6 1 37t1 60q0 106 -13 306q18 52 18 188q-37 0 -88 -8.5t-81 -8.5q-44 0 -44 37q0 27 41 27q36 0 85.5 -8t86.5 -8v6q0 31 -9.5 82.5t-9.5 83.5q0 23 10 38.5t25 15.5t25 -16.5t10 -38.5
q0 -31 -9.5 -82t-9.5 -83v-6q35 0 81 8t80 8q51 0 51 -29q0 -35 -52 -35q-27 0 -75 8.5t-85 8.5q0 -5 0.5 -33.5t0.5 -36.5t1 -30t3 -33l5 -26.5t8 -28.5z" />
    <glyph glyph-name="daggerdbl" unicode="&#x2021;" horiz-adv-x="554" 
d="M312 299h-69q18 -53 18 -155v-33q-37 0 -88 8.5t-81 8.5q-44 0 -44 -37q0 -27 41 -27q37 0 86.5 7.5t85.5 8.5v-6q0 -31 -9.5 -82.5t-9.5 -83.5q0 -23 10 -38.5t25 -15.5q16 0 26 16t10 39q0 31 -10 82t-10 83v6q34 -1 80 -8.5t81 -7.5q52 0 52 29q0 35 -53 35
q-27 0 -75 -8.5t-85 -8.5v23t0.5 24t1 21.5t1 22.5l1.5 20t2 21t3 19t4.5 20t5.5 17zM312 299h-69q18 53 18 155v33q-37 0 -88 -8.5t-81 -8.5q-44 0 -44 37q0 27 41 27q36 0 85.5 -8t86.5 -8v6q0 31 -9.5 82.5t-9.5 83.5q0 23 10 38.5t25 15.5t25.5 -16.5t10.5 -38.5
q0 -31 -10 -82t-10 -83v-6q35 0 81 8t80 8q52 0 52 -29q0 -35 -53 -35q-27 0 -75 8.5t-85 8.5v-23t0.5 -24t1 -21.5t1 -22.5l1.5 -20t2 -21t3 -19t4.5 -20t5.5 -17z" />
    <glyph glyph-name="bullet" unicode="&#x2022;" horiz-adv-x="286" 
d="M73 356q0 34 22 57t51 23q28 0 47.5 -20.5t19.5 -54.5q0 -35 -22.5 -58t-51.5 -23q-28 0 -47 21t-19 55z" />
    <glyph glyph-name="ellipsis" unicode="&#x2026;" horiz-adv-x="729" 
d="M52 43q0 26 15.5 42.5t37.5 16.5q21 0 35.5 -15t14.5 -40t-16 -41t-38 -16q-21 0 -35 14.5t-14 38.5zM313 43q0 26 15.5 42.5t37.5 16.5q21 0 35.5 -15t14.5 -40t-16 -41t-38 -16q-21 0 -35 14.5t-14 38.5zM574 43q0 26 15.5 42.5t37.5 16.5q21 0 35.5 -15t14.5 -40
t-16 -41t-38 -16q-21 0 -35 14.5t-14 38.5z" />
    <glyph glyph-name="perthousand" unicode="&#x2030;" horiz-adv-x="1197" 
d="M28 529q0 92 38.5 150t119.5 58t120 -58t39 -150t-39 -150.5t-120 -58.5t-119.5 58.5t-38.5 150.5zM186 688q-45 0 -68.5 -45t-23.5 -115q0 -71 22.5 -115t69.5 -44q94 0 94 159q0 71 -23.5 115.5t-70.5 44.5zM473 200q0 92 38.5 150t119.5 58t120 -58t39 -150
t-39 -150.5t-120 -58.5t-119.5 58.5t-38.5 150.5zM631 359q-45 0 -69 -45.5t-24 -114.5q0 -71 23 -115t70 -44q93 0 93 159q0 71 -23 115.5t-70 44.5zM851 200q0 92 39 150t120 58t120 -58t39 -150t-39 -150.5t-120 -58.5t-120 58.5t-39 150.5zM1010 359q-45 0 -69 -45
t-24 -115q0 -71 23 -115t70 -44q94 0 94 159q0 71 -23.5 115.5t-70.5 44.5zM175 51l425 684q10 17 22 13q7 0 17.5 -7t11.5 -15q5 -10 -7 -29l-424 -683q-11 -18 -27 -12q-24 7 -25 23q-3 9 7 26z" />
    <glyph glyph-name="guilsinglleft" unicode="&#x2039;" horiz-adv-x="404" 
d="M349 67q16 -12 16 -25q0 -15 -17 -15h-34q-12 0 -26 9l-234 190q-17 14 -23 24t-6 27t5.5 26.5t23.5 24.5l234 190q14 9 26 9h34q17 0 17 -16q0 -12 -16 -24l-263 -210z" />
    <glyph glyph-name="guilsinglright" unicode="&#x203a;" horiz-adv-x="404" 
d="M54 67l263 210l-263 210q-16 12 -16 24q0 16 18 16h34q11 0 24 -9l235 -190q18 -15 23.5 -24.5t5.5 -26.5t-6 -27t-23 -24l-235 -190q-13 -9 -24 -9h-34q-18 0 -18 15q0 13 16 25z" />
    <glyph glyph-name="fraction" unicode="&#x2044;" horiz-adv-x="396" 
d="M-37 51l425 684q10 17 22 13q7 0 17.5 -7t11.5 -15q5 -10 -7 -29l-424 -683q-11 -18 -27 -12q-24 7 -25 23q-3 9 7 26z" />
    <glyph glyph-name="zerosuperior" unicode="&#x2070;" horiz-adv-x="336" 
d="M168 413q-70 0 -109.5 58.5t-39.5 149.5q0 90 39 147t110 57q72 0 110 -56.5t38 -147.5t-39 -149.5t-109 -58.5zM258 625q0 75 -23 117.5t-67 42.5t-67.5 -42.5t-23.5 -118.5q0 -82 24 -127t67 -45t66.5 45t23.5 128z" />
    <glyph glyph-name="foursuperior" unicode="&#x2074;" horiz-adv-x="283" 
d="M8 541l173 267q6 9 15 9h38q16 0 4 -18l-166 -256h93v74q0 8 8 8h41q6 0 6 -8v-74h38q7 0 9 -1.5t2 -7.5v-22q0 -9 -10 -9h-39v-17q0 -16 4.5 -21t17.5 -5h11q9 0 9 -8v-22q0 -10 -9 -10h-119q-10 0 -10 9v23q0 8 10 8h10q12 0 16.5 5t4.5 21v17h-148q-7 0 -8.5 2t-1.5 9
v17q0 6 2 10h-1z" />
    <glyph glyph-name="fivesuperior" unicode="&#x2075;" horiz-adv-x="282" 
d="M174 772h-77l-15 -111q32 5 60 5q122 0 122 -119q0 -134 -147 -134q-63 0 -92 11q-8 3 -8 12v26q0 6 1.5 8t4.5 1q1 0 8 -2t15.5 -4t24.5 -4t33 -2q51 0 76.5 20t25.5 66q0 80 -85 80q-10 0 -36 -2t-30 -2q-1 0 -5.5 -1.5t-7.5 -1.5q-12 0 -9 21l23 169q1 9 11 9h156
q13 0 17 -4t5 -21l2 -58q0 -12 -7 -12h-20q-7 0 -9 12l-3 15q-2 16 -8 19.5t-26 3.5z" />
    <glyph glyph-name="sixsuperior" unicode="&#x2076;" horiz-adv-x="296" 
d="M152 414q-73 0 -102 47t-29 139q0 223 161 223q45 0 65 -8q7 -2 7 -7v-4v-29q0 -4 -1 -6t-4 -2t-7 1q-28 7 -51 7q-60 0 -86 -39.5t-29 -126.5q18 70 91 70q52 0 83 -33t31 -97q0 -135 -129 -135zM153 457q32 0 51.5 22.5t19.5 67.5q0 40 -18.5 63t-50.5 23
q-33 0 -52 -24t-19 -65q0 -40 18 -63.5t51 -23.5z" />
    <glyph glyph-name="sevensuperior" unicode="&#x2077;" horiz-adv-x="257" 
d="M35 817h213q7 0 7 -8v-13q0 -14 -13 -46l-135 -320q-6 -10 -13 -10h-43q-4 0 -6.5 3t-0.5 7l149 342h-98q-23 0 -31 -3.5t-9 -16.5l-2 -27q-3 -9 -10 -9h-24q-7 0 -7 10l3 71q1 14 4.5 17t15.5 3z" />
    <glyph glyph-name="eightsuperior" unicode="&#x2078;" horiz-adv-x="310" 
d="M156 823q52 0 81.5 -26t29.5 -76q0 -58 -42 -81q66 -26 66 -108q0 -61 -37.5 -90t-97.5 -29q-62 0 -99.5 29t-37.5 90q0 80 66 108q-42 23 -42 81q0 49 30 75.5t83 26.5zM77 533q0 -39 22 -58t57 -19t56.5 19t21.5 58q0 35 -19.5 58t-58.5 23q-40 0 -59.5 -23t-19.5 -58z
M156 782q-27 0 -43 -16t-16 -46t16 -45.5t43 -15.5q24 0 40.5 16t16.5 46t-15.5 45.5t-41.5 15.5z" />
    <glyph glyph-name="ninesuperior" unicode="&#x2079;" horiz-adv-x="300" 
d="M149 823q72 0 100.5 -49.5t28.5 -138.5q0 -114 -40 -167.5t-122 -53.5q-40 0 -76 11q-5 1 -5 7v33q0 9 10 7q37 -10 64 -10q58 0 84.5 38t30.5 123q-22 -65 -91 -65q-51 0 -83 34t-32 97q0 64 35 99t96 35zM148 780q-33 0 -52.5 -24t-19.5 -64t19 -64t49 -24
q29 0 50.5 21t21.5 66q0 36 -16.5 62.5t-51.5 26.5z" />
    <glyph glyph-name="zeroinferior" unicode="&#x2080;" horiz-adv-x="336" 
d="M168 -307q-70 0 -109.5 58.5t-39.5 149.5q0 90 39 147t110 57q72 0 110 -56.5t38 -147.5t-39 -149.5t-109 -58.5zM258 -95q0 75 -23 117.5t-67 42.5t-67.5 -42.5t-23.5 -118.5q0 -82 24 -127t67 -45t66.5 45t23.5 128z" />
    <glyph glyph-name="oneinferior" unicode="&#x2081;" horiz-adv-x="193" 
d="M129 -237q0 -15 6.5 -19t31.5 -4h10q9 0 9 -9v-20q0 -7 -1.5 -9t-7.5 -2h-150q-6 0 -7.5 2t-1.5 9v20q0 9 9 9h8q26 0 33 4t7 19v268q0 9 -2.5 10.5t-10.5 -1.5l-32 -12q-10 -3 -10 7v25q0 8 10 12l69 24q9 4 19 4q11 0 11 -16v-321z" />
    <glyph glyph-name="twoinferior" unicode="&#x2082;" horiz-adv-x="289" 
d="M18 6q0 8 1 12q4 37 36 60.5t84 23.5q58 0 89 -30.5t31 -77.5q0 -56 -61 -124l-115 -130h102q24 0 32 5.5t10 23.5l4 36q1 10 11 10h18q11 0 9 -11l-8 -86q-1 -12 -4 -15t-13 -3h-215q-11 0 -11 13v14q0 13 19 34l126 142q38 43 38 89q0 67 -66 67q-37 0 -61 -19
q16 -11 16 -33q0 -17 -10.5 -27.5t-26.5 -10.5q-15 0 -25 10t-10 27z" />
    <glyph glyph-name="threeinferior" unicode="&#x2083;" horiz-adv-x="287" 
d="M23 17q0 7 1 10q5 35 35.5 55.5t77.5 20.5q53 0 82 -28t29 -76q0 -44 -18 -64.5t-43 -24.5q36 -4 57.5 -29t21.5 -71q0 -58 -36 -87.5t-99 -29.5q-70 0 -104 17q-6 4 -6 11v29q0 8 5 8l15 -5q42 -14 81 -14q86 0 86 73q0 38 -22.5 56t-54.5 18h-15q-7 0 -8.5 1.5
t-1.5 8.5v27q0 8 10 8h14q63 0 63 65q0 63 -60 63q-31 0 -51 -17q8 -10 8 -25q0 -16 -10 -26t-24 -10t-23.5 10t-9.5 26z" />
    <glyph glyph-name="fourinferior" unicode="&#x2084;" horiz-adv-x="283" 
d="M8 -179l173 267q6 9 15 9h38q16 0 4 -18l-166 -256h93v74q0 8 8 8h41q6 0 6 -8v-74h38q7 0 9 -1.5t2 -7.5v-22q0 -9 -10 -9h-39v-17q0 -16 4.5 -21t17.5 -5h11q9 0 9 -8v-22q0 -10 -9 -10h-119q-10 0 -10 9v23q0 8 10 8h10q12 0 16.5 5t4.5 21v17h-148q-7 0 -8.5 2
t-1.5 9v17q0 6 2 10h-1z" />
    <glyph glyph-name="fiveinferior" unicode="&#x2085;" horiz-adv-x="282" 
d="M174 52h-78l-14 -111q33 5 60 5q122 0 122 -119q0 -134 -147 -134q-63 0 -92 11q-8 3 -8 12v26q0 6 1.5 8t4.5 1q1 0 8 -2t15.5 -4t24.5 -4t33 -2q51 0 76.5 20t25.5 66q0 80 -85 80q-10 0 -36 -2t-30 -2q-1 0 -5.5 -1.5t-7.5 -1.5q-11 0 -9 21l18 169q1 9 12 9h160
q13 0 17 -4t5 -21l2 -58q0 -12 -7 -12h-20q-7 0 -9 12l-3 15q-2 16 -8 19.5t-26 3.5z" />
    <glyph glyph-name="sixinferior" unicode="&#x2086;" horiz-adv-x="296" 
d="M152 -306q-73 0 -102 47t-29 139q0 223 161 223q45 0 65 -8q7 -2 7 -7v-4v-29q0 -4 -1 -6t-4 -2t-7 1q-28 7 -51 7q-60 0 -86 -39.5t-29 -126.5q18 70 91 70q52 0 83 -33t31 -97q0 -135 -129 -135zM153 -263q32 0 51.5 22.5t19.5 67.5q0 40 -18.5 63t-50.5 23
q-33 0 -52 -24t-19 -65q0 -40 18 -63.5t51 -23.5z" />
    <glyph glyph-name="seveninferior" unicode="&#x2087;" horiz-adv-x="257" 
d="M35 97h213q7 0 7 -8v-13q0 -14 -13 -46l-135 -320q-6 -10 -13 -10h-43q-4 0 -6.5 3t-0.5 7l149 342h-98q-23 0 -31 -3.5t-9 -16.5l-2 -27q-3 -9 -10 -9h-24q-7 0 -7 10l3 71q1 14 4.5 17t15.5 3z" />
    <glyph glyph-name="eightinferior" unicode="&#x2088;" horiz-adv-x="310" 
d="M156 103q52 0 81.5 -26t29.5 -76q0 -58 -42 -81q66 -26 66 -108q0 -61 -37.5 -90t-97.5 -29q-62 0 -99.5 29t-37.5 90q0 80 66 108q-42 23 -42 81q0 49 30 75.5t83 26.5zM77 -187q0 -39 22 -58t57 -19t56.5 19t21.5 58q0 35 -19.5 58t-58.5 23q-40 0 -59.5 -23t-19.5 -58
zM156 62q-27 0 -43 -16t-16 -46t16 -45.5t43 -15.5q24 0 40.5 16t16.5 46t-15.5 45.5t-41.5 15.5z" />
    <glyph glyph-name="nineinferior" unicode="&#x2089;" horiz-adv-x="300" 
d="M149 103q72 0 100.5 -49.5t28.5 -138.5q0 -114 -40 -167.5t-122 -53.5q-38 0 -76 10q-5 2 -5 9v32q0 9 10 7q37 -10 64 -10q58 0 84.5 38t30.5 123q-22 -65 -91 -65q-51 0 -83 34t-32 97q0 64 35 99t96 35zM148 60q-33 0 -52.5 -24t-19.5 -64t19 -64t49 -24q29 0 50.5 21
t21.5 66q0 36 -16.5 62.5t-51.5 26.5z" />
    <glyph glyph-name="Euro" unicode="&#x20ac;" horiz-adv-x="713" 
d="M557 553q0 21 12.5 35t30.5 18q-44 68 -154 68t-171 -74t-72 -193h271q19 0 19 -28q0 -26 -22 -26h-271v-4q0 -40 4 -69h211q20 0 20 -28q0 -25 -23 -25h-198q48 -179 237 -179q46 0 90.5 11.5t57.5 18t44 23.5q9 5 14.5 6.5t8.5 -1.5t3 -13v-26q0 -14 -14 -23
q-80 -55 -213 -55q-118 0 -197.5 59.5t-106.5 178.5h-87q-20 0 -20 27q0 17 7 21.5t23 4.5h69q-4 28 -4 69v4h-75q-20 0 -20 28q0 16 6.5 21t22.5 5h69q14 147 95 235.5t217 88.5q109 0 164.5 -53t55.5 -122v-3q0 -25 -16 -39t-38 -14t-36 14t-14 39z" />
    <glyph glyph-name="trademark" unicode="&#x2122;" horiz-adv-x="854" 
d="M466 709l122 -373v-1l118 376q4 11 16 11h86q9 0 9 -11v-17q0 -12 -9 -13h-20q-16 0 -17 -18v-308q0 -16 3.5 -20t15.5 -4h18q11 0 11 -11v-21q0 -10 -11 -10h-125q-5 0 -7 1.5t-2 8.5v21q0 11 9 11h16q11 0 15.5 5t4.5 19v262l-99 -321q-3 -9 -15 -9h-46q-9 0 -14 8
l-109 331v-277q0 -12 5 -15t19 -3h14q7 0 8.5 -1.5t1.5 -7.5v-23q0 -7 -2 -8.5t-8 -1.5h-121q-10 0 -10 10v22q0 10 10 10h13q15 0 19.5 3t4.5 15v312q-1 13 -6.5 16.5t-16.5 3.5l-8 1q-10 0 -10 9v20q0 11 10 11h94q9 0 13 -13zM99 678q-22 0 -29 -3t-8 -16l-3 -35
q-1 -9 -12 -9h-22q-6 0 -7.5 1.5t-1.5 8.5l4 79q1 12 4 15t13 3h269q10 0 13 -3t4 -15l5 -79q-5 -9 -10 -10h-23q-9 0 -11 10l-3 35q-1 13 -8 15.5t-32 2.5h-41v-320q0 -17 5 -22t19 -5h12q6 0 8 -1.5t2 -7.5v-22q0 -11 -10 -11h-129q-9 0 -9 10v23q0 9 9 9h13q12 0 17 4
t6 16v327h-44z" />
    <glyph glyph-name="minus" unicode="&#x2212;" horiz-adv-x="470" 
d="M402 307h-336q-11 0 -11 11v32q0 11 11 11h337q10 0 10 -11v-32q0 -11 -11 -11z" />
    <glyph glyph-name="commaaccent" unicode="&#xf6c3;" horiz-adv-x="224" 
d="M57 -135q0 23 14 38.5t33 15.5q18 0 31 -15t13 -41q0 -71 -79 -146q-10 -8 -15 -2l-8 8q-7 8 3 17q37 36 47 77q-17 2 -28 14.5t-11 33.5z" />
    <glyph glyph-name="dollaroldstyle" unicode="&#xf724;" horiz-adv-x="437" 
d="M37 105q0 22 13.5 36.5t31.5 14.5q19 0 32 -13t13 -35q0 -24 -17 -39q35 -31 104 -31q56 0 87.5 23.5t31.5 72.5q0 42 -28 66t-68.5 35.5t-80.5 25.5t-68 48.5t-28 92.5q0 128 140 140v70q0 18 17 19h36q15 0 15 -18v-71q118 -13 123 -108v-7q-1 -21 -15 -34.5t-32 -13.5
t-30.5 13t-12.5 34q0 25 17 40q-34 27 -91 27q-102 0 -102 -84q0 -36 20 -59t50.5 -32.5t66 -22t66 -26.5t50.5 -46.5t20 -80.5q0 -73 -42 -109.5t-111 -43.5v-75q0 -17 -17 -18h-37q-15 0 -15 17v76q-112 13 -133 90q-6 11 -6 26z" />
    <glyph glyph-name="zerooldstyle" unicode="&#xf730;" horiz-adv-x="565" 
d="M39 266q0 126 59 202t184 76t184.5 -76t59.5 -202t-59.5 -202.5t-184.5 -76.5q-124 0 -183.5 76.5t-59.5 202.5zM282 490q-173 0 -173 -224q0 -225 173 -225t173 225q0 224 -173 224z" />
    <glyph glyph-name="oneoldstyle" unicode="&#xf731;" horiz-adv-x="306" 
d="M127 150l-1 224v76q0 14 -3 16t-18 -3l-54 -19q-14 -5 -14 9v33q0 12 16 18l99 35q14 5 27 5q11 0 14.5 -5.5t3.5 -18.5v-127l1 -226v-83q0 -20 10.5 -25.5t47.5 -5.5h19q9 0 11.5 -3t2.5 -11v-22q0 -11 -2.5 -14t-11.5 -3h-225q-8 0 -11 3t-3 14v22q0 8 3 11t11 3h19
q36 0 47 6t11 25v66z" />
    <glyph glyph-name="twooldstyle" unicode="&#xf732;" horiz-adv-x="479" 
d="M42 409q0 58 54 96.5t141 38.5q89 0 137.5 -42.5t48.5 -107.5q0 -46 -18.5 -85t-83 -103t-186.5 -155h204q23 0 29 6t12 29l5 56q2 11 16 11h27q13 0 12 -14l-12 -117q-1 -14 -6 -18t-19 -4h-345q-10 0 -13.5 3t-3.5 14v18q0 21 31 45q121 93 182.5 152.5t77.5 92
t16 71.5q0 41 -28 67t-84 26q-78 0 -120 -36q26 -14 26 -44q0 -22 -15 -35.5t-37 -13.5q-20 0 -34 13.5t-14 35.5z" />
    <glyph glyph-name="threeoldstyle" unicode="&#xf733;" horiz-adv-x="475" 
d="M48 411q0 61 50.5 97t133.5 36q87 0 134 -43t47 -117q0 -70 -32 -102t-76 -40q59 -6 95.5 -45t36.5 -109q0 -87 -59 -132t-158 -45q-109 0 -173 28q-8 3 -8 16v34q0 11 7 11q2 0 25 -7q63 -22 140 -22q157 0 157 119q0 63 -42.5 91.5t-106.5 28.5h-18q-11 0 -13.5 2.5
t-2.5 13.5v30q0 8 3.5 10.5t12.5 2.5h17q129 0 129 110q0 109 -117 109q-62 0 -102 -33q21 -15 21 -43q0 -24 -15.5 -37.5t-36.5 -13.5t-35 13.5t-14 36.5z" />
    <glyph glyph-name="fouroldstyle" unicode="&#xf734;" horiz-adv-x="464" 
d="M10 50l301 480q8 14 22 14h41q24 0 7 -27l-288 -463h187v169q0 7 2.5 10t11.5 3h46q8 0 10.5 -2.5t2.5 -9.5v-170h73q16 0 16 -11v-30q0 -12 -15 -12h-74v-53q1 -17 7.5 -22t24.5 -5h26q9 0 11.5 -2.5t2.5 -10.5v-26q0 -15 -14 -15h-187q-14 0 -14 13v27q0 14 14 14h25
q16 0 23 5.5t8 22.5v52h-256q-10 0 -13 2.5t-3 10.5v24q0 6 2 12z" />
    <glyph glyph-name="fiveoldstyle" unicode="&#xf735;" horiz-adv-x="464" 
d="M295 480h-144l-28 -184q66 9 111 9q193 0 193 -184q0 -207 -235 -207q-98 0 -148 18q-9 3 -11 6.5t-2 11.5v31q0 15 10 12q1 0 10 -3t19.5 -5.5t25.5 -5.5t36 -4.5t44 -1.5q87 0 132 34t45 111q0 71 -36.5 102t-107.5 31q-61 0 -115 -8q-12 -2 -22 -2t-13 6t-1 25l36 252
q3 15 19 15h246q21 0 28 -6.5t8 -31.5l4 -81q1 -17 -11 -17h-25q-12 0 -14 19l-3 26q-4 23 -12 27.5t-39 4.5z" />
    <glyph glyph-name="sixoldstyle" unicode="&#xf736;" horiz-adv-x="503" 
d="M257 -9q-116 0 -163 73.5t-47 214.5q0 344 256 344q62 0 105 -13q9 -3 10.5 -4.5t1.5 -7.5v-3v-35q0 -9 -4 -10.5t-15 1.5q-53 10 -87 10q-101 0 -147 -67t-50 -207q34 113 162 113q83 0 134 -51.5t51 -149.5q0 -106 -55.5 -157t-151.5 -51zM259 46q58 0 94.5 38
t36.5 112q0 67 -34 106.5t-94 39.5t-95.5 -41t-35.5 -109q0 -66 33.5 -106t94.5 -40z" />
    <glyph glyph-name="sevenoldstyle" unicode="&#xf737;" horiz-adv-x="418" 
d="M61 544h339q11 0 11 -10v-19q0 -23 -18 -59l-230 -513q-7 -13 -18 -13h-55q-6 0 -8.5 3.5t0.5 9.5l249 542h-195q-31 0 -40.5 -4.5t-12.5 -24.5l-4 -43q-1 -14 -14 -14h-30q-10 0 -10 16l4 100q1 20 6.5 24.5t25.5 4.5z" />
    <glyph glyph-name="eightoldstyle" unicode="&#xf738;" horiz-adv-x="523" 
d="M261 622q84 0 131 -39.5t47 -114.5q0 -92 -74 -127q47 -16 80.5 -56.5t33.5 -111.5q0 -96 -60 -140t-158 -44t-158 44t-60 140q0 71 33.5 112t80.5 56q-74 35 -74 127q0 75 47.5 114.5t130.5 39.5zM119 173q0 -67 38.5 -98t103.5 -31t104 31t39 98q0 58 -33.5 95.5
t-102.5 39.5h-7q-72 0 -107 -37.5t-35 -97.5zM261 570q-49 0 -78 -25.5t-29 -77.5t29 -77t78 -25q47 0 77.5 25.5t30.5 76.5t-29.5 77t-78.5 26z" />
    <glyph glyph-name="nineoldstyle" unicode="&#xf739;" horiz-adv-x="494" 
d="M245 544q61 0 103 -22.5t64.5 -64t31.5 -90t9 -111.5q0 -90 -18.5 -156.5t-45 -101.5t-65 -55.5t-68.5 -25.5t-67 -5q-65 0 -123 16q-8 3 -8 10v42q0 11 15 8q75 -15 108 -15q28 0 48.5 2.5t51.5 17.5t50.5 41.5t35 79t16.5 126.5q-34 -106 -152 -106q-90 0 -142 51.5
t-52 149.5q0 99 54.5 154t153.5 55zM246 488q-64 0 -99 -41t-35 -110q0 -67 34 -105.5t97 -38.5q55 0 91 34t36 113q0 72 -32 110t-92 38z" />
    <glyph glyph-name="J.001" horiz-adv-x="450" 
d="M25 134q0 25 15.5 40t37.5 15q21 0 35.5 -14.5t14.5 -39.5q0 -22 -12 -36t-30 -17q22 -44 83 -44q52 0 79 43.5t27 113.5v432q0 25 -6.5 33t-25.5 8h-30q-9 0 -11.5 2.5t-2.5 12.5v23q0 10 3 13t11 3h195q8 0 11.5 -3t3.5 -13v-23q0 -10 -3 -12.5t-12 -2.5h-30
q-20 0 -26 -7.5t-6 -33.5v-424q0 -98 -43.5 -155t-127.5 -57q-76 0 -113 41t-37 102z" />
    <glyph glyph-name="d.001" horiz-adv-x="525" 
d="M384 113q-54 -122 -168 -122q-86 0 -132 61t-46 181q0 61 13 115.5t39 99t69.5 70.5t98.5 26q87 0 126 -70v261q0 16 4 22.5t16 5.5l105 -7q21 -1 21 -19v-18q0 -18 -21 -17l-32 -1q-14 0 -19.5 -7t-5.5 -24v-651q0 -19 -11 -19h-40q-10 0 -10 15zM229 48q69 0 111 63
t44 176v12q0 190 -115 190q-77 0 -118.5 -73t-41.5 -180q0 -88 30 -138t90 -50z" />
    <glyph glyph-name="g.001" horiz-adv-x="541" 
d="M54 -88q0 21 13.5 35.5t31.5 14.5t31 -13t13 -35q0 -34 -32 -46q28 -61 122 -61q151 0 151 219v87q-54 -122 -168 -122q-86 0 -132 61t-46 181q0 61 13 115.5t39 99t69.5 70.5t98.5 26q87 0 126 -70v33q0 16 4.5 22t16.5 6l108 -8q14 -1 14 -14v-27q0 -3 -0.5 -5t-2.5 -3
t-2.5 -1.5t-4 -2t-4.5 -1.5h-36q-16 -2 -20.5 -10.5t-4.5 -34.5v-390q0 -147 -57 -217t-160 -70q-79 0 -130 39.5t-51 119.5v2zM229 48q71 0 113 66.5t42 184.5v11q-4 179 -115 179q-77 0 -118.5 -73t-41.5 -180q0 -88 30 -138t90 -50z" />
    <glyph glyph-name="l.ital" horiz-adv-x="237" 
d="M144 93q0 -42 28 -42q6 0 33 5q12 5 12 -8v-27q0 -13 -12 -18q-24 -8 -53 -8q-76 0 -76 88v587q0 17 -5.5 24t-19.5 7l-40 1q-13 1 -13 17v20q0 10 2.5 13t10.5 4l112 7q12 1 16.5 -5.5t4.5 -22.5v-642z" />
    <glyph glyph-name="p.001" horiz-adv-x="545" 
d="M90 -161v538h2v8h-2v57q0 22 -10 26t-53 4q-14 0 -14 14v25q0 15 14 16l111 7q12 0 16.5 -6t4.5 -22v-92q47 130 168 130q179 0 179 -252q0 -133 -51 -216.5t-151 -83.5q-96 0 -145 83v-236q0 -21 7.5 -27.5t28.5 -6.5h30q9 0 11.5 -2.5t2.5 -10.5v-26q0 -9 -3 -12
t-11 -3h-200q-8 0 -11 3t-3 12v26q0 8 2.5 10.5t11.5 2.5h31q20 0 27 6.5t7 27.5zM316 488q-76 0 -115.5 -74t-39.5 -177q0 -71 34.5 -129.5t93.5 -58.5q74 0 110.5 67t36.5 174q0 198 -120 198z" />
    <glyph glyph-name="t.001" horiz-adv-x="296" 
d="M42 523h43l26 133q3 16 30 16q12 0 14.5 -3t2.5 -13v-132h84q21 0 21 -18v-21q0 -18 -20 -18h-85v-375q0 -24 7 -35t25 -11q32 0 32 43q0 9 9 9h30q9 0 9 -12q-3 -45 -25.5 -71t-63.5 -26q-93 0 -93 102v376h-37q-19 0 -24.5 3.5t-5.5 16.5v19q0 9 4.5 13t16.5 4z" />
    <glyph glyph-name="b.001" horiz-adv-x="526" 
d="M120 0h-36q-11 0 -11 14v656q0 31 -24 31l-40 1q-13 1 -13 17v20q0 10 2.5 13t10.5 4l112 7q12 1 16.5 -5.5t4.5 -22.5v-321q41 130 165 130q180 0 180 -232q0 -81 -21 -151.5t-71 -120t-120 -49.5q-32 0 -58 10t-41.5 26t-24.5 28.5t-14 25.5l-5 -72q-2 -9 -12 -9z
M296 488q-68 0 -111 -62t-43 -188q0 -191 117 -191q42 0 74 24t49.5 64t26 84t8.5 92q0 177 -121 177z" />
    <glyph glyph-name="K.001" horiz-adv-x="615" 
d="M483 627l-173 -208l195 -300q26 -38 39.5 -51.5t29.5 -13.5h27q13 0 13 -15v-24q0 -9 -2.5 -12t-10.5 -3h-186q-9 0 -11.5 2.5t-2.5 12.5v20q0 17 14 18l24 1q14 1 14 6t-23 43l-166 261l-79 -95v-174q0 -25 7 -33t27 -8h29q9 0 11.5 -2.5t2.5 -10.5v-26q0 -15 -14 -15
h-195q-9 0 -12 3t-3 11v26q0 8 3 11t12 3h27q19 0 26.5 8t7.5 33v532q0 25 -7 33t-26 8h-29q-9 0 -12 2.5t-3 12.5v23q0 10 3.5 13t11.5 3h195q8 0 11 -3t3 -13v-23q0 -10 -2.5 -12.5t-11.5 -2.5h-30q-19 0 -25.5 -7.5t-6.5 -33.5v-279l239 291q25 29 0 29h-26q-13 0 -13 21
v17q0 10 2.5 13t10.5 3h185q8 0 10.5 -3t2.5 -13v-21q0 -17 -13 -17h-39q-27 0 -61 -41z" />
    <glyph glyph-name="percent.osf" horiz-adv-x="741" 
d="M167 48l379 575q7 10 10.5 12t10.5 1q8 -1 18 -7.5t11 -15.5q3 -9 -7 -26l-378 -574q-12 -16 -25 -11q-8 1 -16.5 7.5t-8.5 16.5q-2 6 6 22zM28 450q0 78 35.5 127t110.5 49t110.5 -49t35.5 -127q0 -79 -35.5 -128.5t-110.5 -49.5t-110.5 49.5t-35.5 128.5zM174 580
q-39 0 -59.5 -36.5t-20.5 -94.5q0 -59 19.5 -94.5t60.5 -35.5q81 0 81 130q0 58 -20 94.5t-61 36.5zM422 170q0 78 36 127.5t111 49.5q74 0 110.5 -50t36.5 -127q0 -78 -36.5 -128t-110.5 -50q-75 0 -111 50t-36 128zM569 300q-40 0 -60.5 -36.5t-20.5 -94.5t20 -94t61 -36
q81 0 81 130q0 59 -20 95t-61 36z" />
    <glyph glyph-name="ampersand.001" horiz-adv-x="600" 
d="M397 562q0 30 23 45q-25 68 -135 68q-142 0 -142 -134q0 -49 27.5 -90t89.5 -41h22q9 0 11.5 -3.5t2.5 -13.5v-23q0 -17 -12 -17h-26q-71 0 -108.5 -44t-37.5 -105q0 -80 42.5 -119.5t107.5 -39.5q77 0 125 47t48 146v73q0 25 -6.5 33t-25.5 8h-29q-9 0 -12 2.5t-3 12.5
v24q0 9 3 12t12 3h195q9 0 11.5 -3t2.5 -12v-24q0 -10 -2.5 -12.5t-11.5 -2.5h-31q-19 0 -25.5 -7.5t-6.5 -33.5v-73q0 -126 -67.5 -188.5t-176.5 -62.5q-99 0 -161.5 54t-62.5 158q0 74 37 122.5t91 63.5q-42 16 -69 56t-27 104q0 90 57 138.5t157 48.5q102 -2 159.5 -44.5
t57.5 -123.5v-1q0 -25 -16 -39.5t-38 -14.5t-36 14t-14 39z" />
    <glyph glyph-name="d.002" horiz-adv-x="516" 
d="M443 19q0 -19 -11 -19h-40q-10 0 -11 15l-5 72q-50 -100 -160 -100q-83 0 -130.5 65t-47.5 190q0 137 55.5 219t159.5 82q62 0 121 -44v171q0 31 -24 31l-40 1q-13 1 -13 17v20q0 10 2.5 13t10.5 4l112 7q12 1 16.5 -6t4.5 -22v-716zM232 44q126 0 142 216v180
q-42 46 -112 46q-78 0 -115.5 -70t-37.5 -171q0 -88 30 -144.5t93 -56.5z" />
    <glyph glyph-name="x.bl" horiz-adv-x="507" 
d="M112 107l105 154l-112 180q-14 21 -23 27t-28 7h-20q-14 1 -14 14v24q0 9 3 11.5t11 2.5h189q13 0 13 -15v-23q0 -14 -11 -14h-23q-24 0 -26 -4t14 -29l70 -117l81 119q16 20 15 25.5t-23 5.5h-14q-13 0 -13 14v23q0 15 14 15h159q8 0 10.5 -3t2.5 -12v-24q0 -13 -13 -14
h-20q-12 -1 -18.5 -3.5t-20 -16.5t-34.5 -44l-93 -140l95 -156q24 -37 37 -48.5t28 -12.5h26q12 -1 12 -14v-25q0 -9 -2.5 -11.5t-10.5 -2.5h-173q-8 0 -11 3t-3 12v21q0 16 14 16q31 0 34.5 4.5t-10.5 26.5l-78 124l-79 -119q-18 -26 -17 -30.5t22 -4.5h20q12 -1 12 -13
v-26q0 -14 -12 -14h-172q-8 0 -11 2.5t-3 11.5v23q0 15 12 16h22q32 1 67 54z" />
    <glyph glyph-name="w.bl" horiz-adv-x="799" 
d="M156 439l104 -385l103 445q4 19 7.5 23.5t12.5 4.5h45q8 0 11 -5t8 -25l108 -440l93 365q9 35 8 41.5t-19 8.5l-32 1q-8 2 -10.5 4t-2.5 9v26q0 15 13 15h178q12 0 12 -11v-26q0 -16 -12 -17l-31 -1q-17 -1 -23 -9.5t-18 -48.5l-118 -407q-3 -10 -7.5 -12.5t-22.5 -2.5
h-44q-14 0 -18 14l-105 417l-100 -416q-2 -9 -5.5 -12t-14.5 -3h-51q-13 0 -18 14l-126 431q-7 24 -16 29.5t-37 5.5q-11 0 -14.5 3t-3.5 12v27q0 13 13 13h181q12 0 12 -13v-27q0 -13 -11 -13q-41 -1 -47.5 -6t-1.5 -29z" />
    <glyph glyph-name="M.bl" horiz-adv-x="799" 
d="M213 701l197 -643l189 649q4 15 27 15h119q9 0 11.5 -3t2.5 -12v-21q0 -16 -14 -17l-49 -1q-4 -1 -11 -1v-579q0 -21 5 -27.5t21 -6.5h37q16 0 16 -18v-21q0 -15 -16 -15h-191q-9 0 -12 3t-3 12v21q0 18 15 18h33q16 0 22.5 7t6.5 27v499l-165 -574q-4 -10 -8 -12.5
t-17 -2.5h-53q-16 0 -21 14l-184 594v-528q0 -15 7 -19.5t27 -4.5h28q9 0 11.5 -2t2.5 -12v-25q0 -9 -2.5 -12t-11.5 -3h-183q-9 0 -12 2.5t-3 11.5v25q0 10 3 12.5t12 2.5h26q20 0 27.5 4.5t7.5 19.5v590q-8 0 -12 1h-43q-14 1 -14 15v23q0 9 2.5 12t11.5 3h136
q15 0 21 -21z" />
    <glyph glyph-name="undercommaaccent" horiz-adv-x="224" 
d="M57 -135q0 23 14 38.5t33 15.5q18 0 31 -15t13 -41q0 -71 -79 -146q-10 -8 -15 -2l-8 8q-7 8 3 17q37 36 47 77q-17 2 -28 14.5t-11 33.5z" />
    <glyph glyph-name="A.SC" horiz-adv-x="575" 
d="M423 93l-35 111h-216l-36 -116q-6 -21 -0.5 -27.5t25.5 -8.5h12q10 -2 13.5 -5t3.5 -11v-22q0 -9 -3 -11.5t-13 -2.5h-154q-12 0 -12 14v23q0 16 13 16l26 1q11 0 16.5 6.5t13.5 30.5l164 516q3 9 6.5 11.5t14.5 2.5h52q14 0 18 -12l165 -514q9 -28 15.5 -34.5t26.5 -7.5
h16q11 0 14 -3t3 -12v-24q0 -9 -2.5 -11.5t-12.5 -2.5h-170q-9 0 -12 2.5t-3 11.5v23q0 8 3 10t14 4h12q23 2 26.5 9t-4.5 33zM279 547l-91 -291h183z" />
    <glyph glyph-name="B.SC" horiz-adv-x="536" 
d="M108 529q0 30 -22 31h-33q-13 0 -13 14v26q0 8 3 11t12 3h212q99 0 148 -34t49 -114q0 -61 -27.5 -95.5t-66.5 -41.5v-1q59 -9 94 -49.5t35 -109.5q0 -53 -17.5 -88t-51 -52t-69 -23t-83.5 -6h-225q-13 0 -13 14v23q0 16 12 16q35 0 45.5 6.5t10.5 29.5v440zM180 298
v-245h104q138 0 138 115q0 130 -145 130h-97zM180 560v-205h100q110 0 110 108q0 56 -30 76.5t-85 20.5h-95z" />
    <glyph glyph-name="C.SC" horiz-adv-x="561" 
d="M114 295q0 -113 52 -179.5t166 -66.5q96 0 176 44q11 7 17.5 6.5t6.5 -14.5v-29q0 -11 -12 -19q-25 -17 -77.5 -31.5t-120.5 -14.5q-132 0 -207.5 77t-75.5 229q0 146 75 235t212 89q98 0 148.5 -45t50.5 -103q0 -24 -15.5 -39t-36.5 -15t-34.5 14t-13.5 37q0 39 33 51
q-42 44 -128 44q-109 0 -162.5 -75.5t-53.5 -194.5z" />
    <glyph glyph-name="D.SC" horiz-adv-x="604" 
d="M563 306q0 -154 -83.5 -230t-236.5 -76h-190q-13 0 -13 14v23q0 16 12 16q35 0 45.5 6.5t10.5 29.5v440q0 30 -22 31h-33q-13 0 -13 14v26q0 8 3 11t12 3h191q317 0 317 -308zM180 560v-504h62q247 0 247 250q0 133 -62.5 193.5t-190.5 60.5h-56z" />
    <glyph glyph-name="E.SC" horiz-adv-x="515" 
d="M53 0q-13 0 -13 14v23q0 16 12 16q35 0 45.5 6.5t10.5 29.5v440q0 30 -22 31h-33q-13 0 -13 14v26q0 8 3 11t12 3h362q23 0 29 -6.5t7 -34.5l6 -88q1 -14 -0.5 -17.5t-11.5 -3.5h-25q-9 0 -13 4t-5 16l-3 37q-3 28 -16.5 34t-59.5 6h-145v-233h101q21 0 22 24l2 32
q1 9 4 11.5t12 2.5h19q12 0 12 -14v-163q0 -14 -12 -14h-19q-9 0 -12 2.5t-4 10.5l-2 31q-1 25 -22 25h-101v-224h211q15 0 19.5 4.5t6.5 19.5l9 83q1 12 18 12h23q14 0 13 -14l-11 -134q-1 -15 -6.5 -19t-19.5 -4h-390z" />
    </font>
</defs>
</svg>
